<svg xmlns="http://www.w3.org/2000/svg" viewBox="0 0 16.36 16.36"><defs><style>.cls-1{fill:#fff;}</style></defs><title>Ativo 1</title><g id="Camada_2" data-name="Camada 2"><g id="Capa_1" data-name="Capa 1"><path class="cls-1" d="M8.18,1.47c2.19,0,2.45,0,3.31.05A4.69,4.69,0,0,1,13,1.8a2.57,2.57,0,0,1,.94.62,2.51,2.51,0,0,1,.61.94,4.37,4.37,0,0,1,.28,1.52c0,.86.05,1.12.05,3.3s0,2.45-.05,3.31A4.43,4.43,0,0,1,14.56,13,2.69,2.69,0,0,1,13,14.56a4.43,4.43,0,0,1-1.52.28c-.86,0-1.12.05-3.31.05s-2.44,0-3.3-.05a4.37,4.37,0,0,1-1.52-.28A2.51,2.51,0,0,1,2.42,14,2.57,2.57,0,0,1,1.8,13a4.69,4.69,0,0,1-.28-1.52c0-.86-.05-1.12-.05-3.31s0-2.44.05-3.3A4.63,4.63,0,0,1,1.8,3.36a2.42,2.42,0,0,1,.62-.94,2.42,2.42,0,0,1,.94-.62,4.63,4.63,0,0,1,1.52-.28c.86,0,1.12-.05,3.3-.05M8.18,0C6,0,5.68,0,4.81.05a6.1,6.1,0,0,0-2,.38A4.14,4.14,0,0,0,.43,2.82a6.1,6.1,0,0,0-.38,2C0,5.68,0,6,0,8.18s0,2.5.05,3.38a6,6,0,0,0,.38,2A4,4,0,0,0,1.37,15a3.85,3.85,0,0,0,1.45.94,5.62,5.62,0,0,0,2,.38c.87,0,1.15.05,3.37.05s2.5,0,3.38-.05a5.55,5.55,0,0,0,2-.38,4.14,4.14,0,0,0,2.39-2.39,5.55,5.55,0,0,0,.38-2c0-.88.05-1.16.05-3.38s0-2.5-.05-3.37a5.62,5.62,0,0,0-.38-2A3.85,3.85,0,0,0,15,1.37,4,4,0,0,0,13.54.43a6,6,0,0,0-2-.38c-.88,0-1.16,0-3.38,0Z"/><path class="cls-1" d="M8.18,4a4.2,4.2,0,1,0,4.2,4.2A4.2,4.2,0,0,0,8.18,4Zm0,6.93a2.73,2.73,0,1,1,2.73-2.73A2.73,2.73,0,0,1,8.18,10.91Z"/><path class="cls-1" d="M13.53,3.81a1,1,0,1,1-1-1A1,1,0,0,1,13.53,3.81Z"/></g></g></svg>