<?xml version="1.0" standalone="no"?>
<!DOCTYPE svg PUBLIC "-//W3C//DTD SVG 1.1//EN" "http://www.w3.org/Graphics/SVG/1.1/DTD/svg11.dtd" >
<svg xmlns="http://www.w3.org/2000/svg" xmlns:xlink="http://www.w3.org/1999/xlink" version="1.1">
<metadata>
Created by FontForge 20161003 at Sat Nov 25 22:33:11 2017
 By www-data
HTF Requiem    1991-4 The Hoefler Type Foundry, Inc. Info: www.typography.com
</metadata>
<defs>
<font id="RequiemFineHTFRoman" horiz-adv-x="196" >
  <font-face 
    font-family="RequiemFineHTFRoman"
    font-weight="500"
    font-stretch="normal"
    units-per-em="1000"
    panose-1="0 0 0 0 0 0 0 0 0 0"
    ascent="800"
    descent="-200"
    x-height="396"
    cap-height="634"
    bbox="-78.1429 -331.5 1308 897"
    underline-thickness="17"
    underline-position="-149"
    unicode-range="U+0020-00FF"
  />
<missing-glyph horiz-adv-x="500" 
 />
    <glyph glyph-name=".notdef" horiz-adv-x="500" 
 />
    <glyph glyph-name=".null" horiz-adv-x="0" 
 />
    <glyph glyph-name="nonmarkingreturn" horiz-adv-x="333" 
 />
    <glyph glyph-name="space" unicode=" " horiz-adv-x="210" 
 />
    <glyph glyph-name="exclam" unicode="!" horiz-adv-x="234" 
d="M120 143q-1 -2 -5 -1q-3 222 -28 434q-1 9 17.5 15.5t37.5 6.5t19 -7q-6 -216 -41 -448zM117 -16q-14 0 -23.5 10.5t-9.5 23.5q0 14 10 25t25 11q14 0 24 -10.5t10 -23.5q0 -14 -10.5 -25t-25.5 -11z" />
    <glyph glyph-name="quotedbl" unicode="&#x22;" horiz-adv-x="301" 
d="M26 463q-1 -1 -3 0l127 203q3 3 9.5 0.5t12 -8.5t2.5 -9zM130 463q-1 -1 -3 1l136 197q2 3 9 0t11.5 -9t2.5 -9z" />
    <glyph glyph-name="numbersign" unicode="#" horiz-adv-x="685" 
d="M633 388q1 0 1.5 -2.5t-0.5 -5t-2 -2.5l-162 1l-9 -112l-7 -112h164q2 0 2 -4.5t-2 -5.5h-25.5t-57 0.5t-57 0.5h-25.5l-14 -218q0 -1 -2.5 -1.5t-5.5 0.5t-3 2l16 217l-109 2l-110 -1l-15 -219q0 -1 -2.5 -1t-5 0.5t-2.5 1.5l16 218l-166 -2q-1 0 -1 2.5t1 5.5t2 3
l165 -1l8 113l7 112l-166 -2q-1 0 -1 2.5t1 5.5t2 3l165 -1l14 219q0 1 2.5 1t5 -1t2.5 -2l-15 -217l109 -1l110 1l14 219q0 1 2.5 1t5 -1t2.5 -2l-15 -217h163zM461 379l-110 1h-110l-8 -113l-7 -112h109h110l8 113z" />
    <glyph glyph-name="dollar" unicode="$" horiz-adv-x="435" 
d="M208 -22l-4 -50q-1 -2 -6.5 -1.5t-5.5 2.5l5 50q-76 4 -139 59q-2 8 -1 18.5t3.5 42t2.5 54.5q0 2 6 1q5 -65 38.5 -107t90.5 -49l17 241q-31 19 -41 25t-34 24.5t-33.5 32t-18.5 35t-9 45.5q0 59 44.5 105t113.5 49l3 52q0 1 3 1t6 -1t3 -3l-4 -49q59 -4 98 -29
q10 -7 10 -96q-1 -1 -2.5 -0.5t-3.5 1.5q-8 44 -36 73t-68 33l-15 -218q76 -46 100 -71q43 -43 43 -101q0 -69 -46.5 -118t-119.5 -51zM130 447q0 -39 23 -66.5t69 -55.5l14 213q-47 -2 -76.5 -26t-29.5 -65zM225 236l-16 -239h4q49 0 81.5 27.5t32.5 75.5q0 42 -25.5 71.5
t-76.5 64.5z" />
    <glyph glyph-name="percent" unicode="%" horiz-adv-x="529" 
d="M182 279q-41 -31 -65 -31q-26 0 -47 31.5t-21 85.5q0 48 22 91.5t60 71.5q42 32 65 32q26 0 47.5 -32t21.5 -86q0 -47 -22.5 -91t-60.5 -72zM267 272l-181 -304q-1 -1 -3.5 -1t-4.5 1t-2 2l184 302l182 305q2 3 9 -1q2 -1 1 -2zM397 17q-42 -32 -65 -32q-26 0 -47.5 32.5
t-21.5 86.5q0 47 22.5 90.5t60.5 72.5q39 32 64 32q26 0 48 -32.5t22 -86.5q0 -47 -22.5 -90.5t-60.5 -72.5zM162 528q-25 0 -44.5 -37.5t-19.5 -101.5q0 -53 14.5 -81t38.5 -28q25 0 45 37t20 101q0 53 -15 81.5t-39 28.5zM377 266q-25 0 -44.5 -37t-19.5 -101
q0 -54 14.5 -82t37.5 -28q25 0 45 37t20 101q0 53 -15 81.5t-38 28.5z" />
    <glyph glyph-name="ampersand" unicode="&#x26;" horiz-adv-x="688" 
d="M549 -14q-48 0 -82 25.5t-71 77.5q-43 -50 -87.5 -77.5t-99.5 -27.5t-109.5 40.5t-54.5 112.5q0 116 151 176q-72 59 -72 119q0 53 33.5 87t94.5 34q48 0 84 -29t36 -71q0 -69 -109 -117q35 -22 68.5 -55.5t52.5 -58.5t48 -68q72 102 72 151q0 31 -76 36q-1 0 -1 2.5
t1 2.5q50 -7 123 -7q65 0 110 7q2 -2 1 -5q-56 -2 -90.5 -24.5t-85.5 -98.5l-48 -71q43 -66 75 -97.5t70 -31.5q42 0 84 24l1 -4q-60 -52 -119 -52zM244 543q-70 0 -70 -78q0 -52 86 -123q36 21 48.5 46.5t12.5 62.5q0 40 -21 66t-56 26zM204 306q-46 -16 -73 -52t-27 -80
q0 -61 41.5 -101.5t105.5 -40.5q46 0 77 14.5t62 50.5q-6 8 -24.5 35t-27 39t-27 36t-32.5 38t-34 31t-41 30z" />
    <glyph glyph-name="quotesingle" unicode="'" horiz-adv-x="211" 
d="M25 467q-1 1 -2 1l141 191q2 3 8.5 -0.5t11 -9.5t2.5 -9z" />
    <glyph glyph-name="parenleft" unicode="(" horiz-adv-x="380" 
d="M423 -297q-135 66 -224.5 204t-89.5 316t89.5 316t223.5 204q1 1 2 -1q1 -3 0 -4q-242 -174 -242 -515t242 -515q1 -1 0.5 -3t-1.5 -2z" />
    <glyph glyph-name="parenright" unicode=")" horiz-adv-x="380" 
d="M-42 -297q-1 -1 -2 1q-1 3 0 4q243 175 243 515t-243 515q-1 1 -0.5 3t1.5 2q135 -66 225 -204t90 -316t-89.5 -316t-224.5 -204z" />
    <glyph glyph-name="asterisk" unicode="*" horiz-adv-x="284" 
d="M171 498l33 -106q0 -1 -1.5 -2t-2.5 0l-65 90l-90 -66q-2 0 -3 3l65 89l-91 65q-1 1 0 2.5t2 1.5l106 -32l33 104q1 1 3 0.5t2 -1.5v-109h111q3 -1 1 -5z" />
    <glyph glyph-name="plus" unicode="+" horiz-adv-x="575" 
d="M291 222l3 -235q0 -1 -6.5 -1t-6.5 1l4 235l-235 -3q-2 0 -2 6t2 6l235 -3l-4 235q0 1 6.5 1t6.5 -1l-3 -235l234 3q1 0 1 -6t-1 -6z" />
    <glyph glyph-name="comma" unicode="," 
d="M40 -115l-1 5q45 1 64.5 18.5t19.5 41.5q0 25 -37 45q-9 5 -13 7.5t-7.5 8t-3.5 12.5q0 11 8.5 18.5t20.5 7.5q22 0 39.5 -18.5t17.5 -50.5q0 -41 -30.5 -68t-77.5 -27z" />
    <glyph glyph-name="hyphen" unicode="-" horiz-adv-x="380" 
d="M192 235l-122 -29q-3 0 -5.5 6t-2.5 12.5t3 6.5l125 27l123 31q3 0 5 -6t1.5 -13t-3.5 -8z" />
    <glyph glyph-name="period" unicode="." 
d="M97 -16q-14 0 -23.5 10.5t-9.5 23.5q0 14 10 25t25 11q14 0 24 -10.5t10 -23.5q0 -14 -10.5 -25t-25.5 -11z" />
    <glyph glyph-name="slash" unicode="/" horiz-adv-x="326" 
d="M10 -331q-2 -1 -6 2l320 1039q2 1 7 -2z" />
    <glyph glyph-name="zero" unicode="0" horiz-adv-x="586" 
d="M282 -16q-93 0 -157.5 68.5t-64.5 164.5q0 101 70 175t175 74q94 0 158.5 -69t64.5 -164q0 -102 -70.5 -175.5t-175.5 -73.5zM284 451q-70 0 -113 -54t-43 -148q0 -119 52.5 -184t122.5 -65t113.5 54t43.5 147q0 119 -53 184.5t-123 65.5z" />
    <glyph glyph-name="one" unicode="1" horiz-adv-x="365" 
d="M307 -6q-42 6 -115 6q-92 0 -136 -6q-3 0 1 6q31 3 43.5 6t27 12.5t19 28.5t4.5 52v252q0 62 -19 78t-75 22l-2 4l1 1q36 -5 136 -5q80 0 115 5q3 -1 1 -5q-55 -5 -74 -22.5t-19 -77.5v-252q0 -60 18.5 -77t74.5 -22v-6h-1z" />
    <glyph glyph-name="two" unicode="2" horiz-adv-x="476" 
d="M419 7q-3 -12 -13 -12q-12 0 -68 2.5t-90 2.5q-126 0 -217 -6q-2 0 -2.5 3t1.5 4q138 74 204.5 144t66.5 151q0 59 -30 92.5t-77 33.5q-62 0 -118 -59q-3 3 -1 6q69 97 151 97q63 0 101 -40t38 -98q0 -69 -66.5 -144t-151.5 -124l1 -2h157q73 0 93.5 13.5t24.5 61.5
q5 1 5 0q1 -18 -2.5 -66.5t-6.5 -59.5z" />
    <glyph glyph-name="three" unicode="3" horiz-adv-x="403" 
d="M36 -175l-3 6q69 9 119 28t76 45t37 52t11 55q0 55 -57.5 91t-149.5 22q-2 0 -3 3t1 4q101 34 148.5 87t47.5 109q0 38 -25.5 65.5t-67.5 27.5q-62 0 -129 -69q-3 3 -1 6q34 46 78 77.5t85 31.5q53 0 91 -37t38 -88q0 -50 -42 -97t-122 -75v-2q86 -1 134 -42.5t48 -101.5
q0 -33 -19 -66.5t-55.5 -63.5t-99 -49t-140.5 -19z" />
    <glyph glyph-name="four" unicode="4" horiz-adv-x="489" 
d="M353 34v-92q0 -59 19 -76.5t74 -22.5q1 -6 -1 -6q-42 6 -116 6q-90 0 -134 -6l-1 6q31 4 44 7t27 12.5t18.5 28t4.5 51.5v94h-26q-184 0 -257 -6q-2 0 -3 3t0 4l348 445q3 3 3 0v-406h117v-44q-67 0 -117 2zM288 383l-242 -307h242v307z" />
    <glyph glyph-name="five" unicode="5" horiz-adv-x="405" 
d="M287 380q-25 0 -68 15t-65 15q-23 0 -39.5 -24t-16.5 -54q0 -27 23 -48.5t109 -63.5q120 -58 120 -165q0 -81 -71.5 -142t-205.5 -88q-1 0 -1 6q89 23 151.5 74t62.5 124q0 45 -24.5 77t-89.5 62q-55 26 -79 50t-24 62q0 30 25 89q24 57 42 80t43 23q13 0 54.5 -13.5
t69.5 -13.5q19 0 29.5 13.5t17.5 46.5q5 0 5 -1q-1 -67 -18 -95.5t-50 -28.5z" />
    <glyph glyph-name="six" unicode="6" horiz-adv-x="511" 
d="M133 204q0 -92 41.5 -149.5t104.5 -57.5q52 0 82.5 41.5t30.5 108.5q0 65 -31 105.5t-85 40.5q-24 0 -56 -17l-2 3q18 20 46 33t54 13q67 0 105.5 -47.5t38.5 -107.5q0 -75 -59.5 -130.5t-139.5 -55.5q-95 0 -149 64.5t-54 154.5q0 62 26 126t77 125t135 113.5t190 85.5
q2 -1 1 -5q-182 -69 -269 -189t-87 -255z" />
    <glyph glyph-name="seven" unicode="7" horiz-adv-x="461" 
d="M122 -175q-3 -3 -11 -1.5t-16 5.5t-6 7q135 232 304 552h-210q-72 0 -93.5 -16.5t-24.5 -67.5q-5 2 -6 3q0 22 3.5 73.5t6.5 62.5t13 11q12 0 66.5 -1.5t89.5 -1.5q128 0 204 5q4 0 2 -5q-134 -249 -322 -626z" />
    <glyph glyph-name="eight" unicode="8" horiz-adv-x="497" 
d="M240 -16q-75 0 -128.5 45t-53.5 113q0 109 159 177q-61 39 -93 75t-32 87q0 75 52 123t129 48q63 0 107.5 -40.5t44.5 -98.5q0 -50 -31 -87.5t-97 -72.5q34 -22 54.5 -37t43 -38t33.5 -49.5t11 -58.5q0 -79 -56 -132.5t-143 -53.5zM255 639q-48 0 -77.5 -32t-29.5 -82
q0 -51 34.5 -87t102.5 -77q85 56 85 147q0 56 -33 93.5t-82 37.5zM231 312q-58 -29 -85 -69t-27 -101q0 -66 40 -105t92 -39q62 0 98.5 37t36.5 92q0 26 -10.5 50t-20.5 38.5t-38 36.5t-39 29.5t-47 30.5z" />
    <glyph glyph-name="nine" unicode="9" horiz-adv-x="520" 
d="M63 -175q-2 -1 -3 3q0 1 1 2q327 124 327 429q0 93 -40.5 143t-101.5 50q-58 0 -88.5 -43t-30.5 -114q0 -64 33 -103t88 -39q25 0 54 13q1 0 2 -1t0 -2q-18 -20 -46.5 -32.5t-53.5 -12.5q-68 0 -107.5 47t-39.5 107q0 78 58 136t143 58q93 0 148 -61.5t55 -150.5
q0 -63 -21.5 -122.5t-66.5 -117.5t-124.5 -107t-185.5 -82z" />
    <glyph glyph-name="colon" unicode=":" 
d="M97 284q-14 0 -23.5 10t-9.5 23q0 14 10 25t25 11q14 0 24 -10.5t10 -23.5q0 -14 -10.5 -24.5t-25.5 -10.5zM97 -18q-14 0 -23.5 10.5t-9.5 23.5q0 14 10 25t25 11q14 0 24 -10.5t10 -23.5q0 -14 -10.5 -25t-25.5 -11z" />
    <glyph glyph-name="semicolon" unicode=";" 
d="M97 284q-14 0 -23.5 10t-9.5 23q0 14 10 25t25 11q14 0 24 -10.5t10 -23.5q0 -14 -10.5 -24.5t-25.5 -10.5zM40 -115l-1 5q45 1 64.5 18.5t19.5 41.5q0 25 -37 45q-9 5 -13 7.5t-7.5 8t-3.5 12.5q0 11 8.5 18.5t20.5 7.5q22 0 39.5 -18.5t17.5 -50.5q0 -41 -30.5 -68
t-77.5 -27z" />
    <glyph glyph-name="less" unicode="&#x3c;" horiz-adv-x="800" 
d="M50 137q-15 30 -15 61q0 66 54 117.5t118 51.5q42 0 86 -26t69 -76l4 1q-5 41 -47.5 106.5t-42.5 107.5q0 40 21.5 67t59.5 27q51 0 82 -38q2 -3 -3 -5q-16 10 -30 3t-14 -26q0 -11 17 -22.5t38 -21t38 -32t17 -53.5q0 -41 -25 -79t-58 -46v-4q68 -14 114 -40
q20 64 55 101.5t76 37.5t68 -31t27 -74q0 -40 -18 -64t-45 -24q-16 0 -27.5 10t-11.5 26q0 14 9 23t19 9q16 0 28 -13q12 15 12 34q0 27 -17 44.5t-48 17.5q-32 0 -65.5 -25t-56.5 -74q104 -63 104 -189q0 -50 -25.5 -83.5t-59.5 -33.5q-46 0 -65 37q0 1 2 2l2 1
q8 -8 18.5 -9.5t21.5 5t20 18.5t15 34t6 50q0 70 -46.5 124t-109.5 76l-2 -4q49 -59 49 -138q0 -46 -24.5 -73t-57.5 -27q-10 0 -21.5 3t-14.5 3q-24 0 -24 -26q0 -16 24 -39l-4 -4q-89 42 -89 123q0 40 28.5 87t76.5 84l-2 3q-26 0 -58 -23t-62.5 -46.5t-52.5 -23.5
t-37.5 18t-28 36t-28.5 18q-17 0 -29 -13t-12 -37q0 -4 4 -24q0 -1 -3 -1t-3 1z" />
    <glyph glyph-name="equal" unicode="=" horiz-adv-x="623" 
d="M312 298l-261 -3q-1 0 -1.5 3.5t-0.5 6.5t1 3l262 -3l261 3q1 0 1 -3t-0.5 -6.5t-1.5 -3.5zM312 145l-260 -3q-1 0 -2 3.5t-1 6.5t1 3l262 -3l261 3q1 0 1 -3t-1 -6.5t-2 -3.5z" />
    <glyph glyph-name="greater" unicode="&#x3e;" horiz-adv-x="800" 
d="M751 137q0 -1 -3 -1t-3 1q4 20 4 24q0 24 -12 37t-29 13q-16 0 -28.5 -18t-28 -36t-37.5 -18t-52.5 23.5t-62.5 46.5t-58 23l-2 -3q48 -37 76.5 -84t28.5 -87q0 -81 -89 -123l-4 4q24 23 24 39q0 26 -24 26q-3 0 -14.5 -3t-21.5 -3q-33 0 -57.5 27t-24.5 73q0 79 49 138
l-2 4q-63 -22 -109.5 -76t-46.5 -124q0 -28 6 -50t15 -34t20 -18.5t21.5 -5t18.5 9.5q1 0 2 -1l2 -2q-19 -37 -65 -37q-34 0 -59.5 33.5t-25.5 83.5q0 126 104 189q-23 49 -56.5 74t-65.5 25q-31 0 -48 -17.5t-17 -44.5q0 -19 12 -34q12 13 28 13q10 0 19 -9t9 -23
q0 -16 -11.5 -26t-27.5 -10q-27 0 -45 24t-18 64q0 43 27 74t68 31t76 -37.5t55 -101.5q46 26 114 40v4q-33 8 -58 46t-25 79q0 31 17 53.5t38 32t38 21t17 22.5q0 19 -13.5 26t-30.5 -3q-1 -1 -3 2q-1 2 0 3q31 38 82 38q38 0 59.5 -27t21.5 -67q0 -42 -42.5 -107.5
t-47.5 -106.5l4 -1q25 50 69 76t86 26q64 0 118 -51.5t54 -117.5q0 -31 -15 -61z" />
    <glyph glyph-name="question" unicode="?" horiz-adv-x="341" 
d="M189 269q-85 -34 -85 -88q0 -17 7 -35q-1 0 -5 -3q-22 50 -22 80q0 63 79 98l95 43q33 15 33 39q0 26 -43 39l-90 26q-48 14 -70 34t-22 51q0 26 14 60q3 0 6 -3q-3 -9 -3 -18q0 -20 23.5 -37.5t91.5 -36.5q57 -16 83 -44.5t26 -76.5q0 -45 -24 -72.5t-94 -55.5zM116 -16
q-14 0 -24 10.5t-10 23.5q0 14 10 25t25 11q14 0 24.5 -10.5t10.5 -23.5q0 -14 -10.5 -25t-25.5 -11z" />
    <glyph glyph-name="at" unicode="@" horiz-adv-x="633" 
d="M423 130q-77 0 -75 88l-3 1q-22 -34 -52.5 -59.5t-46.5 -25.5q-21 0 -35 19t-14 52q0 50 35.5 97.5t83.5 81.5q32 23 51 23q15 0 26 -8q24 31 31 36q1 1 2 0t1 -2q-28 -125 -37 -189q-15 -98 46 -98q51 0 79.5 42t28.5 106q0 102 -62.5 175.5t-168.5 73.5
q-91 0 -154.5 -78.5t-63.5 -196.5q0 -112 70 -188t179 -76q81 0 153 56q3 2 6 -4q1 -2 0 -2q-81 -69 -189 -69q-119 0 -189.5 75.5t-70.5 179.5q0 123 81.5 221.5t200.5 98.5q107 0 175.5 -66t68.5 -157q0 -87 -50 -147t-107 -60zM337 380q-33 0 -64 -52.5t-31 -107.5
q0 -50 26 -50q15 0 39 20.5t42 46.5l25 129q-19 14 -37 14z" />
    <glyph glyph-name="A" unicode="A" horiz-adv-x="687" 
d="M685 -8q-60 8 -112 8q-84 0 -150 -8q-1 0 -0.5 2.5t1.5 3.5q43 4 58.5 10.5t15.5 27.5q0 22 -38 128l-31 85h-229l-36 -85q-43 -103 -43 -128q0 -18 15.5 -26.5t52.5 -11.5q1 -1 1.5 -3.5t-0.5 -2.5q-60 8 -94 8t-100 -8q-1 0 -0.5 2.5t1.5 3.5q48 4 75.5 37t68.5 127
l211 483q1 1 3 1t3 -1l180 -483q20 -53 31 -78.5t28 -47t36.5 -29t51.5 -9.5q1 -1 1 -3.5t-1 -2.5zM326 542l-120 -280h218z" />
    <glyph glyph-name="B" unicode="B" horiz-adv-x="611" 
d="M332 -5q-18 0 -65 2.5t-57 2.5q-78 0 -144 -8q-1 0 -0.5 2.5t1.5 3.5q28 3 39 4t25.5 7.5t18 14.5t8.5 28.5t5.5 44t0.5 66.5v300v52.5t-2.5 39t-3.5 28.5t-8.5 19t-11.5 13t-18.5 7t-22.5 5t-31 3q-1 0 -1 2t1 2q57 -7 127 -7q10 0 56 2t63 2q84 0 139.5 -38t55.5 -106
q0 -47 -44 -89.5t-110 -53.5v-2q96 1 154.5 -42t58.5 -112q0 -83 -64 -138t-170 -55zM265 336q-1 0 -1 2.5t1 2.5q93 0 133 30.5t40 103.5q0 143 -150 143q-26 0 -43 -3q-10 -44 -10 -151v-306q0 -44 2 -69t6 -43t15.5 -25t25 -10t38.5 -3q87 0 129 37t42 127
q0 79 -57.5 123.5t-170.5 40.5z" />
    <glyph glyph-name="C" unicode="C" horiz-adv-x="705" 
d="M633 32q-69 -53 -212 -53q-160 0 -258.5 94.5t-98.5 226.5q0 133 104.5 240t256.5 107q60 0 122.5 -19t81.5 -34q12 -7 16 -134q0 -1 -2 -1t-2 1q-15 69 -75.5 120t-163.5 51q-115 0 -188.5 -79t-73.5 -215q0 -159 87 -250.5t203 -91.5q82 0 145.5 48t69.5 125h4l1 -1
q-6 -127 -17 -135z" />
    <glyph glyph-name="D" unicode="D" horiz-adv-x="789" 
d="M370 -5q-18 0 -76.5 2.5t-69.5 2.5q-92 0 -158 -8q-1 0 -0.5 2.5t1.5 3.5q29 3 40 4t25.5 8t18 14t8.5 28t5 44v67v300v52.5t-2.5 39t-3.5 28.5t-8.5 19t-11.5 13t-18.5 7t-22.5 5t-31 3q-1 0 -1 2t1 2q57 -7 167 -7q11 0 71 2t79 2q165 0 254 -86t89 -222
q0 -137 -100 -232.5t-256 -95.5zM353 615q-79 0 -108 -4q-10 -57 -10 -147v-337q0 -42 3.5 -62t22 -33.5t47.5 -16.5t89 -3q111 0 183.5 75t72.5 204q0 158 -79.5 241t-220.5 83z" />
    <glyph glyph-name="E" unicode="E" horiz-adv-x="606" 
d="M518 10q-3 -10 -7 -13t-14 -3q-13 0 -71 3t-99 3q-156 0 -270 -8q-3 0 1 6q67 6 81 16q21 14 24 74q1 23 1 75v300q0 45 -0.5 66t-4 43t-8 28.5t-17.5 14t-27 9.5t-40 5q-7 1 -10 1q-1 0 -1 2t1 2q99 -7 266 -7q96 0 187 7q-5 -23 -5 -51q0 -22 2 -38l-6 1q-6 37 -36 50
t-125 13h-99q-6 -43 -6 -141v-135h107q47 0 71.5 6.5t30.5 14.5t10 26q2 1 4 1t2 -1q-8 -30 -8 -70q0 -24 2 -40q-1 -2 -5 1q-4 20 -9 28.5t-28 14.5t-70 6h-107v-165q0 -88 14 -112.5t53 -24.5h51q59 0 91 3t50.5 14t24.5 24t12 42h6q-9 -56 -19 -91z" />
    <glyph glyph-name="F" unicode="F" horiz-adv-x="580" 
d="M523 524q-11 48 -21 60q-21 23 -113 25h-35h-111q-8 -37 -8 -141v-139h74q39 0 65 2.5t39.5 5.5t21 12.5t9.5 14.5t5 21q5 1 6 0q-9 -32 -9 -75q0 -33 3 -48q-2 -1 -6 1q-4 22 -13 32t-36.5 15t-84.5 5h-74v-152v-53t2 -38.5t2.5 -29t8.5 -18t11 -13t18.5 -6t24 -5
t33.5 -2.5l2 -6h-1q-62 8 -126 8q-69 0 -135 -8q-1 0 -0.5 2.5t1.5 3.5q20 2 28 2.5t20.5 4.5t16.5 7t10.5 13t7.5 19t3 28.5t2 38.5v52v300q0 46 -0.5 66t-4 42.5t-8 29t-17.5 14.5t-26.5 9.5t-39.5 4.5q-7 1 -10 1q-2 1 -1 4q101 -7 271 -7q40 0 98 2.5t72 2.5
q15 0 20 -16q3 -13 5.5 -48t4.5 -44q0 -1 -2.5 -1t-2.5 1z" />
    <glyph glyph-name="G" unicode="G" horiz-adv-x="745" 
d="M639 112q0 -50 10 -65q-122 -68 -237 -68q-159 0 -253.5 93.5t-94.5 226.5q0 140 103.5 244t257.5 104q60 0 124 -21.5t84 -37.5q11 -9 5 -130q-1 -2 -5 -1q-5 67 -69 120.5t-162 53.5q-115 0 -188.5 -79.5t-73.5 -215.5q0 -160 83 -250.5t198 -90.5q50 0 83.5 11.5
t43 22.5t13.5 22q7 23 7 66q0 53 -3 79.5t-18.5 42.5t-33 20.5t-61.5 9.5q-1 0 -1 2.5t1 2.5q79 -7 162 -7q44 0 121 7q1 0 1 -2.5t-1 -2.5q-67 -8 -81.5 -32.5t-14.5 -124.5z" />
    <glyph glyph-name="H" unicode="H" horiz-adv-x="851" 
d="M663 0q-69 0 -136 -8q-1 0 -0.5 2.5t1.5 3.5q25 3 34.5 4t23 7.5t17 15t8.5 28t5.5 44t0.5 66.5v148h-382v-148q0 -51 1.5 -75.5t5 -45.5t14.5 -27.5t24.5 -10.5t41.5 -6q1 -1 1 -3.5t-1 -2.5q-60 8 -112 8q-86 0 -153 -8q-3 0 1 6q67 6 81 16q21 14 24 74q1 23 1 75v300
q0 46 -0.5 66t-4 42.5t-8 29t-17.5 14.5t-26.5 9.5t-39.5 4.5q-7 1 -10 1q-2 1 -1 4q59 -7 153 -7q60 0 112 7q2 -1 1 -4q-23 -2 -35.5 -4t-24 -9.5t-16 -15.5t-8 -29.5t-4 -44t-0.5 -64.5v-138h382v138q0 36 -1 58.5t-2.5 41.5t-7 29t-9.5 17.5t-17 11t-22 5.5t-30 4
q-2 1 -1 4q59 -7 136 -7q76 0 130 7q1 0 1 -2t-1 -2q-30 -3 -44.5 -4t-29 -9.5t-19 -14t-8.5 -28.5t-4 -40.5v-62.5v-8v-300v-12v-60.5t4 -39.5t8.5 -27.5t19 -13t28.5 -9t44 -3.5l2 -6h-1q-62 8 -130 8z" />
    <glyph glyph-name="I" unicode="I" horiz-adv-x="428" 
d="M225 0q-78 0 -144 -8q-1 0 -0.5 2.5t1.5 3.5q23 2 31 3t22.5 4.5t18 6.5t11 13t8.5 18.5t3.5 28.5t2.5 39v52v300v52.5t-2.5 39t-3.5 28.5t-8.5 19t-11.5 13t-18.5 7t-22.5 5t-31 3q-1 0 -1 2t1 2q57 -7 144 -7q69 0 121 7q1 0 1 -2t-1 -2q-27 -2 -40.5 -3.5t-26.5 -10
t-17 -15t-8 -30t-4 -43v-65.5v-300v-65.5t4 -42.5t8 -30t16.5 -14t26 -9.5t40.5 -3.5q1 -1 1.5 -3.5t-0.5 -2.5q-60 8 -121 8z" />
    <glyph glyph-name="J" unicode="J" horiz-adv-x="393" 
d="M250 463v-300q0 -147 -52.5 -230t-186.5 -138q-1 -1 -2 1q-1 4 0 4q102 44 136 119t34 244v300v52.5t-2.5 39t-3.5 28.5t-8.5 19t-11.5 13t-18.5 7t-22.5 5t-31 3q-1 0 -1 2t1 2q57 -7 144 -7q67 0 121 7q1 0 1 -2t-1 -2q-27 -2 -40.5 -3.5t-26.5 -10t-17 -15t-8 -30
t-4 -43v-65.5z" />
    <glyph glyph-name="K" unicode="K" horiz-adv-x="689" 
d="M599 0q-83 0 -150 -8q-1 0 -0.5 2.5t1.5 3.5q41 4 52.5 11t-1.5 29q-9 14 -25.5 32t-47.5 49.5t-45 45.5l-131 135l144 161q11 12 32.5 36t32.5 36.5t23 28t18 26.5q11 22 -1 29.5t-53 12.5q-1 0 -1 2t1 2q39 -5 113 -5q47 0 84 5q2 -1 1 -4q-57 -5 -93 -32t-117 -114
q-11 -13 -17 -19l-114 -123l181 -181q77 -77 102 -100t59 -41.5t77 -21.5q1 -1 1.5 -3.5t-0.5 -2.5q-60 8 -126 8zM322 -8q-60 8 -112 8q-87 0 -153 -8q-3 0 1 6q22 2 28 2.5t22 3.5t18.5 4t12.5 7t11 10t6 15t5 19.5t1.5 27t1.5 33.5v43v300q0 45 -0.5 66t-4 43t-8 28.5
t-17.5 14t-27 9.5t-40 5q-7 1 -10 1q-1 0 -1 2t1 2q57 -7 153 -7q60 0 112 7q2 -1 1 -4q-23 -2 -35.5 -4t-24 -9.5t-16 -15.5t-8 -29.5t-4 -44t-0.5 -64.5v-300q0 -51 1.5 -75.5t5 -45.5t14.5 -27.5t24.5 -10.5t41.5 -6q1 -1 1 -3.5t-1 -2.5z" />
    <glyph glyph-name="L" unicode="L" horiz-adv-x="559" 
d="M519 10q-3 -10 -7 -13t-14 -3q-14 0 -67 3t-94 3q-165 0 -280 -8q-3 0 1 6q67 7 81 16q21 14 24 71q1 22 1 78v300v67t-5 44t-8.5 28.5t-18.5 14.5t-25.5 8.5t-39.5 4.5q-2 1 -1 4q59 -7 144 -7q68 0 121 7q2 -1 1 -4q-20 -2 -31.5 -3t-24 -5.5t-17.5 -7.5t-11 -14
t-7.5 -19t-3.5 -29.5t-2 -37.5v-51v-300q0 -66 5.5 -95t17.5 -38t41 -9h55q80 0 113.5 6.5t43 18.5t17.5 46q5 1 5 0q-6 -55 -14 -82z" />
    <glyph glyph-name="M" unicode="M" horiz-adv-x="919" 
d="M734 0q-80 0 -136 -8q-3 0 1 6q15 2 22 2.5t17.5 3t14.5 4.5t11 7t8.5 10t5.5 15t4.5 20t1.5 26.5t0.5 34t-0.5 42.5l-6 377l-3 1l-235 -551h-4l-1 1l-240 522l-3 -1l-6 -349q-2 -108 11.5 -133.5t82.5 -31.5v-6h-1q-60 8 -98 8q-57 0 -113 -8q-3 0 1 6q68 7 82.5 31
t16.5 134l7 351q1 55 -26.5 82.5t-87.5 33.5q-1 0 -1 2.5t1 2.5q56 -8 160 -8l245 -538l152 361q58 143 67 181q81 -9 168 4q2 -2 0 -5q-23 -2 -35.5 -3t-26 -6t-19 -7t-12 -14t-8 -18.5t-2.5 -29.5t-1 -37t1 -51l6 -301q2 -106 10 -127q10 -26 49 -33q15 -2 49 -5q1 0 1 -3
t-1 -3q-62 8 -130 8z" />
    <glyph glyph-name="N" unicode="N" horiz-adv-x="823" 
d="M682 463v-300q0 -116 8 -183q0 -3 -6 3l-491 531v-351q0 -108 14 -134t84 -31q1 -1 1 -3.5t-1 -2.5q-60 8 -98 8q-51 0 -117 -8q-1 0 -0.5 2.5t1.5 3.5q31 3 46 7.5t27.5 12t16.5 28t6 45t2 72.5l1 343q0 35 -42.5 77t-80.5 47q-1 0 -1 2t1 2q56 -7 134 -7l477 -512v348
q0 47 -2 72.5t-7 45.5t-18 28.5t-29 13t-47 7.5q-1 0 -1 2t1 2q57 -7 122 -7q45 0 98 7q2 -1 1 -4q-70 -6 -85 -33t-15 -134z" />
    <glyph glyph-name="O" unicode="O" horiz-adv-x="827" 
d="M404 -21q-147 0 -243.5 96.5t-96.5 227.5q0 134 103 239t255 105q148 0 245 -96.5t97 -226.5q0 -135 -103.5 -240t-256.5 -105zM400 631q-116 0 -189 -79.5t-73 -215.5q0 -159 86.5 -250t202.5 -91t189.5 79.5t73.5 215.5q0 81 -25 147.5t-66.5 107.5t-93 63.5
t-105.5 22.5z" />
    <glyph glyph-name="P" unicode="P" horiz-adv-x="590" 
d="M281 289h-16q-1 0 -1 2.5t1 3.5q100 1 145.5 38t45.5 124q0 79 -42 120t-122 41q-11 0 -47 -6q-10 -44 -10 -148v-302v-64.5t4 -42.5t8 -29.5t17 -15t26.5 -10t40.5 -3.5q1 0 1 -2.5t-1 -2.5q-60 8 -121 8q-78 0 -144 -8q-1 0 -1 2.5t1 2.5q30 3 40 4.5t25.5 8.5t18.5 14
t8.5 28t5.5 43.5v66.5v301v66.5t-5.5 43.5t-8 28t-18 14.5t-25.5 8.5l-40 4q-1 1 -1.5 3.5t0.5 2.5q49 -7 127 -7q11 0 58.5 2t66.5 2q95 0 153 -43t58 -115q0 -84 -67.5 -134t-180.5 -50z" />
    <glyph glyph-name="Q" unicode="Q" horiz-adv-x="827" 
d="M482 -13q184 -124 333.5 -187.5t295.5 -63.5q97 0 197 28v-5l-1 -1q-155 -45 -281 -45q-150 0 -297 64.5t-332 201.5q-144 2 -238.5 98.5t-94.5 225.5q0 134 103 239t255 105q148 0 245 -96.5t97 -226.5q0 -116 -79 -213.5t-203 -123.5zM400 631q-116 0 -189 -79.5
t-73 -215.5q0 -159 86.5 -250t202.5 -91t189.5 79.5t73.5 215.5q0 81 -25 147.5t-66.5 107.5t-93 63.5t-105.5 22.5z" />
    <glyph glyph-name="R" unicode="R" horiz-adv-x="671" 
d="M740 -23q-81 0 -147 26.5t-111 72.5t-74.5 99.5t-46.5 117.5q-31 -7 -81 -7q-36 0 -45 1v-124v-65.5t4 -42.5t8 -30t17 -14t26.5 -9.5t40.5 -3.5q1 -1 1 -3.5t-1 -2.5q-60 8 -121 8q-78 0 -144 -8q-1 0 -0.5 2.5t1.5 3.5q23 2 31 3t23 5t18 6.5t11 12.5t8.5 18.5t3 28.5
t2.5 38.5v52.5v301q0 95 -11 126t-53 31q-14 0 -37 -5q-1 1 0 4q49 16 242 16q112 0 181.5 -36.5t69.5 -112.5q0 -48 -33 -97.5t-103 -79.5q41 -117 140.5 -222.5t180.5 -105.5v-4zM292 622q-24 0 -48 -3q-9 -30 -9 -146v-172q19 -1 44 -1q204 0 204 144q0 178 -191 178z
" />
    <glyph glyph-name="S" unicode="S" horiz-adv-x="509" 
d="M252 -21q-96 0 -172 66q-1 9 0 20t4 45t3 62q0 1 2.5 1t2.5 -1q5 -82 48.5 -129.5t120.5 -47.5q57 0 96.5 32.5t39.5 92.5q0 39 -21.5 71t-54 53t-70.5 44.5t-70.5 46t-54 57t-21.5 77.5q0 69 53 123.5t131 54.5q72 0 124 -31q10 -6 10 -102q0 -1 -2 -1t-3 1
q-9 57 -44.5 87t-91.5 30q-51 0 -87.5 -30.5t-36.5 -78.5q0 -37 21.5 -67.5t53 -50.5t69 -43.5t69 -46t53 -58.5t21.5 -81q0 -81 -55 -138.5t-138 -57.5z" />
    <glyph glyph-name="T" unicode="T" horiz-adv-x="689" 
d="M659 581q0 -32 3 -53l-6 1q-5 26 -15 40t-44 23.5t-98 9.5h-109v-439v-65.5t4 -42.5t8 -30t17 -14t26.5 -9.5t40.5 -3.5q1 -1 1 -3.5t-1 -2.5q-60 8 -120 8q-78 0 -145 -8q-1 0 -0.5 2.5t1.5 3.5q23 2 31 3t22.5 4.5t18 6.5t11 13t8.5 18.5t3.5 28.5t2.5 39v52v439h-114
q-90 0 -121 -16.5t-40 -56.5l-5 -2q6 33 6 85q0 21 -6 53q0 1 6 -1q4 -20 12.5 -27t40 -10.5t107.5 -3.5h294q77 0 108 3t41.5 10.5t14.5 27.5q2 0 5 1q-9 -41 -9 -84z" />
    <glyph glyph-name="U" unicode="U" horiz-adv-x="804" 
d="M662 472v-250q0 -105 -65 -174t-186 -69q-112 0 -187 67.5t-75 182.5v234v67t-5 44t-8.5 28.5t-18.5 14.5t-25.5 8.5t-39.5 4.5q-2 1 -1 4q59 -7 144 -7q69 0 121 7q2 -1 1 -4q-20 -2 -31.5 -3t-24 -5.5t-17.5 -7.5t-11 -14t-7.5 -19t-3.5 -29.5t-2 -37.5v-51v-214
q0 -115 64.5 -175t151.5 -60q102 0 155 55.5t53 162.5v240q0 54 -2.5 80t-14.5 44.5t-30 24t-55 9.5q-1 0 -1 2t1 2q57 -7 120 -7q48 0 100 7q2 -1 1 -4q-70 -6 -85.5 -32.5t-15.5 -125.5z" />
    <glyph glyph-name="V" unicode="V" horiz-adv-x="709" 
d="M589 464l-211 -482q-1 -2 -3 -2t-3 2l-198 482q-41 100 -57 122q-27 37 -87 43q-3 1 -7 1q-1 0 -1 2t1 2q53 -7 113 -7q93 0 150 7q1 0 1 -2t-1 -2q-42 -5 -57.5 -12t-15.5 -28q0 -30 40 -128l152 -376l161 376q43 99 43 128q0 19 -16.5 28t-54.5 12q-1 0 -1 2t1 2
q53 -7 95 -7q41 0 98 7q2 -1 1 -4q-52 -6 -74.5 -34t-68.5 -132z" />
    <glyph glyph-name="W" unicode="W" horiz-adv-x="1001" 
d="M897 464l-196 -483h-4l-1 1l-151 440l-189 -441h-4l-1 1l-188 482q-39 100 -63.5 130.5t-81.5 35.5q-1 0 -1 2t1 2q49 -7 105 -7q104 0 157 7q1 0 1 -2t-1 -2q-40 -3 -58 -12.5t-18 -31.5q0 -30 36 -124l144 -370l151 355l-6 17q-34 99 -58 130t-80 36q-1 0 -1 2t1 2
q49 -7 105 -7q112 0 165 7q2 -1 1 -4q-49 -4 -67.5 -14.5t-18.5 -34.5q0 -29 30 -119l123 -372l145 377q36 94 36 118q0 21 -15.5 31t-54.5 14q-1 0 -1 2t1 2q49 -7 97 -7q37 0 92 7q1 0 1 -2t-1 -2q-45 -4 -69.5 -37.5t-62.5 -128.5z" />
    <glyph glyph-name="X" unicode="X" horiz-adv-x="710" 
d="M590 0q-97 0 -153 -8q-1 0 -0.5 2.5t1.5 3.5q53 6 58 25q6 23 -47 110l-34 54l-63 100l-85 -122q-74 -106 -79 -131t28 -32q13 -2 33 -4q1 -1 1.5 -3.5t-0.5 -2.5q-60 8 -99 8q-63 0 -119 -8q-1 0 -1 2.5t1 3.5q72 7 102.5 31t106.5 132l100 142l-91 140
q-78 120 -111 150t-104 37q-1 0 -1 2t1 2q57 -7 153 -7q67 0 121 7q1 0 1 -2t-1 -2q-57 -5 -60 -30q-4 -26 58 -123l24 -38l50 -77l70 100q42 59 59 87.5t18.5 47.5t-12.5 24t-49 9q-1 0 -1 2t1 2q57 -7 119 -7q46 0 99 7q1 0 1 -2t-1 -2q-72 -6 -103 -31.5t-106 -132.5
l-84 -120l104 -163q75 -118 109 -149t105 -36q1 -1 1.5 -3.5t-0.5 -2.5q-62 8 -121 8z" />
    <glyph glyph-name="Y" unicode="Y" horiz-adv-x="731" 
d="M512 466l-107 -154v-149v-50.5t1.5 -37.5t3 -29t7.5 -19t11.5 -14t17.5 -7t23.5 -6t31.5 -2q1 -1 1 -3.5t-1 -2.5q-60 8 -121 8q-78 0 -144 -8q-1 0 -0.5 2.5t1.5 3.5q24 3 31.5 3.5t23 4.5t18 6.5t10.5 12.5t8.5 19t3.5 28.5t2.5 38.5t-0.5 52l-1 141l-87 139
q-73 116 -108.5 148t-98.5 39q-2 1 -1 4q57 -7 144 -7q68 0 120 7q2 -1 1 -4q-35 -3 -49.5 -11t-9.5 -32t22.5 -54.5t58.5 -93.5l71 -108l90 131q75 110 78 135t-61 33q-2 1 -1 4q57 -7 120 -7q36 0 90 7q1 0 1 -2t-1 -2q-63 -7 -95.5 -34t-104.5 -130z" />
    <glyph glyph-name="Z" unicode="Z" horiz-adv-x="670" 
d="M593 10q-4 -10 -7.5 -13t-12.5 -3q-16 0 -86 3t-118 3q-167 0 -305 -8q-2 0 -2 2.5t2 4.5l448 610h-250q-44 0 -72 -3.5t-44.5 -8t-25.5 -17.5t-12.5 -23.5t-7.5 -33.5l-6 -1q4 16 4 58q0 26 -4 54q93 -7 222 -7q171 0 291 7q1 0 1 -2t-1 -4l-445 -605h267q31 0 53.5 0.5
t40.5 4t29.5 6t20.5 10.5t13.5 13t8.5 19.5t5.5 23t4.5 29.5q5 0 5 -1q0 -23 -6 -63t-11 -55z" />
    <glyph glyph-name="bracketleft" unicode="[" horiz-adv-x="340" 
d="M373 -282q-77 29 -251 29v952q174 0 251 29q1 1 2 -1q0 -2 -1 -4q-40 -38 -185 -53v-894q148 -15 184 -53q2 -3 0 -5z" />
    <glyph glyph-name="backslash" unicode="\" horiz-adv-x="312" 
d="M324 -331l-321 1039q-1 1 2 2q4 2 5 0l320 -1039q1 -1 -2 -2t-4 0z" />
    <glyph glyph-name="bracketright" unicode="]" horiz-adv-x="340" 
d="M-24 -282q-1 -1 -2 1q0 3 1 4q36 38 186 53v894q-146 15 -186 53q-1 4 1 5q77 -29 252 -29v-952q-175 0 -252 -29z" />
    <glyph glyph-name="asciicircum" unicode="^" horiz-adv-x="670" 
d="M613 126q-4 51 -32 67t-106 25l-99 11l11 -102q8 -78 24.5 -106.5t68.5 -32.5q2 -6 0 -6q-77 0 -145 23q-69 -23 -146 -23q-3 0 1 6q51 4 67.5 32.5t25.5 106.5l12 102l-100 -11q-78 -9 -106.5 -25.5t-32.5 -67.5l-4 -2l-1 1q0 77 22 143q-22 65 -22 143q1 1 5 -1
q4 -51 32 -67.5t107 -25.5l100 -11l-12 102q-9 78 -25.5 107t-67.5 33l-2 4l1 1q72 0 146 -23q72 23 145 23q2 -1 -1 -5q-51 -4 -68 -33.5t-25 -106.5l-11 -102l100 11q78 8 106 24.5t32 67.5q4 3 7 2q0 -71 -23 -143q23 -74 23 -143q-1 -2 -7 2z" />
    <glyph glyph-name="underscore" unicode="_" horiz-adv-x="630" 
d="M315 -1l-249 -3q-1 0 -2 4t-0.5 8t1.5 4l250 -3l250 3q1 0 1 -4t-0.5 -8t-1.5 -4z" />
    <glyph glyph-name="grave" unicode="`" horiz-adv-x="211" 
d="M185 463l-161 173q-2 3 2.5 9t11.5 9.5t9 0.5l141 -191v-1q-2 -1 -3 0z" />
    <glyph glyph-name="a" unicode="a" horiz-adv-x="404" 
d="M326 -18q-26 0 -41.5 17.5t-16.5 51.5q-69 -66 -144 -66q-38 0 -60.5 22t-22.5 57q0 94 229 108q2 40 2 115q0 55 -29 71q-21 12 -60 12q-25 0 -44.5 -11.5t-19.5 -23.5q0 -7 2.5 -16t2.5 -15q0 -13 -18.5 -23.5t-39.5 -10.5q-17 0 -17 14q2 30 68.5 74.5t128.5 44.5
q37 0 61 -26.5t25 -72.5q0 -21 -3 -119t-2 -126q2 -71 92 -33q5 0 1 -3q-52 -41 -94 -41zM105 73q0 -57 67 -57q40 0 93 42q0 6 2 46l3 60q-97 -7 -131 -30.5t-34 -60.5z" />
    <glyph glyph-name="b" unicode="b" horiz-adv-x="491" 
d="M219 -15q-26 0 -71.5 10t-74.5 5q-5 1 -3 8q7 19 7 120v445q0 52 -14.5 65t-55.5 -1q1 3 2 3q100 55 131 84l4 -3q-7 -28 -7 -144v-237q84 54 156 54q66 0 113.5 -53.5t47.5 -131.5q0 -86 -69.5 -155t-165.5 -69zM241 359q-52 0 -104 -31v-268q37 -45 125 -45
q61 0 93.5 42t32.5 125q0 86 -40.5 131.5t-106.5 45.5z" />
    <glyph glyph-name="c" unicode="c" horiz-adv-x="392" 
d="M212 -15q-75 0 -125 54t-50 133q0 91 74 161t179 70q30 0 51 -9t21 -19q0 -13 -9.5 -31t-18.5 -18q-11 0 -49 19.5t-68 19.5q-60 0 -88.5 -37t-28.5 -116q0 -94 42.5 -143.5t103.5 -49.5q66 0 123 44q1 -4 0 -5q-69 -73 -157 -73z" />
    <glyph glyph-name="d" unicode="d" horiz-adv-x="505" 
d="M377 -17q-10 0 -16.5 21t-7.5 47q-80 -66 -149 -66q-67 0 -117 54t-50 132q0 89 66.5 156t161.5 67q41 0 89 -12v191q0 52 -14.5 65t-55.5 -1q0 1 2 3q100 55 131 84q1 0 4 -3q-7 -28 -7 -144v-501q0 -39 17.5 -47.5t66.5 5.5q1 -1 1 -2.5t-1 -1.5q-86 -47 -121 -47z
M353 309q-58 60 -132 60q-57 0 -90 -41.5t-33 -123.5q0 -87 46.5 -135t106.5 -48q41 0 102 43v245z" />
    <glyph glyph-name="e" unicode="e" horiz-adv-x="417" 
d="M383 254l-279 -6q-3 -21 -3 -38q0 -96 45 -144t107 -48q70 0 129 44v-4v-1q-26 -31 -71.5 -51.5t-90.5 -20.5q-81 0 -132 54.5t-51 140.5q0 87 64 155t141 68q67 0 105.5 -40t38.5 -88q0 -11 -3 -21zM216 386q-41 0 -71 -34t-40 -94l218 6q-2 46 -31 84t-76 38z" />
    <glyph glyph-name="f" unicode="f" horiz-adv-x="304" 
d="M370 632q-10 0 -46 21t-61 21q-53 0 -72.5 -47t-19.5 -177v-65h57q67 0 83 4q2 0 2.5 -7.5t-0.5 -15t-3 -7.5q-33 3 -69 3h-70v-271q0 -56 18 -72.5t86 -19.5q1 0 1 -2.5t-1 -2.5q-42 6 -130 6q-71 0 -113 -6q-2 1 1 5q55 6 67 19.5t12 72.5v271q-16 0 -49.5 0.5
t-36.5 0.5q-1 0 -1.5 2.5t-0.5 4.5v3q52 5 87 15l1 43q3 124 65.5 206t151.5 82q26 0 50.5 -12.5t24.5 -22.5q0 -14 -12 -33t-22 -19z" />
    <glyph glyph-name="g" unicode="g" horiz-adv-x="430" 
d="M190 -272q-78 0 -124 33.5t-46 77.5q0 37 33 67.5t96 46.5q-34 14 -59 41.5t-25 42.5q0 10 17.5 18t46 17t41.5 16q-118 56 -118 158q0 63 47.5 110.5t121.5 47.5q21 0 56 -6t56 -6q67 0 83 4q8 2 5 -24q-2 -15 -7 -16q-33 3 -59 3h-21q40 -46 40 -99q0 -48 -31.5 -89
t-81.5 -59q-127 -45 -127 -64q0 -17 18.5 -30t56.5 -12l74 2q80 2 116 -25.5t36 -73.5q0 -75 -77 -128t-168 -53zM204 391q-92 0 -92 -118q0 -72 36 -113t79 -41q42 0 64.5 30.5t22.5 83.5q0 74 -32 116t-78 42zM270 -46l-114 -3q-72 -35 -72 -91q0 -42 37.5 -72.5
t109.5 -30.5q73 0 114.5 31.5t41.5 79.5q0 39 -31.5 63t-85.5 23z" />
    <glyph glyph-name="h" unicode="h" horiz-adv-x="501" 
d="M391 0q-56 0 -98 -6q-3 0 1 6q43 4 55 19t12 72v150q0 68 -18 98.5t-59 30.5q-25 0 -52 -11t-82 -45v-223q0 -55 11.5 -71t54.5 -20l2 -6h-1q-42 6 -93 6q-71 0 -113 -6v6q55 5 67.5 18.5t12.5 72.5v482q0 52 -14.5 65t-55.5 -1q0 2 2 3q100 55 131 84q1 1 2 0t1 -2
q-6 -23 -6 -145l-1 -255q104 81 178 81q92 0 92 -118v-194q0 -58 12 -72.5t66 -18.5q2 0 1 -6q-42 6 -108 6z" />
    <glyph glyph-name="i" unicode="i" horiz-adv-x="255" 
d="M147 549q-15 0 -25.5 11.5t-10.5 26.5q0 16 11 28.5t27 12.5q15 0 26.5 -12t11.5 -27q0 -16 -11.5 -28t-28.5 -12zM136 0q-69 0 -111 -6q-2 1 1 5q55 6 67 19.5t12 72.5v169q0 53 -14 65.5t-55 -1.5q0 1 1 2q99 57 131 88l4 -3q-7 -29 -7 -147v-173q0 -60 12 -73t66 -19
q1 0 1 -2.5t-1 -2.5q-42 6 -107 6z" />
    <glyph glyph-name="j" unicode="j" horiz-adv-x="248" 
d="M147 549q-15 0 -26 11.5t-11 26.5q0 16 11 29t28 13q15 0 26 -12t11 -27q0 -17 -11.5 -29t-27.5 -12zM165 264v-265q0 -60 -6.5 -98t-28 -71t-46 -54.5t-75.5 -60.5q-1 -1 -2.5 1.5t-0.5 3.5q62 66 80.5 117t18.5 162v261q0 52 -14.5 65t-55.5 -1v2q100 56 133 88l4 -3
q-7 -28 -7 -147z" />
    <glyph glyph-name="k" unicode="k" horiz-adv-x="459" 
d="M123 0q-70 0 -112 -6v5q55 6 67.5 19.5t12.5 72.5v482q0 52 -14.5 65t-55.5 -1q0 3 1 3q97 52 132 84q1 1 2 0t1 -2q-7 -27 -7 -145v-486q0 -55 11.5 -71t54.5 -20l2 -6h-1q-42 6 -94 6zM479 -6q-42 6 -106 6q-51 0 -93 -6q-3 0 3 6q24 3 32.5 9t1.5 22.5t-36 47.5
l-112 120l103 99q88 84 -11 94q0 1 -1 4q37 -4 87 -4q66 0 94 4q1 0 1 -2t-1 -2q-53 -4 -143 -89l-83 -78l150 -156q63 -65 114 -69q1 0 1 -3t-1 -3z" />
    <glyph glyph-name="l" unicode="l" horiz-adv-x="242" 
d="M119 0q-66 0 -108 -6q-2 1 1 5q55 6 67 19.5t12 72.5v482q0 52 -14.5 65t-55.5 -1q1 3 2 3q100 55 131 84l4 -3q-7 -28 -7 -144v-486q0 -60 12 -73t66 -19q1 0 1 -2.5t-1 -2.5q-42 6 -110 6z" />
    <glyph glyph-name="m" unicode="m" horiz-adv-x="768" 
d="M753 -6q-42 6 -96 6q-56 0 -98 -6q-3 0 1 6q43 4 55 19t12 72v144q0 71 -17.5 100t-55.5 29q-53 0 -130 -53q1 -8 1 -26v-194q0 -56 12 -72t56 -19q1 0 1 -3t-1 -3q-42 6 -93 6q-60 0 -102 -6q-1 0 1 6q43 4 55 18.5t12 72.5v150q0 73 -17 101t-61 28q-33 0 -124 -56
v-223q0 -55 11.5 -71t54.5 -20l2 -6h-1q-42 6 -93 6q-71 0 -113 -6v6q55 5 67.5 18.5t12.5 72.5v168q0 53 -14 66t-55 -1q-1 0 -1 1.5t1 1.5q59 32 120 87q1 1 2 -1t1 -3q1 -8 2 -22.5t2 -35t2 -30.5q106 81 164 81q76 0 95 -85q99 80 168 80q94 0 94 -119v-188
q0 -56 11.5 -72t55.5 -19q1 0 1 -3t-1 -3z" />
    <glyph glyph-name="n" unicode="n" horiz-adv-x="515" 
d="M405 0q-56 0 -98 -6q-3 0 1 6q43 4 55 19t12 72v150q0 70 -16.5 99.5t-60.5 29.5q-25 0 -52 -11t-82 -45v-223q0 -55 11.5 -71t54.5 -20l2 -6h-1q-42 6 -93 6q-71 0 -113 -6v6q55 5 67.5 18.5t12.5 72.5v168q0 53 -14 66t-55 -1q-1 0 -1 1.5t1 1.5q59 32 120 87q1 1 2 -1
t1 -3q1 -8 2 -22.5t2 -35t2 -30.5q114 81 177 81q92 0 92 -118v-194q0 -58 12 -72.5t66 -18.5q2 0 1 -6q-42 6 -108 6z" />
    <glyph glyph-name="o" unicode="o" horiz-adv-x="487" 
d="M238 -15q-89 0 -145 60t-56 142q0 88 58.5 152t153.5 64q89 0 145.5 -60t56.5 -142q0 -87 -59 -151.5t-154 -64.5zM227 388q-59 0 -92 -46.5t-33 -114.5q0 -105 43 -165.5t115 -60.5q59 0 92 46t33 114q0 105 -43.5 166t-114.5 61z" />
    <glyph glyph-name="p" unicode="p" horiz-adv-x="499" 
d="M222 -15q-36 0 -70 10v-158q0 -59 16.5 -72.5t88.5 -15.5q1 0 1 -3t-1 -3q-73 5 -131 1q-66 -2 -103 -8q-2 1 1 5q49 7 58.5 20t9.5 74l-1 186q-4 2 -14.5 8.5t-16.5 9.5l31 49l1 171q0 53 -14 66t-55 -1q0 1 1 2q65 37 121 90q1 1 2 -1t1 -3q2 -10 2.5 -42t1.5 -43
q77 67 145 67q70 0 118.5 -54t48.5 -128q0 -84 -71.5 -155.5t-170.5 -71.5zM255 354q-45 0 -103 -34v-267q66 -37 128 -37q53 0 85.5 46.5t32.5 127.5q0 77 -42.5 120.5t-100.5 43.5z" />
    <glyph glyph-name="q" unicode="q" horiz-adv-x="491" 
d="M387 -256q-63 -2 -100 -8q-4 0 2 6q47 6 57 20t10 74v205q-60 -56 -143 -56q-65 0 -120.5 49.5t-55.5 136.5q0 86 65.5 154.5t158.5 68.5q57 0 108 -33q26 24 49 54q1 1 4 -2q-6 -32 -6 -95v-481q0 -58 14 -72.5t78 -16.5l1 -5l-1 -1q-16 2 -58 3t-63 -1zM355 291
q-50 74 -135 74q-56 0 -88 -37.5t-32 -113.5q0 -95 48 -145t109 -50q55 0 98 33v239z" />
    <glyph glyph-name="r" unicode="r" horiz-adv-x="343" 
d="M313 322q-6 0 -29 15t-39 15q-35 0 -80 -56v-205q0 -56 18 -72.5t86 -19.5q1 -5 0 -5q-42 6 -130 6q-72 0 -114 -6q-2 1 1 5q55 6 67 19.5t12 72.5v169q0 53 -14 65.5t-55 -1.5q0 1 1 2q65 37 120 89l4 -4q4 -34 4 -105q89 108 131 108q16 0 31 -17t15 -27
q0 -12 -11.5 -30t-17.5 -18z" />
    <glyph glyph-name="s" unicode="s" horiz-adv-x="339" 
d="M161 -15q-64 0 -113 29q-3 2 -3 108q1 1 4 -1q17 -64 51.5 -94t77.5 -30q75 0 75 76q0 27 -20 48.5t-48.5 38t-56.5 33.5t-48 42.5t-20 56.5q0 45 35.5 78t96.5 33q50 0 83 -17q9 -5 9 -97h-5q-13 46 -44 75t-64 29q-29 0 -44.5 -19t-15.5 -51q0 -25 19.5 -45.5
t47.5 -35.5t56 -31t47.5 -42t19.5 -59q0 -51 -39.5 -88t-100.5 -37z" />
    <glyph glyph-name="t" unicode="t" horiz-adv-x="317" 
d="M187 -15q-45 0 -65 22t-19 70l4 279q-57 0 -67 -1q-1 0 -1.5 2t0.5 3q71 58 134 124q2 -2 2 -3q-7 -68 -8 -96h57q72 0 88 5q7 1 1 -22q-4 -15 -10 -16q-44 4 -66 4h-70l-4 -256q-1 -46 18.5 -64.5t56.5 -18.5q32 0 72 10q2 -1 0 -3q-28 -18 -63.5 -28.5t-59.5 -10.5z
" />
    <glyph glyph-name="u" unicode="u" horiz-adv-x="488" 
d="M368 -17q-23 0 -23 95q-91 -93 -163 -93q-47 0 -75.5 30t-27.5 88l3 190q1 43 -9.5 54t-57.5 12l-2 2q67 13 121 44q5 -3 5 -5q3 -27 3 -96l-2 -157q-1 -74 16.5 -100.5t64.5 -26.5q49 0 122 64l4 214q1 43 -9 54t-57 14q-1 1 -3 2q68 12 122 41q4 0 4 -6q3 -27 3 -99
l-2 -228q0 -39 17.5 -47.5t66.5 5.5q1 -1 1 -2.5t-1 -1.5q-29 -16 -67.5 -31.5t-53.5 -15.5z" />
    <glyph glyph-name="v" unicode="v" horiz-adv-x="416" 
d="M345 301l-126 -317q-1 -2 -4 -2t-4 2l-126 317q-21 52 -41 70t-60 21q-1 0 -1 2t1 2q28 -4 102 -4q63 0 100 4q1 0 1 -2t-1 -2q-44 -5 -51.5 -21t13.5 -72l92 -231l90 231q20 54 11 71t-52 22q-1 1 -1 4q37 -4 81 -4q49 0 77 4q1 0 1 -2t-1 -2q-41 -3 -61 -22t-40 -69z
" />
    <glyph glyph-name="w" unicode="w" horiz-adv-x="653" 
d="M583 301l-126 -317q-1 -2 -4 -2t-4 2l-108 306l-121 -306q-1 -2 -4 -2t-4 2l-126 317q-21 52 -41 70t-60 21q-1 0 -1 2t1 2q27 -4 101 -4q64 0 101 4v-4q-44 -5 -51.5 -21t13.5 -72l92 -230l93 237q-17 46 -37.5 64.5t-57.5 21.5q-1 0 -1 2t1 2q28 -4 102 -4q63 0 100 4
q1 0 1 -2t-1 -2q-43 -5 -51.5 -21.5t9.5 -71.5l80 -228l88 226q20 55 11.5 72.5t-52.5 22.5q0 1 -1 4q37 -4 81 -4q50 0 78 4v-4q-41 -3 -61 -22t-40 -69z" />
    <glyph glyph-name="x" unicode="x" horiz-adv-x="435" 
d="M439 -6q-40 6 -103 6q-42 0 -82 -6q-4 0 2 6q23 3 32 8.5t6.5 22.5t-23.5 48q-68 91 -69 91l-61 -77q-35 -43 -31.5 -66t49.5 -27q2 0 1 -6q-42 6 -66 6q-50 0 -90 -6q-1 0 -1 3t1 3q52 3 120 89l71 91l-95 142q-47 66 -97 70q-1 4 0 4q27 -4 95 -4q54 0 89 4q1 -1 -1 -4
q-23 -3 -32.5 -9t-7 -23t24.5 -48l61 -87l58 73q34 39 32 64t-50 30q-1 1 -1 4q35 -4 71 -4q58 0 85 4v-4q-53 -5 -120 -90l-68 -85l103 -148q46 -65 97 -69q1 -6 0 -6z" />
    <glyph glyph-name="y" unicode="y" horiz-adv-x="407" 
d="M337 301q0 -1 -34.5 -82.5t-60.5 -147.5t-55 -162t-37 -164q-9 -1 -33 -1h-32q-38 -1 -63 -6q-1 0 -0.5 2.5t1.5 3.5q33 5 63 29q43 33 82 139l26 72l-109 317q-17 52 -38.5 70t-62.5 21q-1 0 -1 2t1 2q28 -4 102 -4q60 0 97 4v-4q-43 -5 -50 -21t11 -72l80 -242l96 242
q20 54 12.5 71t-51.5 22q-1 1 -1 4q37 -4 81 -4q50 0 78 4v-4q-42 -3 -62.5 -22t-39.5 -69z" />
    <glyph glyph-name="z" unicode="z" horiz-adv-x="410" 
d="M363 5q-3 -8 -11 -8q-9 0 -57 1.5t-77 1.5q-105 0 -190 -5q-1 0 -1 1t1 2l265 382h-117q-56 0 -81.5 -26.5t-40.5 -80.5l-4 1q5 25 10 65q2 18 6 57q64 -4 130 -4q111 0 179 4q1 0 1 -1.5t-1 -2.5l-262 -378h142q51 0 84.5 35.5t40.5 89.5q5 0 5 -1q0 -14 -9.5 -68
t-12.5 -65z" />
    <glyph glyph-name="braceleft" unicode="{" horiz-adv-x="310" 
d="M286 -326q-82 29 -124.5 74.5t-42.5 91.5q0 31 29.5 99.5t29.5 107.5q0 68 -32 108.5t-110 46.5q-3 0 -3.5 4t3.5 4q78 7 110 47.5t32 108.5q0 39 -29.5 107.5t-29.5 99.5q0 46 42.5 91.5t124.5 74.5l2 -6l-2 -2q-45 -18 -72 -48t-27 -59q0 -25 20 -96t20 -119
q0 -71 -42 -126t-123 -76v-2q77 -14 121 -72t44 -129q0 -48 -20 -119t-20 -96q0 -29 27 -58.5t72 -47.5q2 0 2 -2.5t-0.5 -4.5t-1.5 -2z" />
    <glyph glyph-name="bar" unicode="|" horiz-adv-x="761" 
d="M770 621q-28 5 -45 5q-78 0 -145.5 -61.5t-106 -162.5t-38.5 -214v-25v-65.5t4 -42.5t8 -30t16.5 -14t26 -9.5t40.5 -3.5q1 -1 1.5 -3.5t-0.5 -2.5q-62 8 -121 8q-78 0 -144 -8q-1 0 -0.5 2.5t1.5 3.5q23 2 31 3t22.5 4.5t18 6.5t11 13t8.5 18.5t3.5 28.5t2.5 39v52v25
q0 183 -89.5 309t-207.5 126q-6 0 -12 -0.5t-12.5 -1.5t-10.5 -1l-1 3q49 18 96 18q103 0 180 -81.5t105 -202.5h6q38 120 116.5 199t171.5 79q35 0 65 -11z" />
    <glyph glyph-name="braceright" unicode="}" horiz-adv-x="310" 
d="M25 -326q-1 0 -1.5 2t-0.5 4.5t2 2.5q45 18 72 47.5t27 58.5q0 25 -20 96t-20 119q0 71 44 129t121 72v2q-81 21 -123 76t-42 126q0 48 20 119t20 96q0 29 -27 59t-72 48q-2 0 -2 2t0.5 4t1.5 2q82 -29 124.5 -74.5t42.5 -91.5q0 -31 -29.5 -99.5t-29.5 -107.5
q0 -68 32 -108.5t110 -47.5q4 0 3.5 -4t-3.5 -4q-78 -6 -110 -46.5t-32 -108.5q0 -39 29.5 -107.5t29.5 -99.5q0 -46 -42.5 -91.5t-124.5 -74.5z" />
    <glyph glyph-name="asciitilde" unicode="~" horiz-adv-x="359" 
d="M252 275q-23 0 -73.5 19.5t-81.5 19.5q-53 0 -67 -71l-4 2l-1 1q4 45 29.5 70t64.5 25q21 0 71 -18t75 -18t41 13t23 49q5 0 5 -2q-4 -41 -25 -65.5t-57 -24.5z" />
    <glyph glyph-name="quotesinglbase" 
d="M29 -123q-3 1 -1 5q46 2 69.5 22t23.5 43q0 29 -40 52q-2 1 -5 3l-4.5 3t-4 2.5t-4 2.5t-3.5 2.5t-2.5 3t-1.5 3t-1.5 3.5l-1 4t-0.5 5q0 12 9.5 20.5t22.5 8.5q25 0 44.5 -21t19.5 -56q0 -45 -33 -73.5t-87 -32.5z" />
    <glyph glyph-name="florin" horiz-adv-x="472" 
d="M456 443q-59 63 -102 63q-26 0 -41 -14.5t-27.5 -64.5t-19.5 -147l133 2q1 0 1.5 -2.5t-0.5 -5t-2 -2.5l-133 1q0 -2 -0.5 -4.5t-0.5 -3.5q-12 -162 -33 -234.5t-65 -126.5q-35 -44 -66 -61t-68 -17q-35 0 -63.5 18.5t-30.5 44.5q-1 20 8.5 33.5t20 17t13.5 -0.5
q24 -32 53.5 -51t54.5 -19q54 0 75 70q17 55 25 222q3 66 11 112h-116q-2 0 -2 5t2 5l117 -1q20 116 68 180q71 93 153 93q29 0 49.5 -18t22.5 -41q1 -18 -8 -31.5t-18 -18.5t-11 -3z" />
    <glyph glyph-name="quotedblbase" horiz-adv-x="362" 
d="M176 -123q-3 1 -1 5q46 2 69.5 22t23.5 43q0 29 -40 52q-2 1 -5 3l-4.5 3t-4 2.5t-4 2.5t-3.5 2.5t-2.5 3t-1.5 3t-1.5 3.5l-1 4t-0.5 5q0 12 9.5 20.5t22.5 8.5q25 0 44.5 -21t19.5 -56q0 -45 -33 -73.5t-87 -32.5zM29 -123q-3 1 -1 5q46 2 69.5 22t23.5 43q0 29 -40 52
q-2 1 -5 3l-4.5 3t-4 2.5t-4 2.5t-3.5 2.5t-2.5 3t-1.5 3t-1.5 3.5l-1 4t-0.5 5q0 12 9.5 20.5t22.5 8.5q25 0 44.5 -21t19.5 -56q0 -45 -33 -73.5t-87 -32.5z" />
    <glyph glyph-name="ellipsis" unicode="&#x85;" horiz-adv-x="548" 
d="M449 -16q-14 0 -23.5 10.5t-9.5 23.5q0 14 10 25t25 11q14 0 24 -10.5t10 -23.5q0 -14 -10.5 -25t-25.5 -11zM273 -16q-14 0 -23.5 10.5t-9.5 23.5q0 14 10 25t25 11q14 0 24 -10.5t10 -23.5q0 -14 -10.5 -25t-25.5 -11zM97 -16q-14 0 -23.5 10.5t-9.5 23.5q0 14 10 25
t25 11q14 0 24 -10.5t10 -23.5q0 -14 -10.5 -25t-25.5 -11z" />
    <glyph glyph-name="dagger" horiz-adv-x="420" 
d="M214 445l2 -464q0 -2 -6 -2t-6 2l4 464l-183 -2q-1 0 -1 6t1 6l182 -2l-4 192q0 2 6.5 2t6.5 -2l-2 -192l181 2q2 0 2 -6t-2 -6z" />
    <glyph glyph-name="daggerdbl" horiz-adv-x="420" 
d="M214 174l2 -193q0 -2 -6.5 -2t-6.5 2l3 193l-181 -2q-2 0 -2 6t2 6l181 -2v262l-181 -1q-2 0 -2 6t2 6l181 -2l-3 192q0 2 6.5 2t6.5 -2l-2 -192l180 2q2 0 2 -6t-2 -6l-180 1v-262l180 2q2 0 2 -6t-2 -6z" />
    <glyph glyph-name="circumflex" horiz-adv-x="279" 
d="M253 463l-116 156l-111 -156l-3 -1l114 203h4l1 -1l114 -202z" />
    <glyph glyph-name="perthousand" horiz-adv-x="784" 
d="M182 279q-41 -31 -65 -31q-26 0 -47 31.5t-21 85.5q0 48 22 91.5t60 71.5q42 32 65 32q26 0 47.5 -32t21.5 -86q0 -47 -22.5 -91t-60.5 -72zM267 272l-181 -304q-1 -1 -3.5 -1t-4.5 1t-2 2l184 302l182 305q2 3 9 -1q2 -1 1 -2zM652 17q-42 -32 -65 -32q-26 0 -47.5 32.5
t-21.5 86.5q0 47 22.5 90.5t60.5 72.5q39 32 64 32q26 0 48 -32.5t22 -86.5q0 -47 -22.5 -90.5t-60.5 -72.5zM397 17q-42 -32 -65 -32q-26 0 -47.5 32.5t-21.5 86.5q0 47 22.5 90.5t60.5 72.5q39 32 64 32q26 0 48 -32.5t22 -86.5q0 -47 -22.5 -90.5t-60.5 -72.5zM162 528
q-25 0 -44.5 -37.5t-19.5 -101.5q0 -53 14.5 -81t38.5 -28q25 0 45 37t20 101q0 53 -15 81.5t-39 28.5zM632 266q-25 0 -44.5 -37t-19.5 -101q0 -54 14.5 -82t37.5 -28q25 0 45 37t20 101q0 53 -15 81.5t-38 28.5zM377 266q-25 0 -44.5 -37t-19.5 -101q0 -54 14.5 -82
t37.5 -28q25 0 45 37t20 101q0 53 -15 81.5t-38 28.5z" />
    <glyph glyph-name="Scaron" horiz-adv-x="509" 
 />
    <glyph glyph-name="guilsinglleft" horiz-adv-x="301" 
d="M246 85l-202 115l2 5l201 114q0 -1 -1 -3l-154 -116l154 -111l1 -4h-1z" />
    <glyph glyph-name="OE" horiz-adv-x="999" 
d="M921 10q-4 -10 -7.5 -13t-12.5 -3q-13 0 -71 3t-99 3q-53 0 -166.5 -5.5t-146.5 -5.5q-166 0 -260 89.5t-94 224.5q0 137 105.5 235.5t261.5 98.5q32 0 137.5 -5t157.5 -5q97 0 188 7q-5 -23 -5 -51q0 -30 1 -38q-1 -2 -5 1q-6 37 -36.5 50t-125.5 13h-98q-7 -51 -7 -141
v-135h108q21 0 37 1t27.5 1t19.5 3.5t12 3.5t7 6t4 6.5t2.5 9t1.5 9.5q5 1 6 0q-7 -26 -7 -63q0 -24 2 -40q0 -4 -6 2q-4 28 -21.5 38t-84.5 10h-108v-153q0 -67 8 -100t20.5 -41t39.5 -8h51q59 0 91 3t50.5 14.5t24 24.5t12.5 43q5 0 5 -1q-11 -67 -19 -92zM567 499
q0 55 -10.5 78.5t-43.5 33.5t-109 10q-112 0 -189.5 -78.5t-77.5 -207.5q0 -152 81.5 -240.5t220.5 -88.5q82 0 105 23.5t23 97.5v372z" />
    <glyph glyph-name="Zcaron" horiz-adv-x="670" 
 />
    <glyph glyph-name="quoteleft" 
d="M65 572q0 -30 39 -52q2 -1 7 -4t6.5 -4t5 -3.5t5 -4t3 -4.5t2 -5.5t0.5 -6.5q0 -12 -10 -20t-23 -8q-25 0 -44 20.5t-19 55.5q0 45 32.5 74t86.5 33q3 -1 1 -5q-46 -2 -69 -22.5t-23 -43.5z" />
    <glyph glyph-name="quoteright" 
d="M29 466q-3 1 -1 5q46 2 69.5 22t23.5 43q0 29 -40 52q-2 1 -5 3l-4.5 3t-4 2.5t-4 2.5t-3.5 2.5t-2.5 3t-1.5 3t-1.5 3.5l-1 4t-0.5 5q0 12 9.5 20.5t22.5 8.5q25 0 44.5 -21t19.5 -56q0 -45 -33 -73.5t-87 -32.5z" />
    <glyph glyph-name="quotedblleft" horiz-adv-x="342" 
d="M213 572q0 -30 39 -52q2 -1 7 -4t6.5 -4t5 -3.5t5 -4t3 -4.5t2 -5.5t0.5 -6.5q0 -12 -10 -20t-23 -8q-25 0 -44 20.5t-19 55.5q0 45 32.5 74t86.5 33q3 -1 1 -5q-46 -2 -69 -22.5t-23 -43.5zM66 572q0 -30 39 -52q2 -1 7 -4t6.5 -4t5 -3.5t5 -4t3 -4.5t2 -5.5t0.5 -6.5
q0 -12 -10 -20t-23 -8q-25 0 -44 20.5t-19 55.5q0 45 32.5 74t86.5 33q3 -1 1 -5q-46 -2 -69 -22.5t-23 -43.5z" />
    <glyph glyph-name="quotedblright" horiz-adv-x="342" 
d="M176 466q-3 1 -1 5q46 2 69.5 22t23.5 43q0 29 -40 52q-2 1 -5 3l-4.5 3t-4 2.5t-4 2.5t-3.5 2.5t-2.5 3t-1.5 3t-1.5 3.5l-1 4t-0.5 5q0 12 9.5 20.5t22.5 8.5q25 0 44.5 -21t19.5 -56q0 -45 -33 -73.5t-87 -32.5zM29 466q-3 1 -1 5q46 2 69.5 22t23.5 43q0 29 -40 52
q-2 1 -5 3l-4.5 3t-4 2.5t-4 2.5t-3.5 2.5t-2.5 3t-1.5 3t-1.5 3.5l-1 4t-0.5 5q0 12 9.5 20.5t22.5 8.5q25 0 44.5 -21t19.5 -56q0 -45 -33 -73.5t-87 -32.5z" />
    <glyph glyph-name="bullet" 
d="M97 284q-14 0 -23.5 10t-9.5 23q0 14 10 25t25 11q14 0 24 -10.5t10 -23.5q0 -14 -10.5 -24.5t-25.5 -10.5z" />
    <glyph glyph-name="endash" horiz-adv-x="630" 
d="M315 257l-249 -3q-1 0 -2 4t-0.5 8t1.5 4l250 -3l250 3q1 0 1 -4t-0.5 -8t-1.5 -4z" />
    <glyph glyph-name="emdash" horiz-adv-x="880" 
d="M440 258l-375 -3q-2 0 -2 7.5t2 7.5l375 -3l375 3q4 0 0 -15z" />
    <glyph glyph-name="tilde" horiz-adv-x="359" 
d="M252 500q-23 0 -73.5 19.5t-81.5 19.5q-53 0 -67 -71l-4 2l-1 1q4 45 29.5 70t64.5 25q21 0 71 -18t75 -18t41 13t23 49q5 0 5 -2q-4 -41 -25 -65.5t-57 -24.5z" />
    <glyph glyph-name="trademark" horiz-adv-x="551" 
d="M214 608q0 -18 1 -23h-3q-2 12 -5 18.5t-13 12t-28 5.5h-31v-132q0 -31 6.5 -40.5t28.5 -10.5v-3q-20 2 -44 2q-42 0 -56 -2q-1 0 -1 1t1 2q23 2 30 11t7 40v132h-34q-25 0 -34 -9t-13 -27h-3q3 21 3 35q0 12 -3 23h4q2 -9 10.5 -12.5t35.5 -3.5h93q27 0 36 3t11 12
q2 2 4 0q-3 -10 -3 -34zM479 437q-35 0 -49 -2q-1 2 0 3q19 2 26.5 11.5t6.5 39.5l-2 117l-3 1l-76 -175q-1 0 -1 1l-78 172l-3 -1l-2 -115q-1 -29 5.5 -39.5t28.5 -11.5q1 -1 1 -2t-1 -1q-18 2 -34 2q-30 0 -44 -2q-1 0 -1 1t1 2q22 2 29 12t8 39l2 102q0 13 -10 24t-29 13
v3q17 -3 69 -3l70 -154l43 100q17 42 20 55q34 -3 70 2v-3q-26 -2 -32 -11t-5 -41l2 -87q1 -32 7 -41t30 -10q3 -3 1 -3q-18 2 -50 2z" />
    <glyph glyph-name="scaron" horiz-adv-x="339" 
 />
    <glyph glyph-name="guilsinglright" horiz-adv-x="301" 
d="M54 85l-1 1q1 2 2 3l155 111l-155 116q-1 2 -1 3l201 -114q2 -2 1 -5z" />
    <glyph glyph-name="oe" horiz-adv-x="759" 
d="M572 -15q-106 0 -161 98q-63 -98 -173 -98q-87 0 -144 60.5t-57 141.5q0 87 59.5 151.5t152.5 64.5q112 0 168 -102q31 48 75.5 75t92.5 27q62 0 100.5 -41t38.5 -93q0 -11 -3 -21l-271 -5q-2 -13 -2 -34q0 -99 46.5 -145.5t110.5 -46.5q65 0 122 44v-6
q-26 -32 -68.5 -51t-86.5 -19zM564 390q-43 0 -73.5 -37.5t-39.5 -100.5l210 7q-2 50 -29 90.5t-68 40.5zM227 388q-59 0 -92 -46.5t-33 -114.5q0 -105 43 -165.5t115 -60.5q59 0 90.5 46t31.5 114q0 106 -42 166.5t-113 60.5z" />
    <glyph glyph-name="zcaron" horiz-adv-x="410" 
 />
    <glyph glyph-name="Ydieresis" horiz-adv-x="731" 
d="M512 466l-107 -154v-149v-50.5t1.5 -37.5t3 -29t7.5 -19t11.5 -14t17.5 -7t23.5 -6t31.5 -2q1 -1 1 -3.5t-1 -2.5q-60 8 -121 8q-78 0 -144 -8q-1 0 -0.5 2.5t1.5 3.5q24 3 31.5 3.5t23 4.5t18 6.5t10.5 12.5t8.5 19t3.5 28.5t2.5 38.5t-0.5 52l-1 141l-87 139
q-73 116 -108.5 148t-98.5 39q-2 1 -1 4q57 -7 144 -7q68 0 120 7q2 -1 1 -4q-35 -3 -49.5 -11t-9.5 -32t22.5 -54.5t58.5 -93.5l71 -108l90 131q75 110 78 135t-61 33q-2 1 -1 4q57 -7 120 -7q36 0 90 7q1 0 1 -2t-1 -2q-63 -7 -95.5 -34t-104.5 -130zM493 734
q-16 0 -27.5 11.5t-11.5 26.5q0 16 12 28.5t29 12.5q16 0 27.5 -12t11.5 -27q0 -16 -12 -28t-29 -12zM311 734q-16 0 -27.5 11.5t-11.5 26.5q0 16 12 28.5t29 12.5q16 0 27.5 -12t11.5 -27q0 -16 -11.5 -28t-29.5 -12z" />
    <glyph glyph-name="exclamdown" unicode="&#xa1;" horiz-adv-x="234" 
d="M115 325q-14 0 -23.5 10t-9.5 23q0 14 10 25t25 11q14 0 24 -10.5t10 -23.5q0 -14 -10.5 -24.5t-25.5 -10.5zM73 -213q6 217 41 449q0 1 3 1t3 -1q2 -216 27 -434q1 -9 -17.5 -15.5t-37.5 -6.5t-19 7z" />
    <glyph glyph-name="cent" unicode="&#xa2;" horiz-adv-x="392" 
d="M221 -16l-4 -50q0 -1 -3 -1.5t-5.5 0t-2.5 1.5l4 50q-76 3 -124.5 56.5t-48.5 131.5t57 143.5t142 83.5l5 59q0 1 2.5 1.5t5.5 -0.5t3 -3l-4 -56q24 3 42 3q30 0 51 -9t21 -19q0 -13 -9.5 -31t-18.5 -18q-12 0 -41.5 15t-47.5 20l-22 -341q5 0 13 -0.5t10 -0.5
q66 0 123 44q1 -4 0 -5q-63 -67 -148 -74zM217 365q-60 0 -88.5 -37t-28.5 -116t31 -126.5t81 -62.5l21 339q-12 3 -16 3z" />
    <glyph glyph-name="sterling" unicode="&#xa3;" horiz-adv-x="651" 
d="M520 -175q-43 0 -92.5 22.5t-87 49t-81.5 49t-77 22.5q-9 0 -17 -4q-24 -68 -56.5 -103.5t-67.5 -35.5q-26 0 -42.5 15.5t-16.5 33.5q0 34 43 68.5t132 40.5q16 42 35 152l-146 -2q-3 0 -3 5.5t3 5.5q141 -1 141 -2h6q19 115 28 151q24 97 82 169q33 41 76.5 67t86.5 26
q29 0 48 -18t19 -41q0 -18 -10 -31.5t-19.5 -18.5t-11.5 -3q-52 60 -100 60q-31 0 -49 -19.5t-33 -75.5t-32 -170q-6 -36 -22 -98l172 2q3 0 2.5 -5.5t-2.5 -5.5q-11 0 -27.5 0.5t-60 1t-60 0.5h-27.5q-31 -96 -85 -153l2 -3q10 3 22 3q59 0 131 -27t134 -53.5t97 -26.5
q31 0 47 18t16 47q0 24 -19 45t-53 30q-1 1 3 4q39 -7 65 -34t26 -56q0 -38 -30 -70t-89 -32z" />
    <glyph glyph-name="currency" unicode="&#xa4;" horiz-adv-x="662" 
d="M6 312q-2 1 -2 5t2 4l87 -1q26 97 110 165.5t196 68.5q51 0 104.5 -16t70.5 -29q12 -10 16 -123q0 -1 -3 -1t-3 1q-12 57 -68.5 104.5t-136.5 47.5q-92 0 -151.5 -57.5t-69.5 -161.5h24l176 2q1 0 1 -2.5t-0.5 -4.5t-1.5 -2l-175 1h-24q-3 -18 -3 -29q0 -31 4 -62h23
l176 1q1 0 1 -2.5t-0.5 -4.5t-1.5 -2l-175 2q-14 0 -22 -1q20 -103 89.5 -160.5t153.5 -57.5q68 0 120 43t65 108l6 -1q-7 -114 -16 -122q-59 -46 -183 -46q-123 0 -207.5 68.5t-101.5 167.5l-79 -1q-1 0 -2 2.5t-0.5 4.5t1.5 2l80 -1q-2 12 -2 35q0 24 6 56z" />
    <glyph glyph-name="yen" unicode="&#xa5;" horiz-adv-x="629" 
d="M634 532q-35 5 -40 5q-81 0 -145.5 -75.5t-89.5 -190.5l184 2q2 0 2 -5.5t-2 -5.5l-186 2q-9 -49 -10 -88l196 2q2 0 2 -5.5t-2 -5.5l-196 2v-7v-22q0 -92 13 -114.5t74 -26.5q1 0 1 -3t-1 -3q-61 7 -112 7q-82 0 -132 -7q-3 0 1 6q27 3 40 6t25 10t15.5 23.5t5.5 38.5
t2 63v22v7l-198 -2q-2 0 -2 5.5t2 5.5l198 -2q-2 35 -12 88l-185 -2q-2 0 -2 5.5t2 5.5q178 -1 178 -2h6q-25 116 -92 190t-148 74q-1 0 -31 -3l-1 5l1 1q41 14 83 14q91 0 159.5 -69.5t94.5 -179.5q37 113 102.5 178.5t142.5 65.5q27 0 56 -9z" />
    <glyph glyph-name="section" unicode="&#xa7;" horiz-adv-x="500" 
d="M364 -7q2 -14 2 -21q0 -44 -39 -93q-65 -81 -145 -81q-45 0 -81.5 24.5t-36.5 56.5q0 18 10 30.5t19.5 17t11.5 3.5q28 -35 65.5 -59.5t70.5 -24.5q82 0 82 87q0 33 -27.5 68.5t-66.5 68.5t-77.5 67.5t-66 77t-27.5 86.5t23.5 85.5t60.5 68.5v23q0 42 39 91q31 39 72 61
t82 22q29 0 47.5 -18t18.5 -41q0 -18 -10 -31t-19.5 -18t-11.5 -3q-51 59 -97 59q-44 0 -61.5 -21t-17.5 -62q0 -33 27.5 -69t67 -69.5t79 -68.5t67 -78.5t27.5 -86.5q0 -87 -88 -152zM146 445q-44 -42 -44 -93q0 -37 23 -74.5t57.5 -69.5t70 -63.5t67 -69t42.5 -72.5
q46 43 46 90q0 45 -35.5 93t-79.5 84t-88.5 84t-58.5 91z" />
    <glyph glyph-name="dieresis" unicode="&#xa8;" horiz-adv-x="419" 
d="M300 502q-16 0 -27.5 11.5t-11.5 26.5q0 16 12 28.5t29 12.5q16 0 27.5 -12t11.5 -27q0 -16 -12 -28t-29 -12zM118 502q-16 0 -27.5 11.5t-11.5 26.5q0 16 12 28.5t29 12.5q16 0 27.5 -12t11.5 -27q0 -16 -11.5 -28t-29.5 -12z" />
    <glyph glyph-name="copyright" unicode="&#xa9;" horiz-adv-x="675" 
d="M337 -15q-117 0 -200 83.5t-83 200.5q0 118 83 201.5t200 83.5q118 0 201.5 -83.5t83.5 -201.5q0 -117 -83.5 -200.5t-201.5 -83.5zM337 548q-115 0 -196 -81.5t-81 -197.5q0 -115 81 -196.5t196 -81.5t197 81.5t82 196.5t-82 197t-197 82zM439 154q-29 -21 -88 -21
q-66 0 -109.5 38.5t-43.5 92.5q0 56 45 99.5t110 43.5q25 0 50.5 -8t33.5 -14q6 -4 8 -62q-1 -1 -4 1q-18 75 -97 75q-48 0 -75 -32t-27 -88q0 -68 32 -103.5t81 -35.5q34 0 58.5 21t29.5 55l3 1q-2 -60 -7 -63z" />
    <glyph glyph-name="ordfeminine" unicode="&#xaa;" horiz-adv-x="358" 
d="M112 595q0 -5 2 -11.5t2 -11.5q0 -10 -14 -18t-32 -8q-12 0 -12 10q1 22 52 56.5t97 34.5q28 0 47 -20t20 -54q0 -16 -2.5 -88.5t-1.5 -93.5q1 -25 13.5 -32t50.5 5l1 -1q1 0 0 -1q-37 -29 -68 -29q-20 0 -34 13t-15 39q-50 -49 -103 -49q-29 0 -47.5 16t-18.5 41
q0 34 41 58t130 30q2 73 2 79q-2 43 -20 53q-17 9 -43 9q-19 0 -33 -8.5t-14 -18.5zM104 400q0 -42 47 -42q5 0 9.5 0.5t8 1t8 3t6.5 3.5t7.5 4.5t7 5t8.5 6.5t9 7q0 5 2 38t3 48q-39 -2 -64 -9.5t-35.5 -19.5t-13.5 -22t-3 -24z" />
    <glyph glyph-name="guillemotleft" unicode="&#xab;" horiz-adv-x="451" 
d="M396 85l-202 115l2 5l201 114q0 -1 -1 -3l-154 -116l154 -111l1 -4h-1zM246 85l-202 115l2 5l201 114q0 -1 -1 -3l-154 -116l154 -111l1 -4h-1z" />
    <glyph glyph-name="registered" unicode="&#xae;" horiz-adv-x="675" 
d="M337 -15q-117 0 -200 83.5t-83 200.5q0 118 83 201.5t200 83.5q118 0 201.5 -83.5t83.5 -201.5q0 -117 -83.5 -200.5t-201.5 -83.5zM337 548q-115 0 -196 -81.5t-81 -197.5q0 -115 81 -196.5t196 -81.5t197 81.5t82 196.5t-82 197t-197 82zM350 265q-12 -3 -32 -3
q-14 0 -18 1v-51q0 -43 7 -55t37 -14q1 -2 0 -2q-19 3 -59 3q-43 0 -68 -3v2q30 3 38 14.5t8 54.5v121q0 38 -7.5 51t-24.5 13q-3 0 -17 -2q1 3 2 3q24 7 109 7q110 0 110 -63q0 -45 -53 -67q17 -51 52 -93t71 -45q1 -2 0 -2q-60 0 -100 37.5t-55 92.5zM319 398h-14
q-5 -15 -5 -60l1 -66q2 0 7 -1.5t10 -1.5q42 0 59.5 15t17.5 47q0 36 -18.5 51.5t-57.5 15.5z" />
    <glyph glyph-name="macron" unicode="&#xaf;" horiz-adv-x="335" 
d="M167 510l-137 -1q-2 0 -2 6t2 6l137 -2l138 2q2 0 2 -6t-2 -6z" />
    <glyph glyph-name="degree" unicode="&#xb0;" horiz-adv-x="219" 
d="M110 490q-34 0 -57.5 23.5t-23.5 57.5q0 33 23.5 57t57.5 24q33 0 57 -24t24 -57q0 -34 -24 -57.5t-57 -23.5zM110 646q-31 0 -53 -22t-22 -53t21.5 -53t53.5 -22q31 0 53 22t22 53t-22 53t-53 22z" />
    <glyph glyph-name="plusminus" unicode="&#xb1;" horiz-adv-x="710" 
d="M578 -15q-45 0 -64.5 22t-19.5 70l2 279q-64 0 -74 -1q-3 1 -1 5q79 29 106 63t27 73q0 57 -50 97.5t-120 40.5t-120.5 -51t-50.5 -115q0 -42 15 -71q32 6 61 6q30 0 51 -9t21 -19q0 -11 -8.5 -28.5t-16.5 -17.5q-11 0 -51.5 19.5t-64.5 19.5q-120 0 -120 -156
q0 -94 42 -143.5t104 -49.5q66 0 123 44q1 -4 0 -5q-69 -73 -157 -73q-76 0 -125.5 54t-49.5 133q0 74 50.5 135.5t131.5 86.5q-22 36 -22 93q0 76 55.5 138.5t133.5 62.5q79 0 129.5 -60t50.5 -147q0 -11 -4 -52t-4 -51h57q71 0 88 4q2 -1 2 -7.5t-2 -14.5t-4 -8
q-48 4 -71 4h-70l-2 -256q0 -35 15.5 -57t43.5 -22q44 0 93 16q-1 1 -4 -4q-30 -23 -66 -35.5t-60 -12.5z" />
    <glyph glyph-name="twosuperior" unicode="&#xb2;" horiz-adv-x="391" 
d="M335 295q-2 -7 -9 -7q-10 0 -54 1.5t-71 1.5q-94 0 -158 -4q-1 0 -2.5 1.5t-2 3t0.5 2.5q103 54 152 105.5t49 112.5q0 45 -21 70t-58 25q-48 0 -94 -44l-1 2l1 1q56 72 116 72q49 0 76.5 -29.5t27.5 -72.5q0 -53 -48.5 -108.5t-113.5 -91.5l2 -6h119q60 0 75.5 8.5
t18.5 44.5h3q0 -56 -8 -88z" />
    <glyph glyph-name="threesuperior" unicode="&#xb3;" horiz-adv-x="324" 
d="M42 184v2q185 13 185 132q0 42 -31 65.5t-96 34.5l-2 2l-2 6l-1 2q61 17 91.5 47.5t30.5 65.5q0 29 -21.5 46.5t-53.5 17.5q-50 0 -91 -43q-1 0 -1 1.5t1 2.5q56 72 116 72q41 0 67 -24.5t26 -62.5q0 -34 -24 -58.5t-84 -50.5q121 -31 121 -115q0 -61 -63.5 -102
t-167.5 -41z" />
    <glyph glyph-name="acute" unicode="&#xb4;" horiz-adv-x="211" 
d="M25 467q-1 1 -2 1l141 191q2 3 8.5 -0.5t11 -9.5t2.5 -9z" />
    <glyph glyph-name="mu" unicode="&#xb5;" horiz-adv-x="761" 
d="M770 621q-28 5 -45 5q-78 0 -145.5 -61.5t-106 -162.5t-38.5 -214v-25v-65.5t4 -42.5t8 -30t16.5 -14t26 -9.5t40.5 -3.5q1 -1 1.5 -3.5t-0.5 -2.5q-62 8 -121 8q-78 0 -144 -8q-1 0 -0.5 2.5t1.5 3.5q23 2 31 3t22.5 4.5t18 6.5t11 13t8.5 18.5t3.5 28.5t2.5 39v52v25
q0 183 -89.5 309t-207.5 126q-6 0 -12 -0.5t-12.5 -1.5t-10.5 -1l-1 3q49 18 96 18q103 0 180 -81.5t105 -202.5h6q38 120 116.5 199t171.5 79q35 0 65 -11zM505 734q-16 0 -27.5 11.5t-11.5 26.5q0 16 12 28.5t29 12.5q16 0 27.5 -12t11.5 -27q0 -16 -12 -28t-29 -12z
M323 734q-16 0 -27.5 11.5t-11.5 26.5q0 16 12 28.5t29 12.5q16 0 27.5 -12t11.5 -27q0 -16 -11.5 -28t-29.5 -12z" />
    <glyph glyph-name="paragraph" unicode="&#xb6;" horiz-adv-x="647" 
d="M421 -21q-165 0 -258 83.5t-93 197.5q0 127 89.5 210.5t261.5 83.5q106 0 170 -20l-1 -7q-16 6 -62 14l-2 -275l2 -276q44 5 61 11q2 -1 3 -3.5t-1 -3.5q-44 -15 -170 -15zM519 543q-63 5 -82 5v-562q32 1 82 3v277v277z" />
    <glyph glyph-name="periodcentered" unicode="&#xb7;" 
d="M97 207q-14 0 -23.5 10t-9.5 23q0 14 10 25t25 11q14 0 24 -10.5t10 -23.5q0 -14 -10.5 -24.5t-25.5 -10.5z" />
    <glyph glyph-name="cedilla" unicode="&#xb8;" horiz-adv-x="285" 
d="M92 -275l-3 5q38 5 61 22.5t28.5 33t5.5 32.5q0 61 -92 88l62 91l6 -4l-36 -55q52 -16 77 -42.5t25 -56.5q0 -39 -33.5 -71t-100.5 -43z" />
    <glyph glyph-name="onesuperior" unicode="&#xb9;" horiz-adv-x="270" 
d="M141 291q-66 0 -104 -5v3q45 4 60 16t15 59v189q0 47 -15 59t-60 17q0 2 1 2q31 -4 103 -4q58 0 92 4v-2q-44 -3 -59 -16.5t-15 -59.5v-189q0 -46 15 -59t59 -16q1 0 1 -1.5t-1 -1.5q-42 5 -92 5z" />
    <glyph glyph-name="ordmasculine" unicode="&#xba;" horiz-adv-x="385" 
d="M35 486q0 65 44.5 113t116.5 48q67 0 110.5 -45t43.5 -106q0 -65 -45 -112.5t-117 -47.5q-67 0 -110 44.5t-43 105.5zM180 637q-45 0 -67 -34.5t-22 -87.5q0 -79 30 -124.5t83 -45.5q45 0 67.5 34.5t22.5 86.5q0 80 -30.5 125.5t-83.5 45.5z" />
    <glyph glyph-name="guillemotright" unicode="&#xbb;" horiz-adv-x="451" 
d="M204 85l-1 1q1 2 2 3l155 111l-155 116q-1 2 -1 3l201 -114q2 -2 1 -5zM54 85l-1 1q1 2 2 3l155 111l-155 116q-1 2 -1 3l201 -114q2 -2 1 -5z" />
    <glyph glyph-name="onequarter" unicode="&#xbc;" horiz-adv-x="752" 
d="M141 291q-65 0 -105 -5q0 1 1 3q45 4 60 16t15 59v189q0 47 -15 59t-60 17q-1 2 0 2q32 -4 104 -4q58 0 92 4v-2q-44 -3 -59 -16.5t-15 -59.5v-189q0 -46 15 -59t59 -16q1 0 1 -1.5t-1 -1.5q-42 5 -92 5zM136 -37q-2 -1 -5 3l468 697q2 1 5 -3zM632 25v-69q0 -46 15 -59
t59 -16q1 0 1 -1.5t-1 -1.5q-34 4 -91 4q-74 0 -105 -4v3q45 4 60 16t15 59v71h-24q-134 0 -198 -4q-1 0 -2 3.5t0 4.5l271 330v-308h93v-29q-53 0 -93 1zM585 292l-196 -239h196v239z" />
    <glyph glyph-name="onehalf" unicode="&#xbd;" horiz-adv-x="795" 
d="M141 291q-66 0 -104 -5v3q45 4 60 16t15 59v189q0 47 -15 59t-60 17q0 2 1 2q31 -4 103 -4q58 0 92 4v-2q-44 -3 -59 -16.5t-15 -59.5v-189q0 -46 15 -59t59 -16q1 0 1 -1.5t-1 -1.5q-42 5 -92 5zM136 -37q-2 -1 -5 3l468 697q2 1 5 -3zM739 4q-3 -7 -10 -7q-9 0 -53 1.5
t-72 1.5q-78 0 -158 -5q-2 0 -3 4.5t0 5.5q103 53 152 104t49 112q0 45 -21.5 70t-58.5 25q-48 0 -93 -43q-1 1 -1 2q57 73 117 73q49 0 76 -29.5t27 -73.5q0 -53 -49 -108.5t-113 -90.5l2 -6h119q60 0 75.5 8t18.5 43q3 3 3 1q0 -50 -7 -88z" />
    <glyph glyph-name="threequarters" unicode="&#xbe;" horiz-adv-x="808" 
d="M42 184v2q185 13 185 132q0 42 -31 65.5t-96 34.5l-2 2l-2 6l-1 2q61 17 91.5 47.5t30.5 65.5q0 29 -21.5 46.5t-53.5 17.5q-50 0 -91 -43q-1 0 -1 1.5t1 2.5q56 72 116 72q41 0 67 -24.5t26 -62.5q0 -34 -24 -58.5t-84 -50.5q121 -31 121 -115q0 -61 -63.5 -102
t-167.5 -41zM192 -37q-2 -1 -5 3l468 697q2 1 5 -3zM688 25v-69q0 -46 15 -59t59 -16q1 0 1 -1.5t-1 -1.5q-34 4 -91 4q-74 0 -105 -4v3q45 4 60 16t15 59v71h-24q-134 0 -198 -4q-1 0 -2 3.5t0 4.5l271 330v-308h93v-29q-53 0 -93 1zM641 292l-196 -239h196v239z" />
    <glyph glyph-name="questiondown" unicode="&#xbf;" horiz-adv-x="341" 
d="M224 325q-14 0 -24 10t-10 23q0 14 10 25t25 11q14 0 24.5 -10.5t10.5 -23.5q0 -14 -10.5 -24.5t-25.5 -10.5zM261 -235q-6 0 -6 3q4 14 4 18q0 20 -24 37.5t-92 36.5q-56 16 -82 44.5t-26 76.5q0 45 23.5 72.5t93.5 55.5q86 35 86 88q0 15 -8 36q1 0 5 2q23 -52 23 -80
q0 -62 -80 -98l-95 -43q-32 -14 -32 -39q0 -26 42 -39l90 -26q48 -14 70.5 -34t22.5 -51q0 -24 -15 -60z" />
    <glyph glyph-name="Agrave" unicode="&#xc0;" horiz-adv-x="687" 
d="M685 -8q-60 8 -112 8q-84 0 -150 -8q-1 0 -0.5 2.5t1.5 3.5q43 4 58.5 10.5t15.5 27.5q0 22 -38 128l-31 85h-229l-36 -85q-43 -103 -43 -128q0 -18 15.5 -26.5t52.5 -11.5q1 -1 1.5 -3.5t-0.5 -2.5q-60 8 -94 8t-100 -8q-1 0 -0.5 2.5t1.5 3.5q48 4 75.5 37t68.5 127
l211 483q1 1 3 1t3 -1l180 -483q20 -53 31 -78.5t28 -47t36.5 -29t51.5 -9.5q1 -1 1 -3.5t-1 -2.5zM326 542l-120 -280h218zM343 695l-161 173q-2 3 2.5 9t11.5 9.5t9 0.5l141 -191v-1q-2 -1 -3 0z" />
    <glyph glyph-name="Aacute" unicode="&#xc1;" horiz-adv-x="687" 
d="M685 -8q-60 8 -112 8q-84 0 -150 -8q-1 0 -0.5 2.5t1.5 3.5q43 4 58.5 10.5t15.5 27.5q0 22 -38 128l-31 85h-229l-36 -85q-43 -103 -43 -128q0 -18 15.5 -26.5t52.5 -11.5q1 -1 1.5 -3.5t-0.5 -2.5q-60 8 -94 8t-100 -8q-1 0 -0.5 2.5t1.5 3.5q48 4 75.5 37t68.5 127
l211 483q1 1 3 1t3 -1l180 -483q20 -53 31 -78.5t28 -47t36.5 -29t51.5 -9.5q1 -1 1 -3.5t-1 -2.5zM326 542l-120 -280h218zM350 699q-1 1 -2 1l141 191q2 3 8.5 -0.5t11 -9.5t2.5 -9z" />
    <glyph glyph-name="Acircumflex" unicode="&#xc2;" horiz-adv-x="687" 
d="M685 -8q-60 8 -112 8q-84 0 -150 -8q-1 0 -0.5 2.5t1.5 3.5q43 4 58.5 10.5t15.5 27.5q0 22 -38 128l-31 85h-229l-36 -85q-43 -103 -43 -128q0 -18 15.5 -26.5t52.5 -11.5q1 -1 1.5 -3.5t-0.5 -2.5q-60 8 -94 8t-100 -8q-1 0 -0.5 2.5t1.5 3.5q48 4 75.5 37t68.5 127
l211 483q1 1 3 1t3 -1l180 -483q20 -53 31 -78.5t28 -47t36.5 -29t51.5 -9.5q1 -1 1 -3.5t-1 -2.5zM326 542l-120 -280h218zM468 695l-116 156l-111 -156l-3 -1l114 203h4l1 -1l114 -202z" />
    <glyph glyph-name="Atilde" unicode="&#xc3;" horiz-adv-x="687" 
d="M685 -8q-60 8 -112 8q-84 0 -150 -8q-1 0 -0.5 2.5t1.5 3.5q43 4 58.5 10.5t15.5 27.5q0 22 -38 128l-31 85h-229l-36 -85q-43 -103 -43 -128q0 -18 15.5 -26.5t52.5 -11.5q1 -1 1.5 -3.5t-0.5 -2.5q-60 8 -94 8t-100 -8q-1 0 -0.5 2.5t1.5 3.5q48 4 75.5 37t68.5 127
l211 483q1 1 3 1t3 -1l180 -483q20 -53 31 -78.5t28 -47t36.5 -29t51.5 -9.5q1 -1 1 -3.5t-1 -2.5zM326 542l-120 -280h218zM423 732q-23 0 -73.5 19.5t-81.5 19.5q-53 0 -67 -71l-4 2l-1 1q4 45 29.5 70t64.5 25q22 0 72 -18t74 -18q25 0 41 13t23 49q5 0 5 -2
q-4 -41 -25 -65.5t-57 -24.5z" />
    <glyph glyph-name="Adieresis" unicode="&#xc4;" horiz-adv-x="687" 
d="M685 -8q-60 8 -112 8q-84 0 -150 -8q-1 0 -0.5 2.5t1.5 3.5q43 4 58.5 10.5t15.5 27.5q0 22 -38 128l-31 85h-229l-36 -85q-43 -103 -43 -128q0 -18 15.5 -26.5t52.5 -11.5q1 -1 1.5 -3.5t-0.5 -2.5q-60 8 -94 8t-100 -8q-1 0 -0.5 2.5t1.5 3.5q48 4 75.5 37t68.5 127
l211 483q1 1 3 1t3 -1l180 -483q20 -53 31 -78.5t28 -47t36.5 -29t51.5 -9.5q1 -1 1 -3.5t-1 -2.5zM326 542l-120 -280h218zM442 734q-16 0 -27.5 11.5t-11.5 26.5q0 16 12 28.5t29 12.5q16 0 27.5 -12t11.5 -27q0 -16 -12 -28t-29 -12zM260 734q-16 0 -27.5 11.5
t-11.5 26.5q0 16 12 28.5t29 12.5q16 0 27.5 -12t11.5 -27q0 -16 -11.5 -28t-29.5 -12z" />
    <glyph glyph-name="Aring" unicode="&#xc5;" horiz-adv-x="687" 
d="M352 644q-33 2 -55.5 25t-22.5 56t23.5 57t57.5 24q33 0 57 -24t24 -57t-23 -56t-55 -25l180 -482q20 -53 31 -78.5t28 -47t36.5 -29t51.5 -9.5q1 -1 1 -3.5t-1 -2.5q-60 8 -112 8q-84 0 -150 -8q-1 0 -0.5 2.5t1.5 3.5q43 4 58.5 10.5t15.5 27.5q0 22 -38 128l-31 85
h-229l-36 -85q-43 -103 -43 -128q0 -18 15.5 -26.5t52.5 -11.5q1 -1 1.5 -3.5t-0.5 -2.5q-60 8 -94 8t-100 -8q-1 0 -0.5 2.5t1.5 3.5q48 4 75.5 37t68.5 127zM355 800q-31 0 -53 -22t-22 -53t22 -53t53 -22t53 22t22 53t-22 53t-53 22zM326 542l-120 -280h218z" />
    <glyph glyph-name="AE" unicode="&#xc6;" horiz-adv-x="858" 
d="M780 10q-4 -10 -7.5 -13t-12.5 -3q-14 0 -72 3t-98 3q-156 0 -271 -8q-3 0 1 6q67 7 81 16q21 14 24 71q1 22 1 78v86l-238 -1l-55 -83q-6 -9 -16 -24.5t-15 -23t-12.5 -19.5t-11.5 -18.5t-8.5 -15t-7 -15t-3.5 -12.5q-5 -19 8.5 -27.5t51.5 -11.5q1 -1 -0.5 -3.5
t-2.5 -2.5q-58 8 -92 8t-101 -8q-2 0 -0.5 2t3.5 4q50 4 86 37.5t98 125.5l245 362q33 48 33 66q0 29 -105 41q-1 0 -1 2t1 2q99 -7 302 -7q98 0 187 7q-5 -23 -5 -51q0 -22 2 -38q-1 -2 -5 1q-6 37 -36.5 50t-125.5 13h-97q-8 -37 -8 -141v-135h108q21 0 37 1t27.5 1
t19.5 3.5t12 3.5t7 6t4 6.5t2.5 9t1.5 9.5l5 2q-6 -23 -6 -65q0 -32 2 -40q-1 -1 -3.5 -0.5t-2.5 1.5q-4 20 -9 28.5t-28 14.5t-69 6h-108v-153q0 -67 8 -100t20.5 -41t39.5 -8h51q59 0 91 3t50.5 14.5t24 24.5t12.5 43q5 0 5 -1q-11 -67 -19 -92zM426 606l-228 -344h228
v344z" />
    <glyph glyph-name="Ccedilla" unicode="&#xc7;" horiz-adv-x="705" 
d="M398 -20q-150 7 -242 100t-92 220q0 133 104.5 240t256.5 107q60 0 122.5 -19t81.5 -34q12 -7 16 -134q0 -1 -2 -1t-2 1q-15 69 -75.5 120t-163.5 51q-115 0 -188.5 -79t-73.5 -215q0 -159 87 -250.5t203 -91.5q82 0 145.5 48t69.5 125h4l1 -1q-6 -127 -17 -135
q-69 -53 -212 -53h-15l-27 -41q52 -16 77 -42.5t25 -56.5q0 -39 -33.5 -71t-100.5 -43l-3 5q38 5 61 22.5t28.5 33t5.5 32.5q0 61 -92 88z" />
    <glyph glyph-name="Egrave" unicode="&#xc8;" horiz-adv-x="606" 
d="M518 10q-3 -10 -7 -13t-14 -3q-13 0 -71 3t-99 3q-156 0 -270 -8q-3 0 1 6q67 6 81 16q21 14 24 74q1 23 1 75v300q0 45 -0.5 66t-4 43t-8 28.5t-17.5 14t-27 9.5t-40 5q-7 1 -10 1q-1 0 -1 2t1 2q99 -7 266 -7q96 0 187 7q-5 -23 -5 -51q0 -22 2 -38l-6 1q-6 37 -36 50
t-125 13h-99q-6 -43 -6 -141v-135h107q47 0 71.5 6.5t30.5 14.5t10 26q2 1 4 1t2 -1q-8 -30 -8 -70q0 -24 2 -40q-1 -2 -5 1q-4 20 -9 28.5t-28 14.5t-70 6h-107v-165q0 -88 14 -112.5t53 -24.5h51q59 0 91 3t50.5 14t24.5 24t12 42h6q-9 -56 -19 -91zM357 695l-161 173
q-2 3 2.5 9t11.5 9.5t9 0.5l141 -191v-1q-2 -1 -3 0z" />
    <glyph glyph-name="Eacute" unicode="&#xc9;" horiz-adv-x="606" 
d="M518 10q-3 -10 -7 -13t-14 -3q-13 0 -71 3t-99 3q-156 0 -270 -8q-3 0 1 6q67 6 81 16q21 14 24 74q1 23 1 75v300q0 45 -0.5 66t-4 43t-8 28.5t-17.5 14t-27 9.5t-40 5q-7 1 -10 1q-1 0 -1 2t1 2q99 -7 266 -7q96 0 187 7q-5 -23 -5 -51q0 -22 2 -38l-6 1q-6 37 -36 50
t-125 13h-99q-6 -43 -6 -141v-135h107q47 0 71.5 6.5t30.5 14.5t10 26q2 1 4 1t2 -1q-8 -30 -8 -70q0 -24 2 -40q-1 -2 -5 1q-4 20 -9 28.5t-28 14.5t-70 6h-107v-165q0 -88 14 -112.5t53 -24.5h51q59 0 91 3t50.5 14t24.5 24t12 42h6q-9 -56 -19 -91zM294 699q-1 1 -2 1
l141 191q2 3 8.5 -0.5t11 -9.5t2.5 -9z" />
    <glyph glyph-name="Ecircumflex" unicode="&#xca;" horiz-adv-x="606" 
d="M518 10q-3 -10 -7 -13t-14 -3q-13 0 -71 3t-99 3q-156 0 -270 -8q-3 0 1 6q67 6 81 16q21 14 24 74q1 23 1 75v300q0 45 -0.5 66t-4 43t-8 28.5t-17.5 14t-27 9.5t-40 5q-7 1 -10 1q-1 0 -1 2t1 2q99 -7 266 -7q96 0 187 7q-5 -23 -5 -51q0 -22 2 -38l-6 1q-6 37 -36 50
t-125 13h-99q-6 -43 -6 -141v-135h107q47 0 71.5 6.5t30.5 14.5t10 26q2 1 4 1t2 -1q-8 -30 -8 -70q0 -24 2 -40q-1 -2 -5 1q-4 20 -9 28.5t-28 14.5t-70 6h-107v-165q0 -88 14 -112.5t53 -24.5h51q59 0 91 3t50.5 14t24.5 24t12 42h6q-9 -56 -19 -91zM437 695l-116 156
l-111 -156l-3 -1l114 203h4l1 -1l114 -202z" />
    <glyph glyph-name="Edieresis" unicode="&#xcb;" horiz-adv-x="606" 
d="M518 10q-3 -10 -7 -13t-14 -3q-13 0 -71 3t-99 3q-156 0 -270 -8q-3 0 1 6q67 6 81 16q21 14 24 74q1 23 1 75v300q0 45 -0.5 66t-4 43t-8 28.5t-17.5 14t-27 9.5t-40 5q-7 1 -10 1q-1 0 -1 2t1 2q99 -7 266 -7q96 0 187 7q-5 -23 -5 -51q0 -22 2 -38l-6 1q-6 37 -36 50
t-125 13h-99q-6 -43 -6 -141v-135h107q47 0 71.5 6.5t30.5 14.5t10 26q2 1 4 1t2 -1q-8 -30 -8 -70q0 -24 2 -40q-1 -2 -5 1q-4 20 -9 28.5t-28 14.5t-70 6h-107v-165q0 -88 14 -112.5t53 -24.5h51q59 0 91 3t50.5 14t24.5 24t12 42h6q-9 -56 -19 -91zM407 734
q-16 0 -27.5 11.5t-11.5 26.5q0 16 12 28.5t29 12.5q16 0 27.5 -12t11.5 -27q0 -16 -12 -28t-29 -12zM225 734q-16 0 -27.5 11.5t-11.5 26.5q0 16 12 28.5t29 12.5q16 0 27.5 -12t11.5 -27q0 -16 -11.5 -28t-29.5 -12z" />
    <glyph glyph-name="Igrave" unicode="&#xcc;" horiz-adv-x="428" 
d="M225 0q-78 0 -144 -8q-1 0 -0.5 2.5t1.5 3.5q23 2 31 3t22.5 4.5t18 6.5t11 13t8.5 18.5t3.5 28.5t2.5 39v52v300v52.5t-2.5 39t-3.5 28.5t-8.5 19t-11.5 13t-18.5 7t-22.5 5t-31 3q-1 0 -1 2t1 2q57 -7 144 -7q69 0 121 7q1 0 1 -2t-1 -2q-27 -2 -40.5 -3.5t-26.5 -10
t-17 -15t-8 -30t-4 -43v-65.5v-300v-65.5t4 -42.5t8 -30t16.5 -14t26 -9.5t40.5 -3.5q1 -1 1.5 -3.5t-0.5 -2.5q-60 8 -121 8zM240 695l-161 173q-2 3 2.5 9t11.5 9.5t9 0.5l141 -191v-1q-2 -1 -3 0z" />
    <glyph glyph-name="Iacute" unicode="&#xcd;" horiz-adv-x="428" 
d="M225 0q-78 0 -144 -8q-1 0 -0.5 2.5t1.5 3.5q23 2 31 3t22.5 4.5t18 6.5t11 13t8.5 18.5t3.5 28.5t2.5 39v52v300v52.5t-2.5 39t-3.5 28.5t-8.5 19t-11.5 13t-18.5 7t-22.5 5t-31 3q-1 0 -1 2t1 2q57 -7 144 -7q69 0 121 7q1 0 1 -2t-1 -2q-27 -2 -40.5 -3.5t-26.5 -10
t-17 -15t-8 -30t-4 -43v-65.5v-300v-65.5t4 -42.5t8 -30t16.5 -14t26 -9.5t40.5 -3.5q1 -1 1.5 -3.5t-0.5 -2.5q-60 8 -121 8zM199 699q-1 1 -2 1l141 191q2 3 8.5 -0.5t11 -9.5t2.5 -9z" />
    <glyph glyph-name="Icircumflex" unicode="&#xce;" horiz-adv-x="428" 
d="M225 0q-78 0 -144 -8q-1 0 -0.5 2.5t1.5 3.5q23 2 31 3t22.5 4.5t18 6.5t11 13t8.5 18.5t3.5 28.5t2.5 39v52v300v52.5t-2.5 39t-3.5 28.5t-8.5 19t-11.5 13t-18.5 7t-22.5 5t-31 3q-1 0 -1 2t1 2q57 -7 144 -7q69 0 121 7q1 0 1 -2t-1 -2q-27 -2 -40.5 -3.5t-26.5 -10
t-17 -15t-8 -30t-4 -43v-65.5v-300v-65.5t4 -42.5t8 -30t16.5 -14t26 -9.5t40.5 -3.5q1 -1 1.5 -3.5t-0.5 -2.5q-60 8 -121 8zM329 695l-116 156l-111 -156l-3 -1l114 203h4l1 -1l114 -202z" />
    <glyph glyph-name="Idieresis" unicode="&#xcf;" horiz-adv-x="428" 
d="M225 0q-78 0 -144 -8q-1 0 -0.5 2.5t1.5 3.5q23 2 31 3t22.5 4.5t18 6.5t11 13t8.5 18.5t3.5 28.5t2.5 39v52v300v52.5t-2.5 39t-3.5 28.5t-8.5 19t-11.5 13t-18.5 7t-22.5 5t-31 3q-1 0 -1 2t1 2q57 -7 144 -7q69 0 121 7q1 0 1 -2t-1 -2q-27 -2 -40.5 -3.5t-26.5 -10
t-17 -15t-8 -30t-4 -43v-65.5v-300v-65.5t4 -42.5t8 -30t16.5 -14t26 -9.5t40.5 -3.5q1 -1 1.5 -3.5t-0.5 -2.5q-60 8 -121 8zM306 734q-16 0 -27.5 11.5t-11.5 26.5q0 16 12 28.5t29 12.5q16 0 27.5 -12t11.5 -27q0 -16 -12 -28t-29 -12zM124 734q-16 0 -27.5 11.5
t-11.5 26.5q0 16 12 28.5t29 12.5q16 0 27.5 -12t11.5 -27q0 -16 -11.5 -28t-29.5 -12z" />
    <glyph glyph-name="Eth" unicode="&#xd0;" horiz-adv-x="789" 
d="M370 -5q-18 0 -76.5 2.5t-69.5 2.5q-92 0 -158 -8q-1 0 -0.5 2.5t1.5 3.5q23 2 31 3t22.5 4.5t18 6.5t11 13t8.5 18.5t3.5 28.5t2.5 39v52v125l-94 -22q-7 0 -7 6q1 3 4 4l97 21v166v52.5t-2.5 39t-3.5 28.5t-8.5 19t-11.5 13t-18.5 7t-22.5 5t-31 3q-1 0 -1 2t1 2
q57 -7 167 -7q11 0 71 2t79 2q165 0 254 -86t89 -222q0 -137 -100 -232.5t-256 -95.5zM353 615q-57 0 -108 -6q-10 -57 -10 -145v-151l78 20q5 1 6 -4t-3 -7q-81 -20 -81 -21v-174q0 -42 3.5 -62t22 -33.5t47.5 -16.5t89 -3q111 0 183.5 75t72.5 204q0 158 -79.5 241
t-220.5 83z" />
    <glyph glyph-name="Ntilde" unicode="&#xd1;" horiz-adv-x="823" 
d="M682 463v-300q0 -116 8 -183q0 -3 -6 3l-491 531v-351q0 -108 14 -134t84 -31q1 -1 1 -3.5t-1 -2.5q-60 8 -98 8q-51 0 -117 -8q-1 0 -0.5 2.5t1.5 3.5q31 3 46 7.5t27.5 12t16.5 28t6 45t2 72.5l1 343q0 35 -42.5 77t-80.5 47q-1 0 -1 2t1 2q56 -7 134 -7l477 -512v348
q0 47 -2 72.5t-7 45.5t-18 28.5t-29 13t-47 7.5q-1 0 -1 2t1 2q57 -7 122 -7q45 0 98 7q2 -1 1 -4q-70 -6 -85 -33t-15 -134zM484 732q-23 0 -73.5 19.5t-81.5 19.5q-53 0 -67 -71l-4 2l-1 1q4 45 29.5 70t64.5 25q21 0 71 -18t75 -18t41 13t23 49q5 0 5 -2
q-4 -41 -25 -65.5t-57 -24.5z" />
    <glyph glyph-name="Ograve" unicode="&#xd2;" horiz-adv-x="827" 
d="M404 -21q-147 0 -243.5 96.5t-96.5 227.5q0 134 103 239t255 105q148 0 245 -96.5t97 -226.5q0 -135 -103.5 -240t-256.5 -105zM400 631q-116 0 -189 -79.5t-73 -215.5q0 -159 86.5 -250t202.5 -91t189.5 79.5t73.5 215.5q0 81 -25 147.5t-66.5 107.5t-93 63.5
t-105.5 22.5zM420 695l-161 173q-2 3 2.5 9t11.5 9.5t9 0.5l141 -191v-1q-2 -1 -3 0z" />
    <glyph glyph-name="Oacute" unicode="&#xd3;" horiz-adv-x="827" 
d="M404 -21q-147 0 -243.5 96.5t-96.5 227.5q0 134 103 239t255 105q148 0 245 -96.5t97 -226.5q0 -135 -103.5 -240t-256.5 -105zM400 631q-116 0 -189 -79.5t-73 -215.5q0 -159 86.5 -250t202.5 -91t189.5 79.5t73.5 215.5q0 81 -25 147.5t-66.5 107.5t-93 63.5
t-105.5 22.5zM394 699q-1 1 -2 1l141 191q2 3 8.5 -0.5t11 -9.5t2.5 -9z" />
    <glyph glyph-name="Ocircumflex" unicode="&#xd4;" horiz-adv-x="827" 
d="M404 -21q-147 0 -243.5 96.5t-96.5 227.5q0 134 103 239t255 105q148 0 245 -96.5t97 -226.5q0 -135 -103.5 -240t-256.5 -105zM400 631q-116 0 -189 -79.5t-73 -215.5q0 -159 86.5 -250t202.5 -91t189.5 79.5t73.5 215.5q0 81 -25 147.5t-66.5 107.5t-93 63.5
t-105.5 22.5zM527 695l-116 156l-111 -156l-3 -1l114 203h4l1 -1l114 -202z" />
    <glyph glyph-name="Otilde" unicode="&#xd5;" horiz-adv-x="827" 
d="M404 -21q-147 0 -243.5 96.5t-96.5 227.5q0 134 103 239t255 105q148 0 245 -96.5t97 -226.5q0 -135 -103.5 -240t-256.5 -105zM400 631q-116 0 -189 -79.5t-73 -215.5q0 -159 86.5 -250t202.5 -91t189.5 79.5t73.5 215.5q0 81 -25 147.5t-66.5 107.5t-93 63.5
t-105.5 22.5zM478 732q-23 0 -73.5 19.5t-81.5 19.5q-53 0 -67 -71l-4 2l-1 1q4 45 29.5 70t64.5 25q21 0 71 -18t75 -18t41 13t23 49q5 0 5 -2q-4 -41 -25 -65.5t-57 -24.5z" />
    <glyph glyph-name="Odieresis" unicode="&#xd6;" horiz-adv-x="827" 
d="M404 -21q-147 0 -243.5 96.5t-96.5 227.5q0 134 103 239t255 105q148 0 245 -96.5t97 -226.5q0 -135 -103.5 -240t-256.5 -105zM400 631q-116 0 -189 -79.5t-73 -215.5q0 -159 86.5 -250t202.5 -91t189.5 79.5t73.5 215.5q0 81 -25 147.5t-66.5 107.5t-93 63.5
t-105.5 22.5zM504 734q-16 0 -27.5 11.5t-11.5 26.5q0 16 12 28.5t29 12.5q16 0 27.5 -12t11.5 -27q0 -16 -12 -28t-29 -12zM322 734q-16 0 -27.5 11.5t-11.5 26.5q0 16 12 28.5t29 12.5q16 0 27.5 -12t11.5 -27q0 -16 -11.5 -28t-29.5 -12z" />
    <glyph glyph-name="Oslash" unicode="&#xd8;" horiz-adv-x="827" 
d="M179 58q-54 46 -84.5 110.5t-30.5 134.5q0 134 103 239t255 105q127 0 220 -74l81 90q2 1 5 -3l-82 -91q56 -46 87 -110t31 -135q0 -135 -103.5 -240t-256.5 -105q-125 0 -220 75l-82 -91q-2 -1 -5 3q5 6 13.5 15.5t27 29.5t30.5 33zM215 97l392 437q-84 97 -207 97
q-116 0 -189 -79.5t-73 -215.5q0 -146 77 -239zM611 530l-392 -437q40 -47 95 -72.5t113 -25.5q116 0 189.5 79.5t73.5 215.5q0 146 -79 240z" />
    <glyph glyph-name="Ugrave" unicode="&#xd9;" horiz-adv-x="804" 
d="M662 472v-250q0 -105 -65 -174t-186 -69q-112 0 -187 67.5t-75 182.5v234v67t-5 44t-8.5 28.5t-18.5 14.5t-25.5 8.5t-39.5 4.5q-2 1 -1 4q59 -7 144 -7q69 0 121 7q2 -1 1 -4q-20 -2 -31.5 -3t-24 -5.5t-17.5 -7.5t-11 -14t-7.5 -19t-3.5 -29.5t-2 -37.5v-51v-214
q0 -115 64.5 -175t151.5 -60q102 0 155 55.5t53 162.5v240q0 54 -2.5 80t-14.5 44.5t-30 24t-55 9.5q-1 0 -1 2t1 2q57 -7 120 -7q48 0 100 7q2 -1 1 -4q-70 -6 -85.5 -32.5t-15.5 -125.5zM451 695l-161 173q-2 3 2.5 9t11.5 9.5t9 0.5l141 -191v-1q-2 -1 -3 0z" />
    <glyph glyph-name="Uacute" unicode="&#xda;" horiz-adv-x="804" 
d="M662 472v-250q0 -105 -65 -174t-186 -69q-112 0 -187 67.5t-75 182.5v234v67t-5 44t-8.5 28.5t-18.5 14.5t-25.5 8.5t-39.5 4.5q-2 1 -1 4q59 -7 144 -7q69 0 121 7q2 -1 1 -4q-20 -2 -31.5 -3t-24 -5.5t-17.5 -7.5t-11 -14t-7.5 -19t-3.5 -29.5t-2 -37.5v-51v-214
q0 -115 64.5 -175t151.5 -60q102 0 155 55.5t53 162.5v240q0 54 -2.5 80t-14.5 44.5t-30 24t-55 9.5q-1 0 -1 2t1 2q57 -7 120 -7q48 0 100 7q2 -1 1 -4q-70 -6 -85.5 -32.5t-15.5 -125.5zM410 699q-1 1 -2 1l141 191q2 3 8.5 -0.5t11 -9.5t2.5 -9z" />
    <glyph glyph-name="Ucircumflex" unicode="&#xdb;" horiz-adv-x="804" 
d="M662 472v-250q0 -105 -65 -174t-186 -69q-112 0 -187 67.5t-75 182.5v234v67t-5 44t-8.5 28.5t-18.5 14.5t-25.5 8.5t-39.5 4.5q-2 1 -1 4q59 -7 144 -7q69 0 121 7q2 -1 1 -4q-20 -2 -31.5 -3t-24 -5.5t-17.5 -7.5t-11 -14t-7.5 -19t-3.5 -29.5t-2 -37.5v-51v-214
q0 -115 64.5 -175t151.5 -60q102 0 155 55.5t53 162.5v240q0 54 -2.5 80t-14.5 44.5t-30 24t-55 9.5q-1 0 -1 2t1 2q57 -7 120 -7q48 0 100 7q2 -1 1 -4q-70 -6 -85.5 -32.5t-15.5 -125.5zM542 695l-116 156l-111 -156l-3 -1l114 203h4l1 -1l114 -202z" />
    <glyph glyph-name="Udieresis" unicode="&#xdc;" horiz-adv-x="804" 
d="M662 472v-250q0 -105 -65 -174t-186 -69q-112 0 -187 67.5t-75 182.5v234v67t-5 44t-8.5 28.5t-18.5 14.5t-25.5 8.5t-39.5 4.5q-2 1 -1 4q59 -7 144 -7q69 0 121 7q2 -1 1 -4q-20 -2 -31.5 -3t-24 -5.5t-17.5 -7.5t-11 -14t-7.5 -19t-3.5 -29.5t-2 -37.5v-51v-214
q0 -115 64.5 -175t151.5 -60q102 0 155 55.5t53 162.5v240q0 54 -2.5 80t-14.5 44.5t-30 24t-55 9.5q-1 0 -1 2t1 2q57 -7 120 -7q48 0 100 7q2 -1 1 -4q-70 -6 -85.5 -32.5t-15.5 -125.5zM517 734q-16 0 -27.5 11.5t-11.5 26.5q0 16 12 28.5t29 12.5q16 0 27.5 -12
t11.5 -27q0 -16 -12 -28t-29 -12zM335 734q-16 0 -27.5 11.5t-11.5 26.5q0 16 12 28.5t29 12.5q16 0 27.5 -12t11.5 -27q0 -16 -11.5 -28t-29.5 -12z" />
    <glyph glyph-name="Yacute" unicode="&#xdd;" horiz-adv-x="731" 
d="M512 466l-107 -154v-149v-50.5t1.5 -37.5t3 -29t7.5 -19t11.5 -14t17.5 -7t23.5 -6t31.5 -2q1 -1 1 -3.5t-1 -2.5q-60 8 -121 8q-78 0 -144 -8q-1 0 -0.5 2.5t1.5 3.5q24 3 31.5 3.5t23 4.5t18 6.5t10.5 12.5t8.5 19t3.5 28.5t2.5 38.5t-0.5 52l-1 141l-87 139
q-73 116 -108.5 148t-98.5 39q-2 1 -1 4q57 -7 144 -7q68 0 120 7q2 -1 1 -4q-35 -3 -49.5 -11t-9.5 -32t22.5 -54.5t58.5 -93.5l71 -108l90 131q75 110 78 135t-61 33q-2 1 -1 4q57 -7 120 -7q36 0 90 7q1 0 1 -2t-1 -2q-63 -7 -95.5 -34t-104.5 -130zM361 699q-1 1 -2 1
l141 191q2 3 8.5 -0.5t11 -9.5t2.5 -9z" />
    <glyph glyph-name="Thorn" unicode="&#xde;" horiz-adv-x="590" 
d="M281 154h-16q-1 0 -1 2t1 3q101 -1 146 37t45 126q0 78 -42 118.5t-122 40.5q-20 0 -56 -6q-1 -32 -1 -146v-167q0 -41 0.5 -64t5.5 -43.5t9.5 -29t18.5 -15.5t28 -9t41 -4q1 0 1 -2.5t-1 -2.5q-60 8 -128 8q-78 0 -144 -8q-1 0 -1 2.5t1 2.5q30 3 40 4.5t25.5 8.5
t18.5 14t8.5 28t5.5 43.5v66.5v301q0 49 -2 73t-6 44.5t-16.5 28.5t-27.5 12.5t-46 7.5q-1 0 -1 2t1 2q57 -7 144 -7q60 0 113 7q1 0 1 -2t-1 -2q-42 -4 -58.5 -13t-23 -33.5t-6.5 -84.5v-6q60 4 83 4q95 0 153 -43t58 -115q0 -84 -67.5 -134t-180.5 -50z" />
    <glyph glyph-name="germandbls" unicode="&#xdf;" horiz-adv-x="525" 
d="M370 -15q-36 0 -64 8.5t-39.5 18.5t-11.5 18q0 13 10.5 28t20.5 15q11 0 27.5 -19t36 -38t38.5 -19q69 0 69 87q0 27 -18.5 50t-45 41t-53.5 37t-45.5 45.5t-18.5 58.5q0 25 13.5 47.5t32 41.5t37.5 38.5t32.5 46.5t13.5 57q0 61 -36 100.5t-90 39.5q-56 0 -82 -49
t-26 -171v-376q0 -52 13.5 -71t49.5 -21q1 -5 0 -5q-42 6 -89 6q-71 0 -113 -6q-2 1 1 5q55 6 67 19.5t12 72.5v271q-16 0 -49.5 0.5t-36.5 0.5q-1 0 -1.5 2.5t-0.5 4.5v3q44 4 87 15l1 43q3 124 65.5 206t151.5 82q56 0 94.5 -37.5t38.5 -95.5q0 -39 -14 -68.5t-34 -48
t-40 -35t-34 -38t-14 -47.5q0 -25 18.5 -47.5t45 -40.5t53 -37t45 -47t18.5 -62q0 -52 -37.5 -91t-98.5 -39z" />
    <glyph glyph-name="agrave" unicode="&#xe0;" horiz-adv-x="404" 
d="M330 -18q-26 0 -41.5 17.5t-16.5 51.5q-69 -66 -144 -66q-38 0 -60.5 22t-22.5 57q0 94 229 108q2 40 2 115q0 55 -29 71q-21 12 -60 12q-25 0 -44.5 -11.5t-19.5 -23.5q0 -7 2.5 -16t2.5 -15q0 -13 -18.5 -23.5t-39.5 -10.5q-17 0 -17 14q2 30 68.5 74.5t128.5 44.5
q37 0 61 -26.5t25 -72.5q0 -21 -3 -119t-2 -126q2 -71 92 -33q5 0 1 -3q-52 -41 -94 -41zM109 73q0 -57 67 -57q40 0 93 42q0 6 2 46l3 60q-97 -7 -131 -30.5t-34 -60.5zM241 463l-153 173q-2 3 2.5 9t11 9.5t8.5 0.5l134 -191v-1q-2 -1 -3 0z" />
    <glyph glyph-name="aacute" unicode="&#xe1;" horiz-adv-x="404" 
d="M330 -18q-26 0 -41.5 17.5t-16.5 51.5q-69 -66 -144 -66q-38 0 -60.5 22t-22.5 57q0 94 229 108q2 40 2 115q0 55 -29 71q-21 12 -60 12q-25 0 -44.5 -11.5t-19.5 -23.5q0 -7 2.5 -16t2.5 -15q0 -13 -18.5 -23.5t-39.5 -10.5q-17 0 -17 14q2 30 68.5 74.5t128.5 44.5
q37 0 61 -26.5t25 -72.5q0 -21 -3 -119t-2 -126q2 -71 92 -33q5 0 1 -3q-52 -41 -94 -41zM109 73q0 -57 67 -57q40 0 93 42q0 6 2 46l3 60q-97 -7 -131 -30.5t-34 -60.5zM174 467q-1 1 -2 1l134 191q2 3 8.5 -0.5t10.5 -9.5t2 -9z" />
    <glyph glyph-name="acircumflex" unicode="&#xe2;" horiz-adv-x="404" 
d="M330 -18q-26 0 -41.5 17.5t-16.5 51.5q-69 -66 -144 -66q-38 0 -60.5 22t-22.5 57q0 94 229 108q2 40 2 115q0 55 -29 71q-21 12 -60 12q-25 0 -44.5 -11.5t-19.5 -23.5q0 -7 2.5 -16t2.5 -15q0 -13 -18.5 -23.5t-39.5 -10.5q-17 0 -17 14q2 30 68.5 74.5t128.5 44.5
q37 0 61 -26.5t25 -72.5q0 -21 -3 -119t-2 -126q2 -71 92 -33q5 0 1 -3q-52 -41 -94 -41zM109 73q0 -57 67 -57q40 0 93 42q0 6 2 46l3 60q-97 -7 -131 -30.5t-34 -60.5zM315 463l-110 156l-106 -156l-3 -1l109 203h3l1 -1l109 -202z" />
    <glyph glyph-name="atilde" unicode="&#xe3;" horiz-adv-x="404" 
d="M330 -18q-26 0 -41.5 17.5t-16.5 51.5q-69 -66 -144 -66q-38 0 -60.5 22t-22.5 57q0 94 229 108q2 40 2 115q0 55 -29 71q-21 12 -60 12q-25 0 -44.5 -11.5t-19.5 -23.5q0 -7 2.5 -16t2.5 -15q0 -13 -18.5 -23.5t-39.5 -10.5q-17 0 -17 14q2 30 68.5 74.5t128.5 44.5
q37 0 61 -26.5t25 -72.5q0 -21 -3 -119t-2 -126q2 -71 92 -33q5 0 1 -3q-52 -41 -94 -41zM109 73q0 -57 67 -57q40 0 93 42q0 6 2 46l3 60q-97 -7 -131 -30.5t-34 -60.5zM276 500q-22 0 -70.5 19.5t-77.5 19.5q-51 0 -63 -71l-4 2l-1 1q4 45 28 70t61 25q21 0 68 -18t71 -18
t39 13t22 49q5 0 5 -2q-4 -41 -24 -65.5t-54 -24.5z" />
    <glyph glyph-name="adieresis" unicode="&#xe4;" horiz-adv-x="404" 
d="M330 -18q-26 0 -41.5 17.5t-16.5 51.5q-69 -66 -144 -66q-38 0 -60.5 22t-22.5 57q0 94 229 108q2 40 2 115q0 55 -29 71q-21 12 -60 12q-25 0 -44.5 -11.5t-19.5 -23.5q0 -7 2.5 -16t2.5 -15q0 -13 -18.5 -23.5t-39.5 -10.5q-17 0 -17 14q2 30 68.5 74.5t128.5 44.5
q37 0 61 -26.5t25 -72.5q0 -21 -3 -119t-2 -126q2 -71 92 -33q5 0 1 -3q-52 -41 -94 -41zM109 73q0 -57 67 -57q40 0 93 42q0 6 2 46l3 60q-97 -7 -131 -30.5t-34 -60.5zM298 502q-15 0 -26 11.5t-11 26.5q0 16 11.5 28.5t27.5 12.5q15 0 26 -12t11 -27q0 -16 -11.5 -28
t-27.5 -12zM126 502q-15 0 -26 11.5t-11 26.5q0 16 11 28.5t27 12.5q15 0 26.5 -12t11.5 -27q0 -16 -11.5 -28t-27.5 -12z" />
    <glyph glyph-name="aring" unicode="&#xe5;" horiz-adv-x="404" 
 />
    <glyph glyph-name="ae" unicode="&#xe6;" horiz-adv-x="643" 
d="M457 -15q-105 0 -162 95q-34 -42 -79.5 -68.5t-88.5 -26.5q-41 0 -67 22.5t-26 56.5q0 109 232 141q0 15 1.5 47.5t1.5 40.5q0 31 -16 54q-15 23 -61 23q-28 0 -52.5 -11t-24.5 -23q0 -4 1 -13t1 -14t-2 -9q-7 -10 -24.5 -16.5t-31.5 -6.5t-14 5q2 29 69.5 75.5
t126.5 46.5q27 0 49.5 -18.5t33.5 -51.5q67 70 145 70q62 0 100.5 -41.5t38.5 -92.5q0 -9 -3 -27l-273 -39q2 -96 48.5 -141.5t108.5 -45.5q68 0 122 44l1 -5q-27 -33 -69.5 -52t-85.5 -19zM448 390q-49 0 -82 -49.5t-34 -127.5l213 30q-2 67 -28 107t-69 40zM266 197
q-55 -9 -91 -22t-52 -29.5t-21.5 -29.5t-5.5 -29q0 -31 15 -51t42 -20q73 0 140 68q-27 48 -27 113z" />
    <glyph glyph-name="ccedilla" unicode="&#xe7;" horiz-adv-x="392" 
d="M218 -15h-6q-75 0 -125 54t-50 133q0 91 74 161t179 70q30 0 51 -9t21 -19q0 -13 -9.5 -31t-18.5 -18q-11 0 -49 19.5t-68 19.5q-60 0 -88.5 -37t-28.5 -116q0 -94 42.5 -143.5t103.5 -49.5q66 0 123 44q1 -4 0 -5q-63 -66 -142 -72l-31 -48q52 -16 77 -42.5t25 -56.5
q0 -39 -33.5 -71t-100.5 -43l-3 5q38 5 61 22.5t28.5 33t5.5 32.5q0 61 -92 88z" />
    <glyph glyph-name="egrave" unicode="&#xe8;" horiz-adv-x="417" 
d="M387 254l-279 -6q-3 -21 -3 -38q0 -96 45 -144t107 -48q70 0 129 44v-4v-1q-26 -31 -71.5 -51.5t-90.5 -20.5q-81 0 -132 54.5t-51 140.5q0 87 64 155t141 68q67 0 105.5 -40t38.5 -88q0 -11 -3 -21zM220 386q-41 0 -71 -34t-40 -94l218 6q-2 46 -31 84t-76 38zM239 463
l-153 173q-2 3 2.5 9t11 9.5t8.5 0.5l133 -191q1 -1 0 -1.5t-2 0.5z" />
    <glyph glyph-name="eacute" unicode="&#xe9;" horiz-adv-x="417" 
d="M387 254l-279 -6q-3 -21 -3 -38q0 -96 45 -144t107 -48q70 0 129 44v-4v-1q-26 -31 -71.5 -51.5t-90.5 -20.5q-81 0 -132 54.5t-51 140.5q0 87 64 155t141 68q67 0 105.5 -40t38.5 -88q0 -11 -3 -21zM220 386q-41 0 -71 -34t-40 -94l218 6q-2 46 -31 84t-76 38zM207 467
q-1 1 -2 1l134 191q2 3 8.5 -0.5t10.5 -9.5t2 -9z" />
    <glyph glyph-name="ecircumflex" unicode="&#xea;" horiz-adv-x="417" 
d="M387 254l-279 -6q-3 -21 -3 -38q0 -96 45 -144t107 -48q70 0 129 44v-4v-1q-26 -31 -71.5 -51.5t-90.5 -20.5q-81 0 -132 54.5t-51 140.5q0 87 64 155t141 68q67 0 105.5 -40t38.5 -88q0 -11 -3 -21zM220 386q-41 0 -71 -34t-40 -94l218 6q-2 46 -31 84t-76 38zM328 463
l-110 156l-106 -156l-3 -1l109 203h3l1 -1l109 -202z" />
    <glyph glyph-name="edieresis" unicode="&#xeb;" horiz-adv-x="417" 
d="M387 254l-279 -6q-3 -21 -3 -38q0 -96 45 -144t107 -48q70 0 129 44v-4v-1q-26 -31 -71.5 -51.5t-90.5 -20.5q-81 0 -132 54.5t-51 140.5q0 87 64 155t141 68q67 0 105.5 -40t38.5 -88q0 -11 -3 -21zM220 386q-41 0 -71 -34t-40 -94l218 6q-2 46 -31 84t-76 38zM312 502
q-15 0 -26 11.5t-11 26.5q0 16 11 28.5t28 12.5q15 0 26 -12t11 -27q0 -16 -11.5 -28t-27.5 -12zM139 502q-15 0 -26 11.5t-11 26.5q0 16 11 28.5t28 12.5q15 0 26 -12t11 -27q0 -16 -11 -28t-28 -12z" />
    <glyph glyph-name="igrave" unicode="&#xec;" horiz-adv-x="255" 
d="M133 0q-66 0 -105 -6q-2 1 1 5q52 6 63.5 19.5t11.5 72.5v169q0 52 -13.5 65t-52.5 -1q0 1 1 2q94 57 125 88l3 -3q-6 -31 -6 -147v-173q0 -60 11 -73t63 -19q1 0 1 -2.5t-1 -2.5q-41 6 -102 6zM142 463l-153 173q-2 3 2.5 9t11 9.5t8.5 0.5l134 -191v-1q-2 -1 -3 0z" />
    <glyph glyph-name="iacute" unicode="&#xed;" horiz-adv-x="255" 
d="M133 0q-66 0 -105 -6q-2 1 1 5q52 6 63.5 19.5t11.5 72.5v169q0 52 -13.5 65t-52.5 -1q0 1 1 2q94 57 125 88l3 -3q-6 -31 -6 -147v-173q0 -60 11 -73t63 -19q1 0 1 -2.5t-1 -2.5q-41 6 -102 6zM121 467q-1 1 -2 1l134 191q2 3 8.5 -0.5t10.5 -9.5t2 -9z" />
    <glyph glyph-name="icircumflex" unicode="&#xee;" horiz-adv-x="255" 
d="M133 0q-66 0 -105 -6q-2 1 1 5q52 6 63.5 19.5t11.5 72.5v169q0 52 -13.5 65t-52.5 -1q0 1 1 2q94 57 125 88l3 -3q-6 -31 -6 -147v-173q0 -60 11 -73t63 -19q1 0 1 -2.5t-1 -2.5q-41 6 -102 6zM234 463l-110 156l-106 -156q-3 -3 -2 -1l108 203h4l1 -1l108 -202z" />
    <glyph glyph-name="idieresis" unicode="&#xef;" horiz-adv-x="255" 
d="M133 0q-66 0 -105 -6q-2 1 1 5q52 6 63.5 19.5t11.5 72.5v169q0 52 -13.5 65t-52.5 -1q0 1 1 2q94 57 125 88l3 -3q-6 -31 -6 -147v-173q0 -60 11 -73t63 -19q1 0 1 -2.5t-1 -2.5q-41 6 -102 6zM215 502q-15 0 -26 11.5t-11 26.5q0 16 11 28.5t28 12.5q15 0 26 -12
t11 -27q0 -16 -11.5 -28t-27.5 -12zM42 502q-15 0 -26 11.5t-11 26.5q0 16 11 28.5t28 12.5q15 0 26 -12t11 -27q0 -16 -11 -28t-28 -12z" />
    <glyph glyph-name="eth" unicode="&#xf0;" horiz-adv-x="472" 
d="M318 25q-52 -40 -115 -40q-67 0 -116.5 54t-49.5 132q0 90 66 156.5t162 66.5q31 0 89 -8q-24 79 -57 121l-79 -48q-5 -1 -10 8.5t-1 11.5l75 48q-58 60 -139 60q-15 0 -44.5 -10t-42.5 -22q-3 -1 0 3q18 29 55 48t71 19q83 0 151 -65l58 39q3 2 6 -2t4.5 -9.5t0.5 -8.5
l-55 -35q85 -103 85 -250q0 -98 -26.5 -160.5t-87.5 -108.5zM365 321q-63 48 -145 48q-57 0 -89.5 -41.5t-32.5 -123.5q0 -87 46.5 -135t106.5 -48q52 0 86 57t34 177q0 22 -6 66z" />
    <glyph glyph-name="ntilde" unicode="&#xf1;" horiz-adv-x="515" 
d="M409 0q-56 0 -98 -6q-3 0 1 6q43 4 55 19t12 72v150q0 70 -16.5 99.5t-60.5 29.5q-25 0 -52 -11t-82 -45v-223q0 -55 11.5 -71t54.5 -20l2 -6h-1q-42 6 -93 6q-71 0 -113 -6v6q55 5 67.5 18.5t12.5 72.5v168q0 53 -14 66t-55 -1q-1 0 -1 1.5t1 1.5q59 32 120 87q1 1 2 -1
t1 -3q1 -8 2 -22.5t2 -35t2 -30.5q114 81 177 81q92 0 92 -118v-194q0 -58 12 -72.5t66 -18.5q2 0 1 -6q-42 6 -108 6zM331 500q-22 0 -70 19.5t-77 19.5q-52 0 -64 -71l-4 2l-1 1q4 45 28 70t61 25q21 0 68.5 -18t70.5 -18q24 0 39 13t22 49q5 0 5 -2q-4 -41 -24 -65.5
t-54 -24.5z" />
    <glyph glyph-name="ograve" unicode="&#xf2;" horiz-adv-x="487" 
d="M242 -15q-89 0 -145 60t-56 142q0 88 58.5 152t153.5 64q89 0 145.5 -60t56.5 -142q0 -87 -59 -151.5t-154 -64.5zM231 388q-59 0 -92 -46.5t-33 -114.5q0 -105 43 -165.5t115 -60.5q59 0 92 46t33 114q0 105 -43.5 166t-114.5 61zM242 463l-153 173q-2 3 3 9t11 9.5
t8 0.5l134 -191v-1q-2 -1 -3 0z" />
    <glyph glyph-name="oacute" unicode="&#xf3;" horiz-adv-x="487" 
d="M242 -15q-89 0 -145 60t-56 142q0 88 58.5 152t153.5 64q89 0 145.5 -60t56.5 -142q0 -87 -59 -151.5t-154 -64.5zM231 388q-59 0 -92 -46.5t-33 -114.5q0 -105 43 -165.5t115 -60.5q59 0 92 46t33 114q0 105 -43.5 166t-114.5 61zM210 467q-1 1 -2 1l134 191
q2 3 8.5 -0.5t10.5 -9.5t2 -9z" />
    <glyph glyph-name="ocircumflex" unicode="&#xf4;" horiz-adv-x="487" 
d="M242 -15q-89 0 -145 60t-56 142q0 88 58.5 152t153.5 64q89 0 145.5 -60t56.5 -142q0 -87 -59 -151.5t-154 -64.5zM231 388q-59 0 -92 -46.5t-33 -114.5q0 -105 43 -165.5t115 -60.5q59 0 92 46t33 114q0 105 -43.5 166t-114.5 61zM354 463l-110 156l-106 -156l-3 -1
l109 203h3l1 -1l109 -202z" />
    <glyph glyph-name="otilde" unicode="&#xf5;" horiz-adv-x="487" 
d="M242 -15q-89 0 -145 60t-56 142q0 88 58.5 152t153.5 64q89 0 145.5 -60t56.5 -142q0 -87 -59 -151.5t-154 -64.5zM231 388q-59 0 -92 -46.5t-33 -114.5q0 -105 43 -165.5t115 -60.5q59 0 92 46t33 114q0 105 -43.5 166t-114.5 61zM304 500q-22 0 -70 19.5t-77 19.5
q-50 0 -64 -71q-1 -1 -4 3q4 45 27.5 70t61.5 25q21 0 68.5 -18t70.5 -18q24 0 39 13t21 49q5 0 5 -2q-4 -41 -23.5 -65.5t-54.5 -24.5z" />
    <glyph glyph-name="odieresis" unicode="&#xf6;" horiz-adv-x="487" 
d="M242 -15q-89 0 -145 60t-56 142q0 88 58.5 152t153.5 64q89 0 145.5 -60t56.5 -142q0 -87 -59 -151.5t-154 -64.5zM231 388q-59 0 -92 -46.5t-33 -114.5q0 -105 43 -165.5t115 -60.5q59 0 92 46t33 114q0 105 -43.5 166t-114.5 61zM329 502q-15 0 -26 11.5t-11 26.5
q0 16 11 28.5t28 12.5q15 0 26 -12t11 -27q0 -16 -11.5 -28t-27.5 -12zM156 502q-15 0 -26 11.5t-11 26.5q0 16 11 28.5t28 12.5q15 0 26 -12t11 -27q0 -16 -11 -28t-28 -12z" />
    <glyph glyph-name="oslash" unicode="&#xf8;" horiz-adv-x="487" 
d="M111 28q-74 61 -74 159q0 88 58.5 152t153.5 64q68 0 119 -37l41 53q2 1 4 -3l-41 -53q37 -28 58 -71t21 -91q0 -87 -59 -151.5t-154 -64.5q-70 0 -123 40l-43 -56q-2 -1 -4 3zM141 68l199 261q-41 59 -113 59q-59 0 -92 -46.5t-33 -114.5q0 -100 39 -159zM343 325
l-199 -262q43 -62 116 -62q59 0 92 46t33 114q0 103 -42 164z" />
    <glyph glyph-name="ugrave" unicode="&#xf9;" horiz-adv-x="488" 
d="M372 -17q-23 0 -23 95q-91 -93 -163 -93q-47 0 -75.5 30t-27.5 88l3 190q1 43 -9.5 54t-57.5 12l-2 2q67 13 121 44q5 -3 5 -5q3 -27 3 -96l-2 -157q-1 -74 16.5 -100.5t64.5 -26.5q49 0 122 64l4 214q1 43 -9 54t-57 14q-1 1 -3 2q68 12 122 41q4 0 4 -6q3 -27 3 -99
l-2 -228q0 -39 17.5 -47.5t66.5 5.5q1 -1 1 -2.5t-1 -1.5q-29 -16 -67.5 -31.5t-53.5 -15.5zM258 463l-153 173q-2 3 2.5 9t11 9.5t8.5 0.5l134 -191v-1q-2 -1 -3 0z" />
    <glyph glyph-name="uacute" unicode="&#xfa;" horiz-adv-x="488" 
d="M372 -17q-23 0 -23 95q-91 -93 -163 -93q-47 0 -75.5 30t-27.5 88l3 190q1 43 -9.5 54t-57.5 12l-2 2q67 13 121 44q5 -3 5 -5q3 -27 3 -96l-2 -157q-1 -74 16.5 -100.5t64.5 -26.5q49 0 122 64l4 214q1 43 -9 54t-57 14q-1 1 -3 2q68 12 122 41q4 0 4 -6q3 -27 3 -99
l-2 -228q0 -39 17.5 -47.5t66.5 5.5q1 -1 1 -2.5t-1 -1.5q-29 -16 -67.5 -31.5t-53.5 -15.5zM205 467q-1 1 -2 1l134 191q2 3 8.5 -0.5t10.5 -9.5t2 -9z" />
    <glyph glyph-name="ucircumflex" unicode="&#xfb;" horiz-adv-x="488" 
d="M372 -17q-23 0 -23 95q-91 -93 -163 -93q-47 0 -75.5 30t-27.5 88l3 190q1 43 -9.5 54t-57.5 12l-2 2q67 13 121 44q5 -3 5 -5q3 -27 3 -96l-2 -157q-1 -74 16.5 -100.5t64.5 -26.5q49 0 122 64l4 214q1 43 -9 54t-57 14q-1 1 -3 2q68 12 122 41q4 0 4 -6q3 -27 3 -99
l-2 -228q0 -39 17.5 -47.5t66.5 5.5q1 -1 1 -2.5t-1 -1.5q-29 -16 -67.5 -31.5t-53.5 -15.5zM351 463l-111 156l-105 -156l-3 -1l108 203h4l1 -1l108 -202q1 -2 -2 1z" />
    <glyph glyph-name="udieresis" unicode="&#xfc;" horiz-adv-x="488" 
d="M372 -17q-23 0 -23 95q-91 -93 -163 -93q-47 0 -75.5 30t-27.5 88l3 190q1 43 -9.5 54t-57.5 12l-2 2q67 13 121 44q5 -3 5 -5q3 -27 3 -96l-2 -157q-1 -74 16.5 -100.5t64.5 -26.5q49 0 122 64l4 214q1 43 -9 54t-57 14q-1 1 -3 2q68 12 122 41q4 0 4 -6q3 -27 3 -99
l-2 -228q0 -39 17.5 -47.5t66.5 5.5q1 -1 1 -2.5t-1 -1.5q-29 -16 -67.5 -31.5t-53.5 -15.5zM319 502q-15 0 -26 11.5t-11 26.5q0 16 11 28.5t28 12.5q15 0 26 -12t11 -27q0 -16 -11.5 -28t-27.5 -12zM146 502q-15 0 -26 11.5t-11 26.5q0 16 11.5 28.5t27.5 12.5
q15 0 26 -12t11 -27q0 -16 -11 -28t-28 -12z" />
    <glyph glyph-name="yacute" unicode="&#xfd;" horiz-adv-x="407" 
d="M337 301q0 -1 -34.5 -82.5t-60.5 -147.5t-55 -162t-37 -164q-9 -1 -33 -1h-32q-38 -1 -63 -6q-1 0 -0.5 2.5t1.5 3.5q33 5 63 29q43 33 82 139l26 72l-109 317q-17 52 -38.5 70t-62.5 21q-1 0 -1 2t1 2q28 -4 102 -4q60 0 97 4v-4q-43 -5 -50 -21t11 -72l80 -242l96 242
q20 54 12.5 71t-51.5 22q-1 1 -1 4q37 -4 81 -4q50 0 78 4v-4q-42 -3 -62.5 -22t-39.5 -69zM201 467q-1 1 -2 1l134 191q2 3 8.5 -0.5t10.5 -9.5t2 -9z" />
    <glyph glyph-name="thorn" unicode="&#xfe;" horiz-adv-x="484" 
d="M207 -15q99 0 170.5 71.5t71.5 155.5q0 74 -48.5 128t-118.5 54q-68 0 -145 -66v249q0 116 7 144l-4 3q-31 -29 -131 -84l-2 -3q41 14 55.5 1t14.5 -65l-1 -485l-31 -49q6 -3 16.5 -9.5t14.5 -8.5l1 -186q0 -61 -9.5 -74t-58.5 -20q-2 -1 -1 -5q37 6 103 8q59 4 131 -1
q1 0 1 3t-1 3q-72 2 -88.5 15.5t-16.5 72.5v158q34 -10 70 -10zM240 354q-45 0 -103 -34v-267q66 -37 128 -37q53 0 85.5 46.5t32.5 127.5q0 77 -42.5 120.5t-100.5 43.5z" />
    <glyph glyph-name="ydieresis" unicode="&#xff;" horiz-adv-x="407" 
d="M341 301q0 -1 -34.5 -82.5t-60.5 -147.5t-55 -162t-37 -164q-8 -1 -32.5 -1h-32.5q-38 -1 -63 -6q-1 0 -0.5 2.5t1.5 3.5q33 5 63 29q43 33 82 139l26 72l-109 317q-17 52 -38.5 70t-62.5 21q-1 0 -1 2t1 2q28 -4 102 -4q60 0 97 4v-4q-43 -5 -50 -21t11 -72l80 -242
l96 242q20 54 12.5 71t-51.5 22q-1 1 -1 4q37 -4 81 -4q50 0 78 4v-4q-42 -3 -62.5 -22t-39.5 -69zM312 502q-15 0 -26 11.5t-11 26.5q0 16 11 28.5t28 12.5q15 0 26 -12t11 -27q0 -16 -11.5 -28t-27.5 -12zM139 502q-15 0 -26 11.5t-11 26.5q0 16 11 28.5t28 12.5
q15 0 26 -12t11 -27q0 -16 -11 -28t-28 -12z" />
    <glyph glyph-name="Lslash" horiz-adv-x="559" 
d="M164 308l-75 -17q-7 0 -7 6q1 3 4 4l78 19v143v67t-5 44t-8.5 28.5t-18.5 14.5t-25.5 8.5t-39.5 4.5q-2 1 -1 4q59 -7 144 -7q68 0 121 7q2 -1 1 -4q-20 -2 -31.5 -3t-24 -5.5t-17.5 -7.5t-11 -14t-7.5 -19t-3.5 -29.5t-2 -37.5v-51v-126l97 23q5 1 6 -4t-3 -7l-100 -24
v0v0v-1v0v-1v0v-1v0v-1v-1v-1v-1v-1v-1v-1v-1v-1v-1v-1v-1v-1v-1v-1v-1v-1v-1v-1v-1v-1v-1v-1v-1v-1v-1v-1v-1v-1v-1v-2v-1v-1v-1v-1v-1v-1v-2v-1v-1v-1v-2v-1v-1v-1v-2v-1v-1v-2v-1v-1v-2v-1v-1v-2v-1v-2v-1v-1v-2v-1v-2v-1v-2v-1v-2v-1v-2v-1v-2v-1v-2v-1v-2v-1v-2v-2v-1
v-2v-1v-2v-2v-1v-2v-2v-1v-2v-2v-1v-2v-2v-1v-2v-2v-2v-1v-2v-2v-2v-1v-2v-2v-2v-1v-2v-2v-2v-2v-1v-10q0 -66 5.5 -95t17.5 -38t41 -9h55q80 0 113.5 6.5t43 18.5t17.5 46q5 1 5 0q-6 -55 -14 -82q-3 -10 -7 -13t-14 -3q-14 0 -67 3t-94 3q-165 0 -280 -8q-3 0 1 6
q67 7 81 16q21 14 24 71q1 22 1 78v0v0v1v0v1v0v1v1v1v1v1v1v1v1v1v1v1v1v1v1v1v1v1v1v1v1v1v1v1v1v1v1v1v1v1v1v1v2v1v1v1v1v2v1v1v1v2v1v1v2v1v1v2v1v1v2v1v2v1v1v2v1v2v1v2v1v2v1v2v1v2v1v2v2v1v2v1v2v2v1v2v2v1v2v2v1v2v2v1v2v2v2v1v2v2v2v2v1v2v2v2v2v1v2v9z" />
    <glyph glyph-name="lslash" horiz-adv-x="242" 
d="M151 376l97 23q3 0 4.5 -2.5t1 -5.5t-2.5 -3l-100 -24v0v0v0v-1v0v0v-1v0v-1v0v-1v-1v0v-1v-1v-1v-1v-1v-1v-1v-1v-1v-1v-1v-1v-1v-1v-1v-1v-1v-1v-1v-1v-1v-1v-1v-1v-1v-1v-1v-1v-1v-1v-1v-1v-1v-1v-1v-1v-1v-1v-1v-1v-1v-1v-1v-1v-2v-1v-1v-1v-1v-1v-1v-1v-1v-1v-2v-1
v-1v-1v-1v-1v-2v-1v-1v-1v-1v-2v-1v-1v-1v-2v-1v-1v-1v-2v-1v-1v-1v-2v-1v-1v-2v-1v-1v-2v-1v-1v-2v-1v-1v-2v-1v-2v-1v-1v-2v-1v-2v-1v-1v-2v-1v-2v-1v-2v-1v-2v-1v-1v-2v-1v-2v-1v-2v-1v-2v-1v-2v-2v-1v-2v-1v-2v-1v-2v-1v-2v-2v-1v-2v-1v-2v-2v-1v-2v-1v-2v-2v-1v-2v-2
v-1v-2v-1v-2v-2v-1v-2v-2v-2v-1v-2v-2v-1v-2v-2v-1v-2v-2v-2v-1v-2v-2v-2v-1v-2v-2v-2v-1v-2v-2v-2v-2v-1v-2v-2v-2v-2v-2v-1v-2v-2v-2v-2v-2v-1v-2v-2v-9q0 -60 12 -73t66 -19q1 0 1 -2.5t-1 -2.5q-42 6 -110 6q-66 0 -108 -6q-2 1 1 5q55 6 67 19.5t12 72.5v259l-86 -20
q-2 0 -3.5 2t-1.5 5t3 3l88 21v212q0 52 -14.5 65t-55.5 -1q1 3 2 3q100 55 131 84l4 -3q-7 -28 -7 -144v-201z" />
    <glyph glyph-name="lessequal" horiz-adv-x="827" 
d="M485 -12q67 -64 136.5 -102.5t124.5 -38.5q60 0 107 21l-1 -5l-1 -1q-69 -43 -153 -43q-68 0 -138 38t-162 122q-145 2 -239.5 98.5t-94.5 225.5q0 134 103 239t255 105q148 0 245 -96.5t97 -226.5q0 -115 -78 -212t-201 -124zM400 631q-116 0 -189 -79.5t-73 -215.5
q0 -159 86.5 -250t202.5 -91t189.5 79.5t73.5 215.5q0 81 -25 147.5t-66.5 107.5t-93 63.5t-105.5 22.5z" />
    <glyph glyph-name="summation" horiz-adv-x="840" 
d="M598 253l-54 -80q121 -164 192 -164q33 0 64 17q-1 -1 2 -4q-53 -45 -114 -45q-82 0 -184 142q-56 -67 -108 -103.5t-119 -36.5q-28 0 -59.5 11t-62.5 31.5t-51 57t-20 80.5q0 65 47.5 118t135.5 87q-91 76 -91 142q0 62 39.5 101.5t111.5 39.5q56 0 97 -33.5t41 -83.5
q0 -81 -129 -138q83 -75 201 -212q85 115 85 177q0 35 -89 42v4l1 1q55 -8 143 -8q70 0 130 8q1 0 1 -2.5t-1 -2.5q-65 -3 -107 -30.5t-102 -115.5zM318 633q-42 0 -63.5 -24.5t-21.5 -67.5q0 -62 97 -141q81 48 81 128q0 46 -26 75.5t-67 29.5zM275 354q-55 -19 -90 -61.5
t-35 -93.5q0 -71 49 -119.5t123 -48.5q55 0 95 23t80 72q-97 113 -222 228z" />
    <glyph glyph-name="product" horiz-adv-x="689" 
d="M625 591q-7 0 -82 5.5t-111 5.5h-41v-439v-64.5t4 -42.5t8 -29.5t17 -15t26.5 -10t40.5 -3.5q1 0 1 -3t-1 -3q-60 8 -121 8q-88 0 -144 -8q-1 0 -1 3t1 3q21 2 25.5 2.5t19.5 3.5t17 4t11.5 7t10 10t6 14.5t5 20t1.5 26.5t2 34v43v439h-116q-67 0 -107 -9t-54.5 -19.5
t-34.5 -34.5q-2 -1 -5 2q16 20 56.5 56.5t46.5 36.5q7 0 82 -5.5t111 -5.5h228q54 0 87 3t54.5 13t29 16.5t26.5 26.5q2 0 3 -4q-16 -19 -56 -53t-46 -34z" />
    <glyph glyph-name="pi" horiz-adv-x="675" 
d="M337 -15q-117 0 -200 83.5t-83 200.5q0 118 83 201.5t200 83.5q118 0 201.5 -83.5t83.5 -201.5q0 -117 -83.5 -200.5t-201.5 -83.5zM337 548q-115 0 -196 -81.5t-81 -197.5q0 -115 81 -196.5t196 -81.5t197 81.5t82 196.5t-82 197t-197 82zM353 259h-8v2q67 3 67 69
q0 67 -61 67q-5 0 -20 -3q-5 -22 -5 -60v-122q0 -42 7.5 -54.5t38.5 -14.5v-2q-21 3 -60 3q-44 0 -69 -3l-1 2q31 3 39 14.5t8 54.5v120q0 43 -8 55t-39 15q-1 2 0 2q26 -3 63 -3q4 0 24 1t28 1q40 0 67.5 -18t27.5 -48q0 -33 -27 -55t-72 -23z" />
    <glyph glyph-name="Omega" horiz-adv-x="553" 
d="M621 631q-11 0 -47 21t-60 21q-54 0 -73.5 -46.5t-19.5 -176.5v-65h57q67 0 83 4q2 0 2.5 -7.5t-0.5 -15t-3 -7.5q-33 3 -69 3h-70v-271q0 -56 18 -72.5t86 -19.5q1 0 1 -2.5t-1 -2.5q-42 6 -133 6q-51 0 -93 -6v5q43 5 53 19t10 73v271h-190v-271q0 -57 13 -73t74 -19
q1 0 1 -2.5t-1 -2.5q-42 6 -113 6q-72 0 -114 -6q-2 1 1 5q55 6 67 19.5t12 72.5v271q-15 0 -48.5 0.5t-36.5 0.5q-1 0 -2 2.5t-1 4.5v3q52 4 87 15l1 20q7 124 73.5 212t154.5 88q52 0 104 -48q61 59 135 59q26 0 50.5 -12.5t24.5 -22.5q0 -14 -12 -33.5t-21 -19.5z
M290 669q-118 0 -118 -242v-42h190v46q0 104 46 182q-50 56 -118 56z" />
    <glyph glyph-name="radical" horiz-adv-x="786" 
d="M664 0q-54 0 -96 -6v5q49 6 59 19.5t10 72.5v271h-216v-271q0 -56 15.5 -72.5t77.5 -19.5q1 0 1 -2.5t-1 -2.5q-42 6 -130 6q-43 0 -85 -6v5q43 5 53 19t10 73v271h-190v-271q0 -57 13 -73t74 -19q1 0 1 -2.5t-1 -2.5q-42 6 -113 6q-72 0 -114 -6q-2 1 1 5q55 6 67 19.5
t12 72.5v271q-15 0 -49 0.5t-37 0.5q-1 0 -1.5 2.5t-0.5 4.5v3q59 5 87 15l1 20q7 124 73.5 212t154.5 88q61 0 112 -54q66 65 137 65q45 0 76 -24q24 17 34 29q4 0 4 -2q-7 -27 -7 -145v-486q0 -60 12 -73t66 -19q1 0 1 -2.5t-1 -2.5q-42 6 -110 6zM636 627
q-14 21 -41.5 35t-58.5 14q-57 0 -86 -53t-29 -184v-54h216zM290 669q-57 0 -87.5 -55.5t-30.5 -186.5v-42h190v34q0 104 54 188q-31 33 -59.5 47.5t-66.5 14.5z" />
    <glyph glyph-name="approxequal" horiz-adv-x="787" 
d="M664 0q-54 0 -96 -6q-1 0 -1 2.5t1 2.5q48 6 58 19t10 73v199q0 39 -7.5 55.5t-26.5 16.5h-181v-271q0 -56 18 -72.5t86 -19.5q1 0 1 -2.5t-1 -2.5q-42 6 -130 6q-55 0 -97 -6q-2 1 1 5q43 5 53 19t10 73v271h-190v-271q0 -57 13 -73t74 -19q1 0 1 -2.5t-1 -2.5
q-42 6 -113 6q-72 0 -114 -6q-2 1 1 5q55 6 67 19.5t12 72.5v271q-15 0 -49 0.5t-37 0.5q-1 0 -1.5 2.5t-0.5 4.5v3q52 5 87 15l1 20q7 124 73.5 212t154.5 88q62 0 115 -61q74 72 157 72q27 0 51.5 -12.5t24.5 -22.5q0 -17 -12.5 -36.5t-23.5 -19.5q-10 0 -46.5 21
t-60.5 21q-124 0 -124 -231v-54h192q58 0 86 26q1 1 4 -3q-7 -28 -7 -144v-173q0 -60 10.5 -73t64.5 -19q1 0 1 -2.5t-1 -2.5q-42 6 -107 6zM290 669q-57 0 -87.5 -55.5t-30.5 -186.5v-42h190v34q0 101 56 183q-59 67 -128 67z" />
    <glyph glyph-name="lozenge" horiz-adv-x="651" 
d="M519 -15q-45 0 -65.5 22.5t-19.5 69.5l3 279q-64 0 -74 -1q-2 1 -1 5q79 29 106 63t27 73q0 58 -44.5 98t-113.5 40q-70 0 -111.5 -44.5t-41.5 -109.5q0 -40 28 -77q33 -3 63 -17q8 -6 8 -97q-1 -2 -5 1q-13 45 -44 74t-64 29q-29 0 -44.5 -19t-15.5 -51
q0 -25 19.5 -45.5t48 -35.5t56.5 -31t47.5 -42t19.5 -59q0 -51 -39.5 -88t-101.5 -37q-64 0 -112 29q-2 2 -5 108l5 1q35 -126 130 -126q74 0 74 76q0 32 -30 59t-66 44t-66 47.5t-30 68.5q0 46 36.5 78.5t102.5 32.5q-30 41 -30 97q0 70 49.5 129t120.5 59q78 0 123 -59
t45 -148q0 -10 -3.5 -50.5t-3.5 -52.5h56q72 0 88 4q2 -1 2 -7.5t-2 -14.5t-4 -8q-44 4 -71 4h-70l-2 -256q0 -35 15.5 -57t43.5 -22q41 0 90 16q1 0 -1 -4q-30 -23 -66 -35.5t-60 -12.5z" />
    <glyph glyph-name="fraction" horiz-adv-x="527" 
d="M32 -37q-2 -1 -5 3l468 697q2 1 5 -3z" />
    <glyph glyph-name="fi" horiz-adv-x="536" 
d="M414 0q-54 0 -96 -6v5q49 6 59 19.5t10 72.5v199q0 72 -35 72h-181v-271q0 -56 15.5 -72.5t77.5 -19.5q1 0 1 -2.5t-1 -2.5q-42 6 -119 6q-71 0 -113 -6q-2 1 1 5q55 6 67 19.5t12 72.5v271q-16 0 -49.5 0.5t-36.5 0.5q-1 0 -1.5 2.5t-0.5 4.5v3q65 6 87 15l1 31
q4 122 81.5 211t168.5 89q27 0 51.5 -12.5t24.5 -22.5q0 -17 -12.5 -36.5t-23.5 -19.5q-10 0 -46 21t-61 21q-124 0 -124 -231v-54h192q58 0 86 26q1 1 2.5 0t1.5 -2q-7 -27 -7 -145v-173q0 -60 12 -73t66 -19q1 0 1 -2.5t-1 -2.5q-42 6 -110 6z" />
    <glyph glyph-name="fl" horiz-adv-x="536" 
d="M414 0q-54 0 -96 -6v5q49 6 59 19.5t10 72.5v271h-216v-271q0 -56 15.5 -72.5t77.5 -19.5q1 0 1 -2.5t-1 -2.5q-42 6 -119 6q-71 0 -113 -6q-2 1 1 5q55 6 67 19.5t12 72.5v271q-16 0 -49.5 0.5t-36.5 0.5q-1 0 -1.5 2.5t-0.5 4.5v3q52 5 87 15l1 31q4 124 71.5 212
t155.5 88q45 0 76 -24q24 17 34 29q4 0 4 -2q-7 -27 -7 -145v-486q0 -60 12 -73t66 -19q1 0 1 -2.5t-1 -2.5q-42 6 -110 6zM386 627q-14 21 -41.5 35t-58.5 14q-57 0 -86 -53t-29 -184v-54h216z" />
    <glyph glyph-name="apple" horiz-adv-x="967" 
d="M867 0h-767v750h767v-750zM858 -104h-6v2q-1 3 -1 4l-2 13q-9 -17 -10 -20h-2l-10 20l-2 -13q0 -5 -1 -6h-6q2 6 2 11l2 11q0 1 1 5.5t1 6.5h1q3 -6 3 -7l10 -18l10 18q3 6 3 7h1q2 -6 2 -12l2 -11q0 -2 1 -5.5t1 -5.5zM805 -87q0 -18 -17 -18q-7 0 -12 5t-5 12
q0 18 18 18q7 0 11.5 -5t4.5 -12zM757 -96l-1 -6q-3 -3 -10 -3q-18 0 -18 17q0 8 5 13t13 5q6 0 11 -3l-2 -5q-3 3 -9 3q-11 0 -11 -12q0 -13 12 -13q4 0 10 4zM701 -71l-13 -19v-7v-7h-7v11v3l-5 8q-1 1 -4 5.5t-4 5.5l7 1l10 -15l2 4q1 2 3.5 5.5t3.5 4.5h7zM655 -104h-7
q1 2 1 11v4h-16v-8v-7h-7q1 2 1 11v11q0 9 -1 11h7v-7v-6h16v2q0 9 -1 11h7v-7v-19v-7zM612 -81q0 -12 -15 -12h-3v-4v-7h-7q1 2 1 11v11q0 9 -1 11q1 0 5 0.5t6 0.5q14 0 14 -11zM574 -104h-6l-4 8h-14v-1q-2 -4 -3 -7h-7l12 24q2 4 4 10h2l11 -24q3 -5 5 -10zM533 -104h-7
l-8 13h-5v-6v-7h-7v11v11v11h10q14 0 14 -9q0 -6 -7 -10l5 -7q0 -1 2 -3.5t3 -3.5zM490 -101q-6 -4 -13 -4q-18 0 -18 17q0 8 5.5 13t13.5 5q5 0 11 -4l-2 -5q-4 4 -10 4q-11 0 -11 -13q0 -12 12 -12q2 0 6 2v4v3h-3h-6v5h7h8v-11v-4zM446 -87q0 -18 -17 -18q-7 0 -12 5
t-5 12q0 18 18 18q7 0 11.5 -5t4.5 -12zM400 -81q0 -12 -15 -12h-3v-4q0 -6 1 -7h-7v11v11v11l4 1h6q14 0 14 -11zM363 -71l-13 -19v-7v-7h-7v11v3l-5 8q-6 9 -8 11l7 1l10 -15l2 4q1 2 3.5 5t3.5 5h7zM322 -70q-1 -2 -1 -6h-11v-3v-18v-7h-7q1 2 1 11v10v7h-12v6
q5 -1 15 -1t15 1zM266 -71l-9 -24l-2.5 -5t-1.5 -4l-1 -1l-9 22l-6 -12q-2 -4 -4 -10h-1l-9 25q-1 1 -2 4t-2 5l7 1l7 -22l6 13l1 4q2 4 2 5h1l9 -22l5 12l3 9h6zM210 -71l-9 -24q-3 -6 -3 -9l-2 -1l-9 22l-6 -12q-2 -4 -4 -10h-1l-9 25q-2 6 -4 9l7 1l7 -22l6 13l1 4
q2 4 2 5h2l9 -22l4 12l3 9h6zM155 -71l-10 -24q-1 -6 -3 -9l-1 -1l-10 22l-5 -12l-5 -10h-1l-9 25l-3 9l6 1l8 -22l5 13l1 2l2 4t1 3h1l9 -22l4 12l3 9h7zM715 -101q0 -4 -4 -4t-4 4t4 4t4 -4zM280 -101q0 -4 -4 -4q-3 0 -3 4t4 4q3 0 3 -4zM559 686q-1 2 -2 6t-2 6
q-2 -1 -15 -1t-16 1q0 -2 -2 -12h1h1q3 9 9 9q3 0 3 -3v-22q0 -5 -5 -6q-1 0 -1 -1t1 -1h9h8q1 0 1 1t-1 1q-5 1 -5 6v22q0 3 3 3q8 0 11 -9h2zM503 662v1v1q-6 1 -6 6v19q0 6 6 6v1v1h-9h-9v-1v-1q5 0 5 -6v-8h-17v8q0 6 5 6v1v1h-9h-8q-1 0 -1 -1t1 -1q5 0 5 -6v-19
q0 -5 -5 -6q-1 0 -1 -1t1 -1h8h9v1v1q-5 1 -5 6v9h17v-9q0 -5 -5 -6v-1v-1h9h9zM439 663l-1 1q-5 1 -5 6v19q0 6 5 6q1 0 1 1l-1 1h-16h-12q0 -6 -2 -10q1 -1 2 -1v1q3 8 9 8h3q4 0 4 -4v-10h-4q-6 0 -6 5q0 1 -1 1t-1 -1v-6v-6q0 -1 1 -1l1 1q0 6 6 6h4v-12q0 -3 -4 -3h-3
q-7 0 -12 9l-1 -1q0 -2 1.5 -5.5t2.5 -5.5h12h16q1 0 1 1zM826 619v4h-685v-4h685zM694 540q0 15 -11 26.5t-25 11.5q-8 0 -15 -5.5t-7 -16.5q0 -15 11 -26.5t25 -11.5q8 0 15 5.5t7 16.5zM587 536q0 11 -13 18q4 4 4 9t-6 10t-14 5q-13 0 -13 -12q0 -6 5 -6q4 0 4 3
q0 2 -1.5 3.5t-1.5 2.5q0 6 7 6q10 0 10 -12q0 -4 -2 -6h-8q-8 0 -8 -6t8 -6q6 0 11 5q6 -4 6 -15q0 -14 -12 -14t-12 9q0 3 3 3l2 -1q1 -1 3 -1q4 0 4 5t-7 5q-9 0 -9 -10q0 -13 16 -13q24 0 24 18zM292 536q0 12 -13 18q4 4 4 9t-6 10t-14 5q-5 0 -9 -3.5t-4 -8.5
q0 -6 5 -6t5 3q0 2 -1.5 3.5t-1.5 2.5q0 6 6 6q10 0 10 -12q0 -2 -1 -4v-2h-9q-7 0 -7 -6t7 -6t12 5q6 -6 6 -15q0 -14 -12 -14t-12 9q0 3 2 3l1 -1q2 -1 4 -1q5 0 5 5t-8 5q-9 0 -9 -10q0 -13 17 -13q23 0 23 18zM820 520q0 2 -2 2q-8 2 -9 9l-8 33q-1 1 -1 4q0 4 8 5
q1 0 1 1q0 2 -2 2q-3 0 -7 -0.5t-7 -0.5t-7 0.5t-6 0.5v-1q0 -2 1 -2q6 -1 9 -9l3 -14h-25l-4 14v4q0 4 7 5v1q0 2 -1 2q-3 0 -7 -0.5t-7 -0.5q-2 0 -6 0.5t-7 0.5v-1v-2q8 -1 11 -9l7 -33q1 -1 1 -4q0 -4 -8 -5v-1q0 -2 1 -2q3 0 7.5 0.5t7.5 0.5t6.5 -0.5t5.5 -0.5v1v2
q-9 2 -9 9l-4 15h25l3 -15q1 -1 1 -4q0 -4 -7 -5v-1q0 -2 1 -2q3 0 7 0.5t7 0.5t7 -0.5t6 -0.5q1 0 1 1zM497 519v1q0 2 -1 2q-7 2 -10 9l-7 33q-1 1 -1 4q0 4 7 5q1 0 1 1l-1 2q-2 0 -12 -0.5t-13 -0.5t-10 0.5t-10 0.5q1 -2 1 -7q0 -1 -0.5 -4.5t-0.5 -5.5q0 -1 2 -1
q1 0 1 1q1 13 14 13h4q5 0 6 -6l3 -16h-4q-9 0 -12 9q0 1 -2 1q-1 0 -1 -1q1 -2 2 -5.5t1 -5.5q1 -2 1.5 -6t0.5 -6h2h1q-1 11 8 11h5l3 -16q1 -1 1 -4q0 -4 -8 -5q-1 0 -1 -1q1 -2 2 -2q3 0 7 0.5t7 0.5t7 -0.5t7 -0.5zM203 520l-1 2q-8 2 -11 9l-7 33q-1 1 -1 4q0 4 8 5v1
v2q-3 0 -7 -0.5t-6 -0.5t-6.5 0.5t-7.5 0.5q-20 0 -20 -13t19 -17l-8 -16q-5 -8 -14 -9q-1 0 -1 -2q0 -1 2 -1t8 0.5t10 0.5l12 23q1 3 5 3l4 -14v-4q0 -4 -8 -5v-1q0 -2 1 -2q2 0 7 0.5t8 0.5t7 -0.5t6 -0.5q1 0 1 1zM399 521q0 8 -13 9q-3 4 -5 17t-7.5 22t-16.5 9
q-5 0 -9 -3.5t-4 -6.5q0 -5 5 -5q4 0 4 6t5 6q6 0 7.5 -7.5t3.5 -19t8 -18.5q-8 0 -12.5 -6.5t-8.5 -6.5q-5 0 -5 4q0 2 1 3t1 2q0 4 -5 4t-5 -6q0 -11 13 -11q10 0 16 6t11 6q5 -7 12 -7q4 0 4 3zM826 476v4h-685v-4h685zM825 378v62h-147v-62h36v28h11v-65h-14v-33h81v33
h-14v65h11v-28h36zM644 406v34h-81v-34h11l-15 -23l-15 23h10v34h-62v-34h12l37 -46v-19h-14v-33h81v33h-15v20l37 45h14zM455 308v33h-14v65h14v34h-96q-21 0 -34 -11.5t-13 -28.5q0 -18 13 -29t34 -11h30v-19h-15v-33h81zM277 308v33h-14v65h14v34h-141v-62h41v28h33v-20
h-24v-24h24v-21h-33v28h-41v-61h141zM826 272v4h-685v-4h685zM725 192q0 15 -11 26.5t-25 11.5q-8 0 -14.5 -5.5t-6.5 -16.5q0 -15 11 -26.5t24 -11.5q8 0 15 5.5t7 16.5zM413 171v2q0 2 -1 2q-9 1 -10 9l-8 32v4q0 4 7 5v1v2h-15q-3 0 -8 0.5t-7 0.5q-10 0 -17.5 -6
t-7.5 -17q0 -15 10.5 -24.5t24.5 -9.5h15q13 0 17 -1zM202 215q2 2 0 2q-7 13 -18 13q-14 0 -14 -18v-5q-7 23 -24 23q-9 0 -9 -12v-1h3q0 6 8 6q15 0 24 -33l1 -6v-4q0 -4 -7 -5v-2q0 -2 1 -2q3 0 7.5 0.5t7.5 0.5q2 0 6 -0.5t6 -0.5q1 1 1 2l-1 2q-9 1 -10 9l-2 8
q-3 9 -3 17q0 13 9 13q5 0 12 -7h2zM823 173q-1 2 -2 2q-8 1 -9 9l-9 32v4q0 4 8 5l1 1q0 2 -2 2h-25h-19v-6v-11l1 -1l1 1q3 13 14 13h4q5 0 6 -6l4 -15h-5q-9 0 -12 9h-1h-2q1 -3 2 -6.5t1 -5.5q0 -1 1 -5t2 -7h1h1q-1 11 8 11h5l3 -15v-2l1 -2q0 -4 -8 -5v-2q0 -2 1 -2
q3 0 7.5 0.5t7.5 0.5t7 -0.5t6 -0.5q1 1 1 2zM620 225q0 3 -1 3h-15h-14v-1q0 -2 1 -2q9 -1 10 -9l5 -21q2 -8 2 -10q0 -10 -13 -10q-15 0 -20 22l-4 19q0 1 -1 2v2q0 4 8 5v2v1h-12h-11v-1q0 -2 1 -2q10 -1 11 -9l5 -20q7 -26 26 -26q21 0 21 16q0 2 -2 8l-5 22v2l-1 2
q0 4 9 5zM522 173l-1 2q-9 1 -9 9l-7 32q-1 1 -1 3q0 5 9 6l1 1q0 2 -2 2h-5h-9l-30 -40l-4 28q-2 8 7 9l1 1q0 2 -2 2q-1 0 -4.5 -0.5t-6.5 -0.5q-2 0 -5 0.5t-5 0.5v-1v-2q8 -1 10 -9l8 -45q0 -1 1 -1h2l31 44l5 -30q2 -8 -6 -9q-1 0 -1 -2l1 -2q1 0 5 0.5t7 0.5
q2 0 5 -0.5t4 -0.5t1 2zM306 173l-1 2q-9 1 -10 9l-8 32v4q0 4 7 5l1 1q0 2 -2 2h-12h-14q-19 0 -19 -12q0 -6 5.5 -11t12.5 -6l-9 -16q-3 -7 -12 -10q-1 0 -1 -1l1 -2q10 2 18 2l12 22q2 3 6 3l3 -13v-4q0 -4 -7 -5q-1 0 -1 -2l1 -2q3 0 7.5 0.5t7.5 0.5t7 -0.5t6 -0.5
q1 1 1 2zM826 128v4h-685v-4h685zM694 47v1v1q-6 0 -6 5l-1 20q0 5 6 5v2v1q-1 0 -2.5 -0.5t-2.5 -0.5t-2.5 0.5t-2.5 0.5l-24 -25v17q0 5 6 5v2v1q-1 0 -4 -0.5t-4 -0.5t-3 0.5t-4 0.5v-1v-2q6 0 6 -5v-28h2h1l25 27l1 -19q0 -5 -5 -5l-1 -1q0 -1 1 -1h6h8zM632 46v2v1
q-6 0 -6 5v20q0 5 6 5v2v1q-2 0 -8 -0.5t-8 -0.5q-3 0 -6.5 0.5t-5.5 0.5q-2 -8 -2 -10v-1q1 0 1 1q2 7 10 7h2q4 0 4 -4v-9h-4q-5 0 -6 5q0 1 -1 1v-1v-7v-6h1q1 6 6 6h4v-11q0 -4 -4 -4h-2q-9 0 -12 9h-1q-1 0 -1 -1q3 -4 4 -11q4 1 12 1q13 0 17 -1zM582 81h-7
q-1 0 -3.5 0.5t-4.5 0.5v-1v-2q2 0 2 -3v-2l-9 -19l-6 9l5 9q1 6 6 6q1 1 1 2l-1 1q-2 0 -3.5 -0.5t-3.5 -0.5q-1 0 -3 0.5t-4 0.5q-1 0 -2.5 -0.5t-2.5 -0.5t-3 0.5t-4 0.5v-1q0 -2 1 -2q4 0 7 -6l3 -5l-7 -13l-8 18v3q0 3 2 3q1 0 1 2q0 1 -1 1t-2.5 -0.5t-3.5 -0.5
q-1 0 -2.5 0.5t-2.5 0.5v-1v-2q3 0 6 -6l12 -27h1h1l7 15l9 -15h1l12 27q4 6 6 6q1 0 1 2zM479 79v2h-8q-2 0 -4.5 0.5t-3.5 0.5l-1 -1q0 -2 1 -2q2 0 2 -2t-1 -3l-6 -9l-6 9l-1 2q0 3 4 3v2v1q-1 0 -4 -0.5t-4 -0.5t-3 0.5t-3 0.5v-1v-2q4 0 8 -5l8 -12v-8q0 -5 -5 -5v-1
v-2q1 0 3.5 0.5t5.5 0.5q1 0 4 -0.5t4 -0.5t1 2q0 1 -1 1q-5 0 -5 5v8l8 12q2 5 7 5zM424 64q0 18 -20 18q-19 0 -19 -18t19 -18q20 0 20 18zM364 48q0 1 -1 1q-5 0 -5 5v20q0 5 5 5q1 0 1 2q0 1 -1 1t-4 -0.5t-5 -0.5t-4.5 0.5t-4.5 0.5q-12 0 -12 -9q0 -6 8 -9l-8 -11
q-2 -4 -7 -4v-1v-1h6h6l6 11q4 5 7 5v-9q0 -5 -5 -5l-1 -1q0 -2 1 -2t3.5 0.5t4.5 0.5q3 0 5.5 -0.5t3.5 -0.5t1 2zM308 46v2v1q-6 0 -6 5v20q0 5 6 5v2v1q-1 0 -4 -0.5t-5 -0.5t-4.5 0.5t-4.5 0.5v-1v-2q6 0 6 -5v-10q-2 0 -4 3l-8 8q-2 2 -2 3t3 1v2v1q-1 0 -3 -0.5
t-4 -0.5t-3.5 0.5t-2.5 0.5v-1v-2q4 0 8 -4l9 -9l-13 -13q-4 -4 -7 -4l-1 -1q0 -2 1 -2t3.5 0.5t4.5 0.5q1 0 4.5 -0.5t5.5 -0.5v2v1q-3 0 -3 2q0 1 1 2l7 8q2 2 4 2v-9q0 -5 -6 -5v-1v-2q2 0 4.5 0.5t4.5 0.5t5 -0.5t4 -0.5zM523 -81q0 6 -7 6h-3v-3v-9h4q6 0 6 6zM605 -82
q0 6 -7 6h-4v-2v-10h2q9 0 9 6zM393 -82q0 6 -7 6h-4v-2v-10h3q8 0 8 6zM562 -92l-5 11l-5 -11h10zM798 -88q0 13 -10 13t-10 -12q0 -13 10 -13t10 12zM439 -88q0 13 -10 13t-10 -12q0 -13 10 -13t10 12zM176 548h-5q-15 0 -15 15q0 9 8 9q7 0 9 -6zM565 553q-3 -4 -7 -4
t-4 2q0 3 4 3q5 0 7 -1zM270 553q-3 -4 -7 -4q-3 0 -3 2q0 3 3 3q5 0 7 -1zM683 535q0 -14 -12 -14q-9 0 -16.5 12t-7.5 27t12 15q9 0 16.5 -12t7.5 -28zM389 384h-11q-13 0 -13 11t13 11h11v-22zM280 201h-5q-15 0 -15 14q0 10 8 10q7 0 7 -7zM713 188q0 -15 -10 -15
t-17 12t-7 28q0 14 10 14t17 -12t7 -27zM392 182q0 -6 -4 -6h-5q-11 0 -18.5 9.5t-7.5 21.5q0 18 14 18l6 -1q4 0 6 -6zM554 77q0 -1 -3 -6l-2 5q0 3 2 3q3 0 3 -2zM351 65h-3q-8 0 -8 8q0 6 7 6q4 0 4 -4v-10zM416 64q0 -16 -12 -16t-12 16q0 17 12 17t12 -17z" />
    <glyph glyph-name="dotlessi" horiz-adv-x="255" 
d="M136 0q-69 0 -111 -6q-2 1 1 5q55 6 67 19.5t12 72.5v169q0 53 -14 65.5t-55 -1.5q0 1 1 2q99 57 131 88l4 -3q-7 -29 -7 -147v-173q0 -60 12 -73t66 -19q1 0 1 -2.5t-1 -2.5q-42 6 -107 6z" />
    <glyph glyph-name="breve" horiz-adv-x="335" 
d="M168 479q-60 0 -97 40.5t-37 97.5q1 1 3 0q6 -48 44 -76t87 -28t86.5 28t43.5 76q0 1 2 1t2 -1q0 -57 -37.5 -97.5t-96.5 -40.5z" />
    <glyph glyph-name="dotaccent" horiz-adv-x="237" 
d="M118 502q-16 0 -27.5 11.5t-11.5 26.5q0 16 12 28.5t29 12.5q16 0 27.5 -12t11.5 -27q0 -16 -11.5 -28t-29.5 -12z" />
    <glyph glyph-name="ring" horiz-adv-x="219" 
d="M110 476q-34 0 -57.5 23.5t-23.5 57.5q0 33 23.5 57t57.5 24q33 0 57 -24t24 -57q0 -34 -24 -57.5t-57 -23.5zM110 632q-31 0 -53 -22t-22 -53t21.5 -53t53.5 -22q31 0 53 22t22 53t-22 53t-53 22z" />
    <glyph glyph-name="hungarumlaut" horiz-adv-x="301" 
d="M26 463q-1 -1 -3 0l127 203q3 3 9.5 0.5t12 -8.5t2.5 -9zM130 463q-1 -1 -3 1l136 197q2 3 9 0t11.5 -9t2.5 -9z" />
    <glyph glyph-name="ogonek" horiz-adv-x="222" 
d="M117 -257q-43 0 -68.5 25.5t-25.5 66.5q0 79 162 189q1 1 2.5 -0.5t0.5 -2.5q-70 -56 -95 -94.5t-25 -78.5q0 -34 21.5 -56t53.5 -22q36 0 70 32q2 0 4 -4q-18 -23 -45 -39t-55 -16z" />
    <glyph glyph-name="caron" horiz-adv-x="279" 
d="M142 462q-1 -1 -3 -1t-3 2l-113 201q0 1 1 1t2 -1l117 -155l110 155q1 1 2 1t1 -1z" />
    </font>
</defs>
</svg>
