<svg xmlns="http://www.w3.org/2000/svg" width="129" height="20">
    <path fill="#FEFEFD" fill-rule="evenodd" d="M127.636 12.433v-1.926c0-.389-.081-.718-.262-.953-.194-.235-.476-.369-.905-.369-.396 0-.691.141-.878.356-.195.215-.289.51-.289.838v2.054h-.496V7.467h.496V9.413c.221-.476.778-.704 1.287-.691.57 0 .946.181 1.194.497.248.315.342.751.342 1.268v1.946h-.489zm-7.512-.362c.691-.007 1.154-.423 1.308-.859h.516a1.868 1.868 0 0 1-1.804 1.321c-1.22 0-1.937-.939-1.937-1.905 0-1.067.811-1.906 1.904-1.906.811 0 1.589.483 1.837 1.349h-.51c-.227-.611-.797-.893-1.307-.893-.423 0-.718.128-1.019.41-.242.235-.409.624-.409 1.04 0 .852.644 1.443 1.421 1.443zm-5.332-.383c-.281.543-.831.845-1.475.845-1.173 0-1.871-.912-1.871-1.905 0-1.061.771-1.906 1.871-1.906.771 0 1.301.45 1.475.859v-.758h.496v3.61h-.496v-.745zm-.1-1.644a1.392 1.392 0 0 0-1.321-.866c-.832 0-1.435.645-1.435 1.45v.007c.006.65.456 1.436 1.448 1.436.637 0 1.106-.37 1.301-.879.08-.175.121-.376.121-.571a1.303 1.303 0 0 0-.114-.577zm-7.787 2.06c.557 0 1.006-.275 1.241-.745h.516c-.167.39-.422.685-.731.88a1.891 1.891 0 0 1-1.026.294c-1.254 0-1.904-.999-1.904-1.898 0-1.061.818-1.913 1.898-1.913.509 0 .979.181 1.32.51.416.402.617.96.564 1.536h-3.286c.027.907.798 1.343 1.408 1.336zm1.388-1.731c-.033-.631-.643-1.248-1.388-1.228-.777 0-1.354.57-1.401 1.228h2.789zm-7.806 2.16c-.677 0-1.207-.328-1.475-.845v.745h-.477V7.467h.497v2.08c.302-.51.845-.818 1.468-.825 1.026 0 1.858.772 1.858 1.899 0 1.087-.778 1.912-1.871 1.912zm1.375-1.912c0-.825-.624-1.443-1.429-1.443-.831 0-1.428.645-1.428 1.443 0 .785.57 1.45 1.408 1.45.959 0 1.449-.745 1.449-1.443v-.007zM89.742 0h.578v20h-.578V0zM76.045 5.127l-4.736 11.159h-1.742l6.521-14.858 6.351 14.858h-1.742L76.045 5.127zM59.097 2.108h1.572v14.178h-1.572V2.108zM46.971 9.356h-7.264v6.93h-1.572V2.108h1.572v5.761h7.264V2.108h1.572v14.178h-1.572v-6.93zM22.844 5.127l-4.737 11.159h-1.742l6.521-14.858 6.351 14.858h-1.742L22.844 5.127zM7.799 15.351c-1.126.893-2.421.935-3.398.935H.875V2.108h2.549c.785 0 2.208.064 3.249.893.446.34 1.275 1.211 1.275 2.933 0 .702-.149 1.935-1.402 2.785 1.975.489 2.697 2.211 2.697 3.571 0 1.36-.679 2.466-1.444 3.061zM3.678 3.596H2.446v4.74h1.19c.828 0 2.782-.17 2.782-2.359 0-2.339-2.293-2.381-2.74-2.381zm2.783 6.568c-.531-.297-1.275-.425-2.4-.425H2.446v5.059h1.806c.913 0 1.805-.064 2.485-.595.552-.404.934-1.105.934-1.956 0-1.126-.658-1.785-1.21-2.083z"/>
</svg>
