<svg xmlns="http://www.w3.org/2000/svg" width="98" height="17">
    <path fill="#FEFEFD" fill-rule="evenodd" d="M88.899 16.959c-4.841 0-8.146-3.706-8.146-7.749 0-4.116 3.542-8.229 8.575-8.229 4.859 0 8.188 3.703 8.188 7.723 0 4.139-3.562 8.255-8.617 8.255zm-.1-15.598c-3.614 0-6.274 2.628-6.274 7.054 0 5.366 3.5 8.164 6.924 8.164 3.613 0 6.298-2.635 6.298-7.059 0-5.365-3.546-8.159-6.948-8.159zM75.6 5.377v7.181c0 1.196.074 3.368.189 4.377 0 .047-.069 0-.143-.069L63.893 4.155v8.403c0 3.328.044 3.783 2.342 3.945.027.029.051.145 0 .145-.718-.097-1.364-.193-2.342-.193-1.369 0-1.822.077-2.804.193-.05 0 0-.116.024-.145 2.202-.213 2.344-.477 2.344-3.945l.022-8.207c0-1.13-1.745-2.828-2.942-2.967-.024 0-.047-.098 0-.098.956.122 1.865.168 3.207.168l11.423 12.258V5.377c0-3.465-.236-3.757-2.464-3.993-.022 0-.047-.098 0-.098.985.122 1.556.168 2.917.168.984 0 1.632-.07 2.351-.168.049 0 .049.098.027.098-2.301.186-2.398.664-2.398 3.993zM55.942 16.458c-1.371 0-2.615.074-3.594.19-.051 0 0-.116.024-.145 1.218-.112 1.772-.187 1.772-.906 0-.718-.478-1.869-.913-3.065l-.741-2.035h-5.486l-.861 2.035c-.6 1.442-1.031 2.392-1.031 3.065 0 .598.456.817 1.626.906.024.029.074.145.024.145-.716-.097-1.27-.19-2.25-.19-1.364 0-1.411.074-2.393.19-.044 0 0-.116.021-.145 1.631-.112 2.23-1.145 3.45-3.922l5.054-11.562c.023-.039.122-.039.146 0l4.31 11.562c1.104 2.99 1.51 3.784 3.519 3.922.023.029.048.145 0 .145a20.792 20.792 0 0 0-2.677-.19zM50.023 3.492l-2.873 6.699h5.222l-2.349-6.699zM35.458 16.959c-1.6 0-2.892-.526-4.118-1.574-.091-.123.144-1.411.173-3.046 0-.021.115-.021.115 0 .146 2.54 1.532 4.24 4.046 4.24 1.68 0 3.263-.982 3.263-2.992 0-3.972-6.995-3.991-6.995-8.352 0-2.108 1.819-4.254 4.408-4.254 1.313 0 2.198.28 2.968.732.167.102.235.935.235 2.442 0 .023-.092.023-.115 0-.288-1.81-1.483-2.794-3.256-2.794-1.581 0-2.97 1.028-2.97 2.605 0 3.803 6.87 3.733 6.87 8.307 0 2.533-1.914 4.686-4.624 4.686zm-9.004-.501c-1.363 0-2.61.074-3.592.19-.048 0 0-.116.022-.145 1.22-.112 1.773-.187 1.773-.906 0-.718-.479-1.869-.908-3.065l-.743-2.035h-5.485l-.864 2.035c-.597 1.442-1.031 2.392-1.031 3.065 0 .598.457.817 1.632.906.025.029.07.145.025.145-.718-.097-1.271-.19-2.255-.19-1.362 0-1.412.074-2.393.19-.047 0 0-.116.022-.145 1.631-.112 2.227-1.145 3.452-3.922l5.053-11.562c.022-.039.12-.039.143 0l4.311 11.562c1.098 2.99 1.509 3.784 3.52 3.922.023.029.048.145 0 .145a20.767 20.767 0 0 0-2.682-.19zM20.537 3.492l-2.872 6.699h5.219l-2.347-6.699zm-8.812.431c-.361-1.631-.309-2.038-4.045-2.038H5.022c-.147.668-.193 1.816-.193 3.368v3.335h1.773c3.184 0 3.16-.43 3.349-1.344 0 0 .122-.026.149 0-.123.43-.219 1.148-.219 1.797 0 .31.026.905.07 1.15 0 .045-.141.025-.141-.026-.168-.955-.453-1.245-3.208-1.245H4.829v3.637c0 3.808 0 3.759 2.399 3.946.021 0 .066.145.021.145-.745-.097-2.01-.19-3.019-.19-1.364 0-2.247.074-3.233.19-.048 0 0-.116.022-.145 2.014-.187 2.109-.187 2.109-3.946v-7.18c0-3.833-.051-3.709-2.538-3.993-.026 0-.075-.097-.026-.097 1.725.121 4.12.167 6.493.167 1.72 0 3.205-.119 4.071-.119.288 0 .382.073.477.378.147.554.147 1.605.24 2.21 0 .026-.12.026-.12 0z"/>
</svg>
