<svg xmlns="http://www.w3.org/2000/svg" width="274" height="84">
    <path fill="#FFF" fill-rule="evenodd" d="M272.693 2.698c-.356-.247-.968-.54-1.982-.54-.658 0-1.17.119-1.408.211-.557.21-.712.594-.712.868 0 .137.036.284.109.403.229.365.686.402 1.06.448.713.091 1.426.128 2.138.21.997.119 1.453.375 1.764.759A1.6 1.6 0 0 1 274 6.072c0 .549-.201.905-.329 1.079-.576.805-1.663.933-1.9.96a7.458 7.458 0 0 1-.932.065c-.183 0-.978-.019-1.663-.192-.146-.037-.375-.092-.695-.229a3.332 3.332 0 0 1-.676-.393c-.347-.266-.503-.503-.603-.65l.85-.347c.046.055.082.1.137.155.137.138.438.375.886.558.74.302 1.618.311 1.828.311.164 0 1.133.027 1.754-.439.384-.292.438-.695.438-.869 0-.374-.21-.649-.548-.795-.475-.211-1.59-.275-2.101-.32-1.234-.101-1.837-.165-2.312-.604a1.38 1.38 0 0 1-.457-1.079c0-.905.621-1.317.896-1.463.383-.211 1.087-.421 2.128-.421 1.28 0 2.048.311 2.513.613.11.073.201.137.293.219.21.174.366.403.42.467l-.841.338a3.057 3.057 0 0 0-.393-.338zm-12.065 3.731h-3.966l-.786 1.591h-1.032l3.344-6.456h.977l3.309 6.456h-1.061l-.785-1.591zm-1.974-3.941l-1.608 3.2h3.189l-1.581-3.2zm-10.076-.924h.932V8.02h-.932V1.564zm-9.982 5.77c.311.046.64.046.74.046.293 0 1.544.009 2.312-.832.155-.165.247-.302.356-.494l.969.201c-.21.375-.329.539-.457.695-1.051 1.235-2.915 1.235-3.289 1.235-1.28 0-2.029-.357-2.486-.65a3.95 3.95 0 0 1-.438-.338 3.23 3.23 0 0 1-.476-.585c-.228-.348-.512-.905-.512-1.866 0-.311.019-1.161.567-1.92.092-.137.211-.284.466-.513a4.01 4.01 0 0 1 .75-.502c.831-.421 1.863-.439 2.11-.439.302 0 1.499.027 2.431.594.128.083.392.256.667.54.292.311.447.594.53.74l-.978.211a3.203 3.203 0 0 0-.173-.284 2.137 2.137 0 0 0-.576-.53c-.302-.192-.951-.466-1.864-.466-.256 0-1.252.009-2.001.539-.073.046-.21.155-.366.329-.247.266-.594.778-.594 1.692 0 .265.028.997.512 1.628.575.75 1.526.924 1.8.969zM223.552 2.68l.018 5.34h-.877V1.564h.941l5.017 5.331-.028-5.331h.877V8.02h-.895l-5.053-5.34zm-10.994 55.722c-9.333 0-15.705-7.154-15.705-14.961 0-7.948 6.828-15.89 16.532-15.89 9.367 0 15.784 7.15 15.784 14.912 0 7.993-6.867 15.939-16.611 15.939zm-.193-30.117c-6.968 0-12.096 5.074-12.096 13.62 0 10.361 6.748 15.764 13.349 15.764 6.965 0 12.14-5.088 12.14-13.63 0-10.359-6.834-15.754-13.393-15.754zm3.159-21.856h-3.965l-.786 1.591h-1.033l3.345-6.456h.977l3.308 6.456h-1.06l-.786-1.591zm-1.973-3.941l-1.609 3.2h3.189l-1.58-3.2zm-.01-1.985l-.749.64h-.722L213.048 0h.978l1.005 1.134h-.749l-.741-.631zM203.449 8.02h-.914V2.332h-2.632v-.768h6.186v.768h-2.64V8.02zm-12.925-3.932c.712.091 1.425.128 2.138.21.996.119 1.453.375 1.763.759a1.6 1.6 0 0 1 .338 1.015c0 .549-.201.905-.329 1.079-.575.805-1.663.933-1.9.96a7.442 7.442 0 0 1-.932.065c-.183 0-.978-.019-1.663-.192-.146-.037-.375-.092-.695-.229a3.332 3.332 0 0 1-.676-.393c-.347-.266-.503-.503-.603-.65l.85-.347c.045.055.082.1.137.155.137.138.438.375.886.558.74.302 1.618.311 1.828.311.164 0 1.133.027 1.754-.439a1.1 1.1 0 0 0 .439-.869c0-.374-.21-.649-.548-.795-.476-.211-1.59-.275-2.102-.32-1.234-.101-1.837-.165-2.312-.604a1.38 1.38 0 0 1-.457-1.079c0-.905.622-1.317.896-1.463.383-.211 1.087-.421 2.129-.421 1.279 0 2.047.311 2.513.613.109.073.201.137.292.219.21.174.366.403.42.467l-.84.338a3.21 3.21 0 0 0-.393-.338c-.357-.247-.969-.54-1.983-.54-.658 0-1.17.119-1.407.211-.558.21-.713.594-.713.868 0 .137.036.284.11.403.228.365.685.402 1.06.448zm1.018 24.242c-4.436.358-4.623 1.281-4.623 7.71v13.864c0 2.309.142 6.504.365 8.452 0 .091-.133 0-.276-.133L164.349 33.68v16.224c0 6.426.087 7.304 4.517 7.618.051.056.098.281 0 .281-1.385-.189-2.63-.373-4.517-.373-2.637 0-3.511.148-5.404.373-.096 0 0-.225.045-.281 4.245-.413 4.52-.92 4.52-7.618l.043-15.845c0-2.182-3.365-5.461-5.673-5.729-.046 0-.09-.189 0-.189 1.844.235 3.597.324 6.183.324l22.022 23.668V36.04c0-6.69-.456-7.255-4.751-7.71-.042 0-.089-.189 0-.189 1.9.235 3.001.324 5.624.324 1.896 0 3.147-.135 4.532-.324.094 0 .094.189.052.189zM176.767 1.564h5.949v.795h-5.035V4.28h4.907v.768h-4.907v2.176h5.272v.796h-6.186V1.564zm-16.028 6.227h-.896V5.707h-2.239V4.92h2.239V2.853h.896V4.92h2.238v.787h-2.238v2.084zm-1.56 72.898c0 .375-.055 1.382-.841 2.196-.448.466-1.435 1.115-3.052 1.115-.164 0-.539-.009-.987-.083-.438-.063-1.745-.301-2.495-1.508-.438-.714-.465-1.445-.465-1.738 0-.741.192-1.481.648-2.057.092-.119.21-.256.467-.467.438-.366 1.324-.933 2.777-.933.293 0 1.17.028 2.001.412.53.247 1.042.649 1.38 1.134.53.768.567 1.619.567 1.929zm-1.161-1.216c-.694-1.49-2.531-1.481-2.896-1.472-.274.009-1.435.073-2.184.823a2.232 2.232 0 0 0-.539.869 2.972 2.972 0 0 0-.146.942c0 .238.027.932.465 1.527.092.119.229.283.512.485.375.265 1.005.558 2.074.558.174 0 .603 0 1.088-.128.904-.238 1.562-.842 1.782-1.756a3.43 3.43 0 0 0 .082-.723c0-.549-.147-.932-.238-1.125zm-8.997-22.038c-2.641 0-5.04.143-6.928.368-.098 0 0-.225.047-.281 2.348-.217 3.415-.361 3.415-1.75 0-1.386-.92-3.608-1.759-5.917l-1.429-3.929H131.79l-1.658 3.929c-1.156 2.784-1.988 4.618-1.988 5.917 0 1.155.879 1.579 3.135 1.75.046.056.142.281.046.281-1.381-.189-2.449-.368-4.338-.368-2.63 0-2.721.143-4.613.368-.085 0 0-.225.041-.281 3.143-.217 4.299-2.21 6.651-7.572l9.743-22.325c.044-.074.235-.074.281 0l8.31 22.325c2.128 5.772 2.91 7.306 6.783 7.572.045.056.094.281 0 .281a39.699 39.699 0 0 0-5.162-.368zM137.611 32.4l-5.538 12.935h10.067L137.611 32.4zm2.293-28.312c.713.091 1.425.128 2.138.21.996.119 1.453.375 1.764.759a1.6 1.6 0 0 1 .338 1.015c0 .549-.201.905-.329 1.079-.576.805-1.663.933-1.901.96a7.442 7.442 0 0 1-.932.065c-.183 0-.978-.019-1.663-.192-.146-.037-.374-.092-.694-.229a3.349 3.349 0 0 1-.677-.393c-.347-.266-.502-.503-.603-.65l.85-.347c.046.055.083.1.137.155.137.138.439.375.887.558.74.302 1.617.311 1.827.311.165 0 1.133.027 1.755-.439.383-.292.438-.695.438-.869 0-.374-.21-.649-.548-.795-.475-.211-1.59-.275-2.102-.32-1.233-.101-1.836-.165-2.311-.604a1.379 1.379 0 0 1-.458-1.079c0-.905.622-1.317.896-1.463.384-.211 1.087-.421 2.129-.421 1.279 0 2.047.311 2.513.613.11.073.201.137.292.219.211.174.366.403.421.467l-.841.338a3.132 3.132 0 0 0-.393-.338c-.356-.247-.968-.54-1.983-.54-.658 0-1.169.119-1.407.211-.557.21-.713.594-.713.868 0 .137.037.284.11.403.228.365.685.402 1.06.448zm-9.133 2.341h-3.966l-.785 1.591h-1.033l3.344-6.456h.978l3.308 6.456h-1.06l-.786-1.591zm-1.974-3.941l-1.608 3.2h3.189l-1.581-3.2zm-10.183 79.747h-3.966l-.785 1.591h-1.033l3.344-6.456h.978l3.308 6.456h-1.06l-.786-1.591zm-1.973-3.941l-1.609 3.2h3.189l-1.58-3.2zm-1.719-76.73h.914v5.669h4.285v.787h-5.199V1.564zm2.053 27.401c.322.198.452 1.806.452 4.715 0 .044-.178.044-.222 0-.555-3.496-2.859-5.395-6.276-5.395-3.049 0-5.726 1.985-5.726 5.029 0 7.344 13.244 7.209 13.244 16.041 0 4.891-3.691 9.048-8.914 9.048-3.084 0-5.575-1.016-7.939-3.04-.176-.237.279-2.724.333-5.881 0-.04.223-.04.223 0 .28 4.904 2.952 8.186 7.799 8.186 3.239 0 6.292-1.895 6.292-5.776 0-7.669-13.486-7.706-13.486-16.128 0-4.07 3.506-8.213 8.498-8.213 2.53 0 4.236.541 5.722 1.414zM104.454 1.564h.914v5.669h4.286v.787h-5.2V1.564zm1.492 75.906c.868.229 1.361.906 1.361 1.793 0 .347-.073 1.253-1.041 1.655a2.98 2.98 0 0 1-.704.174l2.385 2.734h-1.197l-2.184-2.588h-3.116v2.588h-.923V77.37h4.395c.549 0 .749.028 1.024.1zm-4.505 3.009h3.189c.521 0 1.133-.018 1.49-.475.091-.11.237-.329.237-.705 0-.118-.009-.365-.164-.631-.275-.484-.704-.53-1.207-.53h-3.545v2.341zM97.403 1.564h.932V8.02h-.932V1.564zm-5.228 55.871c-2.628 0-5.032.143-6.926.368-.091 0 0-.225.043-.281 2.352-.217 3.419-.361 3.419-1.75 0-1.386-.924-3.608-1.751-5.917l-1.432-3.929H74.953l-1.666 3.929c-1.15 2.784-1.987 4.618-1.987 5.917 0 1.155.882 1.579 3.146 1.75.048.056.136.281.048.281-1.384-.189-2.449-.368-4.347-.368-2.625 0-2.721.143-4.612.368-.092 0 0-.225.043-.281 3.143-.217 4.292-2.21 6.653-7.572l9.742-22.325c.042-.074.232-.074.276 0l8.31 22.325c2.117 5.772 2.909 7.306 6.787 7.572.044.056.091.281 0 .281a39.674 39.674 0 0 0-5.171-.368zM80.767 32.4L75.23 45.335h10.062L80.767 32.4zm7.348-24.38l-3.098-6.456h1.014l2.559 5.441 2.485-5.441h1.005L89.038 8.02h-.923zm-18.341-.229h-.895V5.707H66.64V4.92h2.239V2.853h.895V4.92h2.239v.787h-2.239v2.084zM63.78 33.232c-.696-3.149-.596-3.935-7.797-3.935h-5.125c-.284 1.29-.373 3.507-.373 6.502v6.44h3.419c6.139 0 6.091-.829 6.456-2.594 0 0 .235-.05.287 0-.238.83-.422 2.217-.422 3.468 0 .599.051 1.749.135 2.222 0 .086-.272.047-.272-.051-.323-1.843-.873-2.403-6.184-2.403h-3.419v7.023c0 7.352 0 7.257 4.625 7.618.041 0 .128.281.041.281-1.436-.189-3.875-.368-5.819-.368-2.63 0-4.334.143-6.234.368-.093 0 0-.225.043-.281 3.882-.361 4.065-.361 4.065-7.618V36.04c0-7.401-.097-7.162-4.892-7.709-.05 0-.144-.189-.05-.189 3.325.234 7.943.324 12.517.324 3.316 0 6.179-.231 7.849-.231.554 0 .736.141.919.73.284 1.069.284 3.099.462 4.267 0 .05-.231.05-.231 0zM48.5 1.564h.914v5.669h4.285v.787H48.5V1.564zm-11.801 0h5.949v.795h-5.035V4.28h4.907v.768h-4.907v2.176h5.272v.796h-6.186V1.564zM28.562 8.02h-.914V2.332h-2.631v-.768h6.186v.768h-2.641V8.02zm-12.002.174c-.164 0-.539-.009-.986-.083-.439-.064-1.746-.301-2.495-1.508-.438-.714-.466-1.445-.466-1.738 0-.741.192-1.481.649-2.057.091-.119.21-.257.466-.467.438-.366 1.325-.933 2.778-.933.292 0 1.169.028 2.001.412.53.247 1.041.649 1.38 1.134.53.768.566 1.618.566 1.929 0 .375-.055 1.381-.841 2.195-.447.466-1.434 1.116-3.052 1.116zm2.733-4.527c-.695-1.49-2.532-1.481-2.897-1.472-.274.009-1.435.073-2.184.823a2.232 2.232 0 0 0-.539.869c-.1.292-.146.631-.146.941 0 .239.027.933.466 1.528.091.118.228.283.511.485.375.265 1.006.557 2.075.557.173 0 .603 0 1.087-.128.905-.237 1.563-.841 1.782-1.756a3.41 3.41 0 0 0 .082-.722c0-.549-.146-.933-.237-1.125zM5.875 4.966H.931V8.02h-.932V1.564h.923v2.633h4.944V1.564h.932V8.02h-.923V4.966zM95.04 78.138h-2.641v5.688h-.914v-5.688h-2.631v-.768h6.186v.768zm36.7 4.563l-.027-5.331h.877v6.456h-.896l-5.053-5.34.018 5.34h-.877V77.37h.941l5.017 5.331zm7.698-4.582c.228-.191.493-.374.749-.502.831-.421 1.864-.439 2.111-.439.301 0 1.498.027 2.43.594.128.083.393.256.667.54.293.311.448.594.53.741l-.977.21a2.99 2.99 0 0 0-.174-.284 2.108 2.108 0 0 0-.576-.53c-.301-.192-.95-.466-1.864-.466-.256 0-1.252.009-2.001.54-.073.045-.21.155-.365.329-.247.265-.594.777-.594 1.691 0 .266.027.997.511 1.628.576.75 1.526.924 1.801.969.31.046.639.046.74.046.292 0 1.544.009 2.311-.832.156-.165.247-.302.357-.494l.968.201c-.21.375-.329.54-.457.696-1.05 1.234-2.914 1.234-3.289 1.234-1.279 0-2.029-.357-2.486-.649a4.054 4.054 0 0 1-.438-.339 3.236 3.236 0 0 1-.475-.585c-.229-.347-.512-.905-.512-1.866 0-.31.018-1.161.567-1.92.091-.137.21-.284.466-.513zm25.94 4.208c.137.137.438.374.886.558.74.301 1.618.31 1.828.31.164 0 1.133.028 1.754-.438.384-.293.439-.696.439-.87 0-.374-.21-.649-.548-.795-.476-.21-1.59-.274-2.102-.32-1.234-.101-1.837-.165-2.312-.603a1.38 1.38 0 0 1-.457-1.08c0-.905.622-1.317.896-1.463.383-.21 1.087-.421 2.129-.421 1.279 0 2.046.311 2.513.613.109.073.2.137.292.219.21.174.365.403.42.467l-.841.338a3.026 3.026 0 0 0-.392-.338c-.357-.247-.969-.54-1.983-.54-.658 0-1.17.119-1.407.211-.558.21-.713.594-.713.869 0 .137.036.283.109.402.229.365.686.402 1.061.448.712.092 1.425.128 2.138.21.996.119 1.453.375 1.763.759a1.6 1.6 0 0 1 .338 1.015c0 .549-.201.906-.329 1.08-.575.804-1.663.932-1.9.959a7.442 7.442 0 0 1-.932.065c-.183 0-.978-.019-1.663-.192-.147-.037-.375-.092-.695-.229a3.285 3.285 0 0 1-.676-.393c-.347-.265-.503-.503-.603-.65l.85-.347c.045.055.082.101.137.156zm12.377-4.18c.438-.366 1.325-.933 2.777-.933.293 0 1.17.028 2.001.412a3.528 3.528 0 0 1 1.38 1.134c.53.768.567 1.619.567 1.929 0 .375-.055 1.382-.841 2.196-.448.466-1.435 1.115-3.052 1.115-.164 0-.539-.009-.986-.083-.439-.063-1.746-.301-2.495-1.508-.439-.714-.466-1.445-.466-1.738 0-.741.192-1.481.649-2.057.091-.119.21-.256.466-.467zm.264 4.015c.092.119.229.283.512.485.375.265 1.005.558 2.075.558.173 0 .603 0 1.087-.128.904-.238 1.562-.842 1.782-1.756a3.43 3.43 0 0 0 .082-.723c0-.549-.146-.932-.238-1.125-.694-1.49-2.531-1.481-2.896-1.472-.274.009-1.435.073-2.184.823a2.232 2.232 0 0 0-.539.869 2.972 2.972 0 0 0-.146.942c0 .238.027.932.465 1.527z"/>
</svg>
