<?xml version="1.0" encoding="utf-8"?>
<!-- Generator: Adobe Illustrator 16.0.0, SVG Export Plug-In . SVG Version: 6.00 Build 0)  -->
<!DOCTYPE svg PUBLIC "-//W3C//DTD SVG 1.1//EN" "http://www.w3.org/Graphics/SVG/1.1/DTD/svg11.dtd">
<svg version="1.1" id="Layer_1" xmlns="http://www.w3.org/2000/svg" xmlns:xlink="http://www.w3.org/1999/xlink" x="0px" y="0px"
	 width="274px" height="84px" viewBox="0 0 274 84" enable-background="new 0 0 274 84" xml:space="preserve">
<path fill="#8F7D57" d="M272.693,2.698c-0.356-0.247-0.969-0.54-1.982-0.54c-0.658,0-1.17,0.119-1.408,0.211
	c-0.557,0.21-0.712,0.594-0.712,0.868c0,0.137,0.036,0.284,0.109,0.403c0.229,0.365,0.687,0.402,1.06,0.448
	c0.713,0.091,1.426,0.128,2.139,0.21c0.996,0.119,1.453,0.375,1.764,0.759c0.226,0.29,0.346,0.648,0.338,1.015
	c0,0.549-0.201,0.905-0.329,1.079c-0.575,0.805-1.663,0.933-1.899,0.96c-0.31,0.042-0.621,0.063-0.933,0.065
	c-0.183,0-0.978-0.019-1.663-0.192c-0.146-0.037-0.375-0.092-0.695-0.229c-0.239-0.104-0.467-0.236-0.676-0.393
	c-0.347-0.266-0.502-0.503-0.603-0.65l0.851-0.347c0.045,0.055,0.081,0.1,0.137,0.155c0.137,0.138,0.438,0.375,0.886,0.558
	c0.739,0.302,1.618,0.311,1.827,0.311c0.164,0,1.134,0.027,1.754-0.439c0.385-0.292,0.439-0.695,0.439-0.869
	c0-0.374-0.211-0.649-0.549-0.795c-0.475-0.211-1.59-0.275-2.102-0.32c-1.233-0.101-1.836-0.165-2.312-0.604
	c-0.305-0.274-0.472-0.669-0.457-1.079c0-0.905,0.621-1.317,0.896-1.463c0.384-0.211,1.088-0.421,2.129-0.421
	c1.279,0,2.048,0.311,2.513,0.613c0.11,0.073,0.201,0.137,0.293,0.219c0.21,0.174,0.366,0.403,0.42,0.467l-0.841,0.338
	C272.965,2.913,272.834,2.799,272.693,2.698L272.693,2.698z M260.628,6.429h-3.966l-0.786,1.591h-1.032l3.344-6.456h0.978
	l3.31,6.456h-1.062L260.628,6.429L260.628,6.429z M258.654,2.488l-1.608,3.2h3.188L258.654,2.488z M248.578,1.564h0.932V8.02h-0.932
	V1.564z M238.596,7.334c0.312,0.046,0.641,0.046,0.74,0.046c0.293,0,1.544,0.009,2.313-0.832c0.154-0.165,0.246-0.302,0.355-0.494
	l0.969,0.201c-0.209,0.375-0.328,0.539-0.457,0.695c-1.051,1.235-2.914,1.235-3.289,1.235c-1.279,0-2.029-0.357-2.485-0.65
	c-0.153-0.103-0.3-0.215-0.438-0.338c-0.181-0.176-0.34-0.373-0.476-0.585c-0.228-0.348-0.513-0.905-0.513-1.866
	c0-0.311,0.02-1.161,0.567-1.92c0.093-0.137,0.211-0.284,0.466-0.513c0.23-0.195,0.482-0.363,0.75-0.502
	c0.832-0.421,1.863-0.439,2.11-0.439c0.302,0,1.499,0.027,2.431,0.594c0.129,0.083,0.393,0.256,0.668,0.54
	c0.291,0.311,0.446,0.594,0.529,0.74l-0.979,0.211c-0.053-0.098-0.109-0.192-0.172-0.284c-0.158-0.21-0.354-0.39-0.576-0.53
	c-0.303-0.192-0.951-0.466-1.864-0.466c-0.257,0-1.252,0.009-2.001,0.539c-0.073,0.046-0.21,0.155-0.366,0.329
	c-0.247,0.266-0.594,0.778-0.594,1.692c0,0.265,0.028,0.997,0.512,1.628C237.371,7.115,238.322,7.289,238.596,7.334L238.596,7.334z
	 M223.553,2.68l0.018,5.34h-0.877V1.564h0.94l5.017,5.331l-0.027-5.331h0.877V8.02h-0.895L223.553,2.68z M212.559,58.402
	c-9.334,0-15.705-7.154-15.705-14.961c0-7.948,6.828-15.891,16.531-15.891c9.367,0,15.784,7.15,15.784,14.912
	C229.169,50.456,222.302,58.402,212.559,58.402L212.559,58.402z M212.365,28.285c-6.969,0-12.096,5.074-12.096,13.62
	c0,10.36,6.748,15.764,13.349,15.764c6.965,0,12.14-5.088,12.14-13.63C225.758,33.68,218.924,28.285,212.365,28.285z M215.523,6.429
	h-3.965l-0.785,1.591h-1.033l3.345-6.456h0.978l3.308,6.456h-1.06L215.523,6.429L215.523,6.429z M213.551,2.488l-1.609,3.2h3.189
	L213.551,2.488z M213.541,0.503l-0.749,0.64h-0.722L213.048,0h0.978l1.006,1.134h-0.749L213.541,0.503L213.541,0.503z M203.449,8.02
	h-0.914V2.332h-2.633V1.564h6.187v0.768h-2.64V8.02z M190.523,4.088c0.713,0.091,1.426,0.128,2.139,0.21
	c0.996,0.119,1.453,0.375,1.763,0.759c0.226,0.29,0.345,0.648,0.339,1.015c0,0.549-0.201,0.905-0.33,1.079
	c-0.574,0.805-1.662,0.933-1.899,0.96c-0.31,0.042-0.62,0.063-0.933,0.065c-0.183,0-0.978-0.019-1.662-0.192
	c-0.146-0.037-0.375-0.092-0.695-0.229c-0.24-0.104-0.467-0.236-0.676-0.393c-0.348-0.266-0.504-0.503-0.604-0.65l0.85-0.347
	c0.045,0.055,0.082,0.1,0.138,0.155c0.137,0.138,0.438,0.375,0.886,0.558c0.74,0.302,1.618,0.311,1.828,0.311
	c0.164,0,1.133,0.027,1.754-0.439c0.273-0.206,0.436-0.527,0.439-0.869c0-0.374-0.211-0.649-0.549-0.795
	c-0.476-0.211-1.59-0.275-2.102-0.32c-1.234-0.101-1.837-0.165-2.313-0.604c-0.305-0.274-0.473-0.669-0.457-1.079
	c0-0.905,0.623-1.317,0.896-1.463c0.383-0.211,1.087-0.421,2.129-0.421c1.279,0,2.047,0.311,2.514,0.613
	c0.108,0.073,0.201,0.137,0.291,0.219c0.211,0.174,0.367,0.403,0.42,0.467l-0.84,0.338c-0.121-0.123-0.253-0.236-0.393-0.338
	c-0.357-0.247-0.969-0.54-1.982-0.54c-0.658,0-1.17,0.119-1.408,0.211c-0.558,0.21-0.713,0.594-0.713,0.868
	c0,0.137,0.037,0.284,0.11,0.403C189.691,4.005,190.148,4.042,190.523,4.088z M191.542,28.33c-4.437,0.358-4.623,1.281-4.623,7.71
	v13.864c0,2.309,0.142,6.504,0.365,8.451c0,0.092-0.134,0-0.276-0.133L164.35,33.68v16.224c0,6.426,0.086,7.304,4.517,7.617
	c0.051,0.057,0.098,0.281,0,0.281c-1.386-0.188-2.63-0.373-4.517-0.373c-2.638,0-3.512,0.148-5.404,0.373
	c-0.096,0,0-0.225,0.045-0.281c4.244-0.412,4.52-0.92,4.52-7.617l0.043-15.845c0-2.182-3.365-5.461-5.673-5.729
	c-0.046,0-0.09-0.189,0-0.189c1.845,0.235,3.597,0.324,6.183,0.324l22.022,23.668V36.04c0-6.69-0.456-7.255-4.751-7.71
	c-0.042,0-0.089-0.189,0-0.189c1.9,0.235,3.001,0.324,5.624,0.324c1.896,0,3.147-0.135,4.532-0.324
	C191.584,28.141,191.584,28.33,191.542,28.33L191.542,28.33z M176.768,1.564h5.948v0.795h-5.034V4.28h4.906v0.768h-4.906v2.176
	h5.271V8.02h-6.186V1.564z M160.738,7.791h-0.896V5.707h-2.239V4.92h2.239V2.853h0.896V4.92h2.238v0.787h-2.238V7.791z
	 M159.18,80.689c0,0.375-0.056,1.381-0.842,2.195c-0.447,0.467-1.436,1.115-3.052,1.115c-0.164,0-0.539-0.009-0.987-0.083
	c-0.438-0.063-1.744-0.301-2.494-1.508c-0.438-0.714-0.466-1.445-0.466-1.738c0-0.741,0.192-1.481,0.647-2.057
	c0.093-0.119,0.211-0.257,0.468-0.468c0.438-0.365,1.323-0.933,2.776-0.933c0.293,0,1.17,0.028,2.002,0.412
	c0.529,0.247,1.041,0.649,1.379,1.134C159.143,79.527,159.18,80.379,159.18,80.689z M158.018,79.473
	c-0.693-1.49-2.531-1.48-2.896-1.472c-0.274,0.009-1.435,0.073-2.185,0.823c-0.244,0.244-0.429,0.541-0.539,0.869
	c-0.099,0.304-0.148,0.622-0.146,0.941c0,0.238,0.026,0.932,0.465,1.527c0.093,0.119,0.229,0.283,0.513,0.484
	c0.375,0.266,1.004,0.559,2.074,0.559c0.174,0,0.603,0,1.088-0.128c0.903-0.238,1.562-0.843,1.781-1.757
	c0.053-0.236,0.08-0.479,0.082-0.723C158.256,80.049,158.109,79.666,158.018,79.473L158.018,79.473z M149.021,57.436
	c-2.642,0-5.041,0.143-6.928,0.367c-0.099,0,0-0.225,0.047-0.281c2.348-0.217,3.414-0.36,3.414-1.75c0-1.386-0.92-3.607-1.759-5.916
	l-1.429-3.93H131.79l-1.658,3.93c-1.156,2.783-1.988,4.617-1.988,5.916c0,1.155,0.879,1.58,3.135,1.75
	c0.046,0.057,0.142,0.281,0.046,0.281c-1.381-0.188-2.449-0.367-4.338-0.367c-2.63,0-2.721,0.143-4.613,0.367
	c-0.085,0,0-0.225,0.041-0.281c3.143-0.217,4.299-2.209,6.651-7.571l9.743-22.325c0.045-0.074,0.235-0.074,0.281,0L147.4,49.95
	c2.127,5.772,2.91,7.306,6.783,7.571c0.045,0.057,0.094,0.281,0,0.281C152.473,57.568,150.748,57.445,149.021,57.436L149.021,57.436
	z M137.611,32.4l-5.539,12.935h10.068L137.611,32.4z M139.904,4.088c0.713,0.091,1.425,0.128,2.138,0.21
	c0.996,0.119,1.453,0.375,1.765,0.759c0.225,0.29,0.344,0.648,0.338,1.015c0,0.549-0.201,0.905-0.33,1.079
	c-0.576,0.805-1.662,0.933-1.9,0.96c-0.309,0.042-0.62,0.063-0.932,0.065c-0.184,0-0.979-0.019-1.664-0.192
	c-0.146-0.037-0.373-0.092-0.693-0.229c-0.24-0.104-0.467-0.236-0.678-0.393c-0.346-0.266-0.501-0.503-0.602-0.65l0.85-0.347
	c0.046,0.055,0.082,0.1,0.137,0.155c0.137,0.138,0.439,0.375,0.887,0.558c0.74,0.302,1.617,0.311,1.827,0.311
	c0.165,0,1.134,0.027,1.755-0.439c0.383-0.292,0.438-0.695,0.438-0.869c0-0.374-0.209-0.649-0.547-0.795
	c-0.476-0.211-1.59-0.275-2.103-0.32c-1.233-0.101-1.836-0.165-2.312-0.604c-0.305-0.273-0.473-0.669-0.457-1.079
	c0-0.905,0.621-1.317,0.896-1.463c0.384-0.211,1.087-0.421,2.13-0.421c1.278,0,2.047,0.311,2.512,0.613
	c0.11,0.073,0.201,0.137,0.293,0.219c0.211,0.174,0.365,0.403,0.42,0.467l-0.84,0.338c-0.122-0.124-0.254-0.236-0.394-0.338
	c-0.356-0.247-0.968-0.54-1.983-0.54c-0.658,0-1.168,0.119-1.406,0.211c-0.557,0.21-0.713,0.594-0.713,0.868
	c0,0.137,0.037,0.284,0.109,0.403C139.072,4.005,139.529,4.042,139.904,4.088z M130.771,6.429h-3.966L126.02,8.02h-1.033
	l3.344-6.456h0.978l3.308,6.456h-1.06L130.771,6.429z M128.797,2.488l-1.608,3.2h3.189L128.797,2.488z M118.614,82.234h-3.966
	l-0.785,1.592h-1.033l3.344-6.456h0.978l3.308,6.456h-1.06L118.614,82.234z M116.641,78.294l-1.609,3.2h3.189L116.641,78.294z
	 M114.922,1.564h0.914v5.669h4.285V8.02h-5.199V1.564L114.922,1.564z M116.975,28.965c0.322,0.198,0.452,1.806,0.452,4.715
	c0,0.044-0.178,0.044-0.222,0c-0.555-3.496-2.859-5.395-6.276-5.395c-3.049,0-5.726,1.985-5.726,5.029
	c0,7.344,13.244,7.209,13.244,16.042c0,4.891-3.691,9.047-8.914,9.047c-3.084,0-5.575-1.016-7.939-3.039
	c-0.176-0.237,0.279-2.725,0.333-5.881c0-0.041,0.223-0.041,0.223,0c0.28,4.903,2.952,8.186,7.799,8.186
	c3.239,0,6.292-1.895,6.292-5.775c0-7.67-13.486-7.707-13.486-16.128c0-4.07,3.506-8.213,8.498-8.213
	C113.783,27.551,115.489,28.092,116.975,28.965z M104.454,1.564h0.914v5.669h4.286V8.02h-5.2V1.564z M105.946,77.471
	c0.868,0.229,1.361,0.905,1.361,1.793c0,0.346-0.073,1.252-1.041,1.654c-0.227,0.086-0.463,0.145-0.704,0.174l2.385,2.734h-1.197
	l-2.184-2.588h-3.116v2.588h-0.923V77.37h4.395C105.471,77.37,105.671,77.398,105.946,77.471z M101.441,80.479h3.189
	c0.521,0,1.133-0.018,1.49-0.475c0.091-0.109,0.237-0.329,0.237-0.705c0-0.117-0.009-0.365-0.164-0.631
	c-0.275-0.484-0.704-0.529-1.207-0.529h-3.545V80.479z M97.403,1.564h0.932V8.02h-0.932V1.564z M92.175,57.436
	c-2.628,0-5.032,0.143-6.926,0.367c-0.091,0,0-0.225,0.043-0.281c2.352-0.217,3.419-0.36,3.419-1.75
	c0-1.386-0.924-3.607-1.751-5.916l-1.432-3.93H74.953l-1.666,3.93c-1.15,2.783-1.987,4.617-1.987,5.916
	c0,1.155,0.882,1.58,3.146,1.75c0.048,0.057,0.136,0.281,0.048,0.281c-1.384-0.188-2.449-0.367-4.347-0.367
	c-2.625,0-2.721,0.143-4.612,0.367c-0.092,0,0-0.225,0.043-0.281c3.143-0.217,4.292-2.209,6.653-7.571l9.742-22.325
	c0.042-0.074,0.232-0.074,0.276,0l8.31,22.325c2.117,5.772,2.909,7.306,6.787,7.571c0.044,0.057,0.091,0.281,0,0.281
	C95.632,57.568,93.905,57.445,92.175,57.436z M80.767,32.4L75.23,45.335h10.062L80.767,32.4z M88.115,8.02l-3.098-6.456h1.014
	l2.559,5.441l2.485-5.441h1.005L89.038,8.02H88.115z M69.774,7.791h-0.895V5.707H66.64V4.92h2.239V2.853h0.895V4.92h2.239v0.787
	h-2.239V7.791z M63.78,33.232c-0.696-3.149-0.596-3.935-7.797-3.935h-5.125c-0.284,1.29-0.373,3.507-0.373,6.502v6.44h3.419
	c6.139,0,6.091-0.829,6.456-2.594c0,0,0.235-0.05,0.287,0c-0.238,0.83-0.422,2.217-0.422,3.468c0,0.599,0.051,1.748,0.135,2.222
	c0,0.086-0.272,0.047-0.272-0.051c-0.323-1.843-0.873-2.403-6.184-2.403h-3.419v7.023c0,7.352,0,7.257,4.625,7.617
	c0.041,0,0.128,0.281,0.041,0.281c-1.436-0.188-3.875-0.367-5.819-0.367c-2.63,0-4.334,0.143-6.234,0.367
	c-0.093,0,0-0.225,0.043-0.281c3.882-0.36,4.065-0.36,4.065-7.617V36.04c0-7.401-0.097-7.162-4.892-7.709
	c-0.05,0-0.144-0.189-0.05-0.189c3.325,0.234,7.943,0.324,12.517,0.324c3.316,0,6.179-0.231,7.849-0.231
	c0.554,0,0.736,0.141,0.919,0.73c0.284,1.069,0.284,3.099,0.462,4.267C64.011,33.282,63.78,33.282,63.78,33.232L63.78,33.232z
	 M48.5,1.564h0.914v5.669h4.285V8.02H48.5V1.564z M36.699,1.564h5.949v0.795h-5.035V4.28h4.907v0.768h-4.907v2.176h5.272V8.02
	h-6.186V1.564z M28.562,8.02h-0.914V2.332h-2.631V1.564h6.186v0.768h-2.641V8.02z M16.56,8.194c-0.164,0-0.539-0.009-0.986-0.083
	c-0.439-0.064-1.746-0.301-2.495-1.508c-0.438-0.714-0.466-1.445-0.466-1.738c0-0.741,0.192-1.481,0.649-2.057
	c0.091-0.119,0.21-0.257,0.466-0.467c0.438-0.366,1.325-0.933,2.778-0.933c0.292,0,1.169,0.028,2.001,0.412
	c0.53,0.247,1.041,0.649,1.38,1.134c0.53,0.768,0.566,1.618,0.566,1.929c0,0.375-0.055,1.381-0.841,2.195
	C19.165,7.544,18.178,8.194,16.56,8.194z M19.293,3.667c-0.695-1.49-2.532-1.481-2.897-1.472c-0.274,0.009-1.435,0.073-2.184,0.823
	c-0.245,0.244-0.429,0.542-0.539,0.869c-0.1,0.292-0.146,0.631-0.146,0.941c0,0.239,0.027,0.933,0.466,1.528
	c0.091,0.118,0.228,0.283,0.511,0.485c0.375,0.265,1.006,0.557,2.075,0.557c0.173,0,0.603,0,1.087-0.128
	c0.905-0.237,1.563-0.841,1.782-1.756c0.053-0.237,0.081-0.479,0.082-0.722C19.53,4.243,19.384,3.859,19.293,3.667z M5.875,4.966
	H0.931V8.02h-0.932V1.564h0.923v2.633h4.944V1.564h0.932V8.02H5.875V4.966z M95.04,78.139h-2.641v5.688h-0.914v-5.688h-2.631V77.37
	h6.186V78.139z M131.74,82.701l-0.027-5.331h0.877v6.456h-0.896l-5.053-5.34l0.018,5.34h-0.877V77.37h0.941L131.74,82.701
	L131.74,82.701z M139.438,78.119c0.229-0.191,0.494-0.374,0.75-0.502c0.83-0.422,1.863-0.439,2.11-0.439
	c0.302,0,1.498,0.027,2.431,0.594c0.127,0.084,0.393,0.256,0.666,0.541c0.293,0.311,0.448,0.594,0.53,0.74l-0.978,0.211
	c-0.052-0.099-0.109-0.193-0.174-0.285c-0.156-0.211-0.352-0.391-0.576-0.529c-0.301-0.192-0.949-0.467-1.863-0.467
	c-0.256,0-1.252,0.01-2.001,0.541c-0.073,0.045-0.21,0.154-0.365,0.328c-0.247,0.266-0.594,0.777-0.594,1.691
	c0,0.266,0.026,0.997,0.511,1.628c0.576,0.75,1.526,0.925,1.801,0.97c0.311,0.045,0.64,0.045,0.74,0.045
	c0.292,0,1.545,0.01,2.311-0.832c0.156-0.164,0.248-0.302,0.357-0.494l0.969,0.201c-0.211,0.375-0.33,0.541-0.457,0.696
	c-1.051,1.234-2.914,1.234-3.289,1.234c-1.279,0-2.029-0.357-2.486-0.649c-0.154-0.103-0.3-0.216-0.438-0.339
	c-0.182-0.176-0.341-0.372-0.476-0.585c-0.229-0.348-0.513-0.904-0.513-1.866c0-0.31,0.019-1.161,0.568-1.92
	C139.063,78.495,139.182,78.348,139.438,78.119L139.438,78.119z M165.378,82.327c0.138,0.137,0.438,0.374,0.886,0.558
	c0.74,0.301,1.618,0.311,1.828,0.311c0.164,0,1.133,0.027,1.754-0.438c0.385-0.293,0.439-0.696,0.439-0.87
	c0-0.373-0.21-0.648-0.549-0.795c-0.475-0.21-1.59-0.273-2.102-0.32c-1.234-0.101-1.837-0.164-2.313-0.603
	c-0.305-0.274-0.473-0.67-0.456-1.08c0-0.905,0.622-1.317,0.896-1.463c0.383-0.21,1.088-0.421,2.129-0.421
	c1.279,0,2.047,0.311,2.514,0.613c0.109,0.072,0.199,0.137,0.291,0.219c0.211,0.174,0.365,0.402,0.421,0.467l-0.841,0.338
	c-0.121-0.123-0.252-0.236-0.393-0.338c-0.357-0.247-0.969-0.54-1.982-0.54c-0.658,0-1.17,0.119-1.407,0.211
	c-0.558,0.21-0.714,0.595-0.714,0.869c0,0.138,0.037,0.283,0.109,0.401c0.229,0.365,0.687,0.402,1.062,0.449
	c0.712,0.092,1.425,0.127,2.138,0.209c0.996,0.119,1.453,0.375,1.764,0.76c0.225,0.289,0.345,0.647,0.338,1.015
	c0,0.549-0.201,0.906-0.33,1.08c-0.574,0.804-1.662,0.933-1.899,0.959c-0.31,0.041-0.62,0.063-0.933,0.065
	c-0.182,0-0.978-0.02-1.662-0.192c-0.147-0.037-0.375-0.092-0.695-0.229c-0.24-0.104-0.467-0.234-0.676-0.393
	c-0.348-0.266-0.503-0.503-0.604-0.65l0.851-0.347C165.286,82.227,165.323,82.271,165.378,82.327L165.378,82.327z M177.755,78.146
	c0.438-0.365,1.325-0.933,2.777-0.933c0.293,0,1.17,0.028,2.001,0.412c0.549,0.253,1.025,0.644,1.38,1.134
	c0.53,0.768,0.567,1.619,0.567,1.93c0,0.375-0.056,1.381-0.842,2.195c-0.447,0.467-1.435,1.115-3.052,1.115
	c-0.164,0-0.539-0.009-0.985-0.083c-0.439-0.063-1.746-0.301-2.496-1.508c-0.438-0.714-0.465-1.445-0.465-1.738
	c0-0.741,0.191-1.481,0.648-2.057C177.38,78.495,177.499,78.357,177.755,78.146L177.755,78.146z M178.02,82.162
	c0.092,0.119,0.229,0.283,0.512,0.484c0.375,0.266,1.005,0.559,2.074,0.559c0.174,0,0.604,0,1.088-0.128
	c0.904-0.238,1.562-0.843,1.781-1.757c0.053-0.236,0.08-0.479,0.082-0.723c0-0.549-0.146-0.932-0.238-1.125
	c-0.693-1.49-2.53-1.48-2.896-1.472c-0.274,0.009-1.435,0.073-2.185,0.823c-0.244,0.244-0.428,0.541-0.538,0.869
	c-0.099,0.304-0.148,0.622-0.146,0.941C177.555,80.873,177.581,81.566,178.02,82.162L178.02,82.162z"/>
</svg>
