<?xml version="1.0" encoding="utf-8"?>
<!-- Generator: Adobe Illustrator 16.0.0, SVG Export Plug-In . SVG Version: 6.00 Build 0)  -->
<!DOCTYPE svg PUBLIC "-//W3C//DTD SVG 1.1//EN" "http://www.w3.org/Graphics/SVG/1.1/DTD/svg11.dtd">
<svg version="1.1" id="Layer_1" xmlns="http://www.w3.org/2000/svg" xmlns:xlink="http://www.w3.org/1999/xlink" x="0px" y="0px"
	 width="74px" height="20px" viewBox="0 0 74 20" enable-background="new 0 0 74 20" xml:space="preserve">
<path fill="#FFFFFF" d="M72.759,16.8h1.237v3.04h-1.864c-2.774,0-3.962-2.074-3.962-4.115V8.594h-1.438V5.86h1.438V1.604h3.412V5.86
	h2.414v2.736h-2.414v6.909C71.582,16.329,71.947,16.8,72.759,16.8z M61.021,8.509c-1.047,0-2.201,0.831-2.201,2.651v8.68h-3.407
	V5.444h3.332v1.381c0.649-0.832,1.963-1.545,3.43-1.545c1.339,0,2.282,0.36,3.228,1.354l-2.573,2.729
	C62.307,8.809,61.861,8.509,61.021,8.509z M47.898,18.596c-0.92,0.965-1.789,1.381-3.355,1.381c-1.552,0-2.676-0.416-3.49-1.272
	c-0.732-0.8-1.129-1.96-1.129-3.235c0-2.289,1.494-4.164,4.668-4.164h3.227V10.58c0-1.571-0.735-2.26-2.543-2.26
	c-1.314,0-1.918,0.329-2.623,1.18l-2.178-2.235c1.336-1.541,2.646-1.985,4.93-1.985c3.824,0,5.822,1.711,5.822,5.08v9.48h-3.328
	V18.596z M47.818,13.76h-2.699c-1.234,0-1.916,0.611-1.916,1.631c0,0.989,0.63,1.655,1.969,1.655c0.939,0,1.541-0.079,2.148-0.685
	c0.365-0.363,0.498-0.939,0.498-1.83V13.76z M33.303,11.133c0-1.96-1.182-2.624-2.258-2.624c-1.045,0-2.278,0.664-2.278,2.544v8.784
	h-3.408v-8.704c0-1.96-1.176-2.624-2.254-2.624c-1.077,0-2.281,0.664-2.281,2.624v8.704h-3.412V5.444h3.336v1.332
	c0.876-0.953,2.112-1.496,3.407-1.496c1.518,0,2.752,0.58,3.615,1.82c1.157-1.269,2.387-1.82,4.084-1.82
	c1.366,0,2.599,0.469,3.359,1.275c1.1,1.156,1.495,2.509,1.495,4.081v9.204h-3.405V11.133z M6.513,8.016L8.72,8.344
	c1.709,0.252,2.776,0.745,3.568,1.521c0.991,0.995,1.439,2.432,1.439,4.171C13.724,17.845,10.707,20,6.804,20
	c-2.835,0-4.979-0.635-6.813-2.596l2.361-2.484c1.177,1.24,2.775,1.655,4.502,1.655c2.149,0,3.307-0.849,3.307-2.429
	c0-0.69-0.186-1.269-0.584-1.655c-0.363-0.362-0.781-0.56-1.645-0.695l-2.259-0.327C4.076,11.22,2.899,10.695,2.064,9.84
	C1.167,8.895,0.72,7.624,0.72,5.965C0.72,2.46,3.187,0,7.225,0c2.567,0,4.427,0.664,6.025,2.296l-2.3,2.399
	c-1.181-1.184-2.596-1.35-3.83-1.35c-1.94,0-2.888,1.135-2.888,2.484c0,0.495,0.159,1.024,0.549,1.411
	C5.153,7.6,5.754,7.9,6.513,8.016z"/>
</svg>
